<svg width="109" height="109" viewBox="0 0 109 109" fill="none" xmlns="http://www.w3.org/2000/svg">
<circle cx="54.5" cy="54.5" r="52.0885" stroke="#FFAEC3" stroke-width="4.82301"/>
<circle cx="54.258" cy="54.259" r="49.9181" fill="url(#paint0_radial_4948_2612)"/>
<path d="M27.4902 12.0576L41.9593 34.7258" stroke="white" stroke-width="0.482301"/>
<path d="M66.0762 73.792L80.5452 96.4601" stroke="white" stroke-width="0.482301"/>
<path d="M32.7791 52L35.3391 45H36.8691L39.4191 52H37.9891L36.0891 46.54L34.1891 52H32.7791ZM33.9091 50.41L34.2691 49.36H37.8291L38.1791 50.41H33.9091ZM42.4838 52.12C41.9838 52.12 41.5405 52.01 41.1538 51.79C40.7738 51.5633 40.4772 51.2467 40.2638 50.84C40.0505 50.4333 39.9438 49.9667 39.9438 49.44C39.9438 48.9 40.0472 48.42 40.2538 48C40.4672 47.58 40.7638 47.2533 41.1438 47.02C41.5305 46.78 41.9805 46.66 42.4938 46.66C43.0072 46.66 43.4472 46.7733 43.8138 47C44.1805 47.2267 44.4605 47.5367 44.6538 47.93C44.8538 48.3167 44.9538 48.7567 44.9538 49.25C44.9538 49.3167 44.9538 49.39 44.9538 49.47C44.9538 49.55 44.9472 49.6333 44.9338 49.72H40.9038V48.9H43.6038C43.5905 48.54 43.4805 48.26 43.2738 48.06C43.0672 47.86 42.8072 47.76 42.4938 47.76C42.2672 47.76 42.0605 47.8167 41.8738 47.93C41.6872 48.0433 41.5405 48.2133 41.4338 48.44C41.3272 48.66 41.2738 48.9433 41.2738 49.29V49.58C41.2738 49.8733 41.3205 50.1267 41.4138 50.34C41.5138 50.5533 41.6538 50.72 41.8338 50.84C42.0138 50.96 42.2272 51.02 42.4738 51.02C42.7405 51.02 42.9472 50.9733 43.0938 50.88C43.2405 50.7867 43.3572 50.66 43.4438 50.5H44.8138C44.7205 50.8 44.5638 51.0733 44.3438 51.32C44.1305 51.5667 43.8672 51.7633 43.5538 51.91C43.2405 52.05 42.8838 52.12 42.4838 52.12ZM46.1197 52V46.78H47.3197L47.4397 47.7C47.573 47.4733 47.7364 47.2833 47.9297 47.13C48.123 46.9767 48.3464 46.86 48.5997 46.78C48.8597 46.7 49.1464 46.66 49.4597 46.66V48.09H48.7797C48.5997 48.09 48.4297 48.1133 48.2697 48.16C48.1097 48.2 47.9697 48.27 47.8497 48.37C47.7297 48.47 47.6364 48.6067 47.5697 48.78C47.503 48.9467 47.4697 49.16 47.4697 49.42V52H46.1197ZM52.077 52.12C51.6704 52.12 51.3304 52.05 51.057 51.91C50.7904 51.7633 50.5904 51.57 50.457 51.33C50.3237 51.09 50.257 50.8267 50.257 50.54C50.257 50.2267 50.3337 49.9533 50.487 49.72C50.647 49.48 50.8837 49.2933 51.197 49.16C51.517 49.02 51.9137 48.95 52.387 48.95H53.607C53.607 48.6833 53.5804 48.4633 53.527 48.29C53.4804 48.11 53.387 47.9767 53.247 47.89C53.1137 47.8033 52.9204 47.76 52.667 47.76C52.4204 47.76 52.217 47.8133 52.057 47.92C51.9037 48.02 51.807 48.17 51.767 48.37H50.447C50.487 48.0233 50.6004 47.7233 50.787 47.47C50.9804 47.2167 51.237 47.02 51.557 46.88C51.8837 46.7333 52.2537 46.66 52.667 46.66C53.1537 46.66 53.567 46.74 53.907 46.9C54.247 47.06 54.507 47.29 54.687 47.59C54.867 47.89 54.957 48.26 54.957 48.7V52H53.827L53.677 51.22C53.6037 51.3533 53.5137 51.4767 53.407 51.59C53.307 51.6967 53.1904 51.79 53.057 51.87C52.9237 51.95 52.7737 52.01 52.607 52.05C52.447 52.0967 52.2704 52.12 52.077 52.12ZM52.397 51.08C52.557 51.08 52.7037 51.0467 52.837 50.98C52.9704 50.9133 53.087 50.8233 53.187 50.71C53.287 50.5967 53.367 50.4633 53.427 50.31C53.4937 50.1567 53.537 49.99 53.557 49.81V49.78H52.537C52.3437 49.78 52.1837 49.8067 52.057 49.86C51.9304 49.9133 51.837 49.99 51.777 50.09C51.717 50.1833 51.687 50.2933 51.687 50.42C51.687 50.56 51.7137 50.68 51.767 50.78C51.827 50.8733 51.9104 50.9467 52.017 51C52.1304 51.0533 52.257 51.08 52.397 51.08ZM58.5959 52C58.2426 52 57.9326 51.9467 57.6659 51.84C57.4059 51.7267 57.2026 51.5433 57.0559 51.29C56.9093 51.03 56.8359 50.6767 56.8359 50.23V47.91H55.9359V46.78H56.8359L56.9859 45.33H58.1859V46.78H59.5359V47.91H58.1859V50.25C58.1859 50.4767 58.2359 50.6333 58.3359 50.72C58.4359 50.8067 58.6059 50.85 58.8459 50.85H59.5559V52H58.5959ZM63.0014 52.12C62.5014 52.12 62.0581 52.01 61.6714 51.79C61.2914 51.5633 60.9947 51.2467 60.7814 50.84C60.5681 50.4333 60.4614 49.9667 60.4614 49.44C60.4614 48.9 60.5647 48.42 60.7714 48C60.9847 47.58 61.2814 47.2533 61.6614 47.02C62.0481 46.78 62.4981 46.66 63.0114 46.66C63.5247 46.66 63.9647 46.7733 64.3314 47C64.6981 47.2267 64.9781 47.5367 65.1714 47.93C65.3714 48.3167 65.4714 48.7567 65.4714 49.25C65.4714 49.3167 65.4714 49.39 65.4714 49.47C65.4714 49.55 65.4647 49.6333 65.4514 49.72H61.4214V48.9H64.1214C64.1081 48.54 63.9981 48.26 63.7914 48.06C63.5847 47.86 63.3247 47.76 63.0114 47.76C62.7847 47.76 62.5781 47.8167 62.3914 47.93C62.2047 48.0433 62.0581 48.2133 61.9514 48.44C61.8447 48.66 61.7914 48.9433 61.7914 49.29V49.58C61.7914 49.8733 61.8381 50.1267 61.9314 50.34C62.0314 50.5533 62.1714 50.72 62.3514 50.84C62.5314 50.96 62.7447 51.02 62.9914 51.02C63.2581 51.02 63.4647 50.9733 63.6114 50.88C63.7581 50.7867 63.8747 50.66 63.9614 50.5H65.3314C65.2381 50.8 65.0814 51.0733 64.8614 51.32C64.6481 51.5667 64.3847 51.7633 64.0714 51.91C63.7581 52.05 63.4014 52.12 63.0014 52.12ZM68.7773 52.12C68.3239 52.12 67.9206 52.0067 67.5673 51.78C67.2206 51.5467 66.9506 51.23 66.7573 50.83C66.5639 50.4233 66.4673 49.9567 66.4673 49.43C66.4673 48.89 66.5673 48.4133 66.7673 48C66.9673 47.58 67.2506 47.2533 67.6173 47.02C67.9839 46.78 68.4073 46.66 68.8873 46.66C69.2273 46.66 69.5273 46.7267 69.7873 46.86C70.0539 46.9867 70.2673 47.17 70.4273 47.41V44.8H71.7773V52H70.5773L70.4273 51.3C70.3273 51.4467 70.2039 51.5833 70.0573 51.71C69.9106 51.8367 69.7339 51.9367 69.5273 52.01C69.3206 52.0833 69.0706 52.12 68.7773 52.12ZM69.1573 50.94C69.4173 50.94 69.6439 50.8767 69.8373 50.75C70.0373 50.6233 70.1906 50.4433 70.2973 50.21C70.4106 49.9767 70.4673 49.7033 70.4673 49.39C70.4673 49.0767 70.4106 48.8033 70.2973 48.57C70.1906 48.3367 70.0373 48.1567 69.8373 48.03C69.6439 47.9033 69.4139 47.84 69.1473 47.84C68.9006 47.84 68.6773 47.9033 68.4773 48.03C68.2773 48.1567 68.1206 48.3367 68.0073 48.57C67.8939 48.7967 67.8373 49.0667 67.8373 49.38C67.8373 49.7 67.8939 49.9767 68.0073 50.21C68.1206 50.4433 68.2773 50.6233 68.4773 50.75C68.6773 50.8767 68.9039 50.94 69.1573 50.94ZM18.3164 63.12C17.6297 63.12 17.0397 62.97 16.5464 62.67C16.053 62.3633 15.673 61.94 15.4064 61.4C15.1397 60.8533 15.0064 60.2233 15.0064 59.51C15.0064 58.7967 15.1397 58.1667 15.4064 57.62C15.673 57.0733 16.053 56.6467 16.5464 56.34C17.0397 56.0333 17.6297 55.88 18.3164 55.88C19.1564 55.88 19.843 56.09 20.3764 56.51C20.9097 56.93 21.243 57.5233 21.3764 58.29H19.9164C19.8297 57.9167 19.6497 57.6267 19.3764 57.42C19.103 57.2067 18.7464 57.1 18.3064 57.1C17.9064 57.1 17.5597 57.2 17.2664 57.4C16.9797 57.5933 16.7597 57.87 16.6064 58.23C16.453 58.5833 16.3764 59.01 16.3764 59.51C16.3764 60.0033 16.453 60.43 16.6064 60.79C16.7597 61.15 16.9797 61.4267 17.2664 61.62C17.5597 61.8133 17.9064 61.91 18.3064 61.91C18.7464 61.91 19.0997 61.8133 19.3664 61.62C19.6397 61.42 19.823 61.1433 19.9164 60.79H21.3764C21.243 61.5167 20.9097 62.0867 20.3764 62.5C19.843 62.9133 19.1564 63.12 18.3164 63.12ZM24.9204 63.12C24.427 63.12 23.987 63.0067 23.6004 62.78C23.2204 62.5467 22.9204 62.2233 22.7004 61.81C22.487 61.3967 22.3804 60.9233 22.3804 60.39C22.3804 59.85 22.487 59.3767 22.7004 58.97C22.9204 58.5633 23.2237 58.2433 23.6104 58.01C23.997 57.7767 24.437 57.66 24.9304 57.66C25.4304 57.66 25.8704 57.7767 26.2504 58.01C26.637 58.2433 26.937 58.5633 27.1504 58.97C27.3704 59.3767 27.4804 59.85 27.4804 60.39C27.4804 60.9233 27.3704 61.3967 27.1504 61.81C26.937 62.2233 26.637 62.5467 26.2504 62.78C25.8704 63.0067 25.427 63.12 24.9204 63.12ZM24.9204 61.95C25.1537 61.95 25.357 61.8933 25.5304 61.78C25.7104 61.66 25.8504 61.4867 25.9504 61.26C26.0504 61.0267 26.1004 60.7367 26.1004 60.39C26.1004 60.0433 26.0504 59.7567 25.9504 59.53C25.857 59.2967 25.7237 59.1233 25.5504 59.01C25.377 58.89 25.1704 58.83 24.9304 58.83C24.7037 58.83 24.5004 58.89 24.3204 59.01C24.147 59.1233 24.007 59.2967 23.9004 59.53C23.8004 59.7567 23.7504 60.0433 23.7504 60.39C23.7504 60.7367 23.8004 61.0267 23.9004 61.26C24.0004 61.4867 24.137 61.66 24.3104 61.78C24.4904 61.8933 24.6937 61.95 24.9204 61.95ZM28.6929 63V57.78H29.8729L29.9729 58.57C30.1196 58.29 30.3329 58.07 30.6129 57.91C30.8929 57.7433 31.2296 57.66 31.6229 57.66C32.0296 57.66 32.3763 57.7433 32.6629 57.91C32.9496 58.0767 33.1696 58.3167 33.3229 58.63C33.4763 58.9433 33.5529 59.3267 33.5529 59.78V63H32.2029V59.91C32.2029 59.5567 32.1129 59.2833 31.9329 59.09C31.7596 58.8967 31.5063 58.8 31.1729 58.8C30.9663 58.8 30.7763 58.8467 30.6029 58.94C30.4296 59.0333 30.2929 59.17 30.1929 59.35C30.0929 59.53 30.0429 59.7467 30.0429 60V63H28.6929ZM37.3532 63.12C36.8465 63.12 36.3965 63.0067 36.0032 62.78C35.6165 62.5467 35.3132 62.2267 35.0932 61.82C34.8732 61.4133 34.7632 60.9533 34.7632 60.44C34.7632 59.8933 34.8732 59.4133 35.0932 59C35.3132 58.58 35.6165 58.2533 36.0032 58.02C36.3965 57.78 36.8465 57.66 37.3532 57.66C38.0065 57.66 38.5532 57.8333 38.9932 58.18C39.4332 58.5267 39.7132 59.0067 39.8332 59.62H38.4032C38.3432 59.3667 38.2165 59.17 38.0232 59.03C37.8365 58.89 37.6098 58.82 37.3432 58.82C37.0898 58.82 36.8732 58.8833 36.6932 59.01C36.5132 59.1367 36.3732 59.3167 36.2732 59.55C36.1798 59.7833 36.1332 60.0633 36.1332 60.39C36.1332 60.6367 36.1598 60.86 36.2132 61.06C36.2732 61.2533 36.3532 61.4167 36.4532 61.55C36.5598 61.6833 36.6865 61.7867 36.8332 61.86C36.9865 61.9333 37.1565 61.97 37.3432 61.97C37.5232 61.97 37.6832 61.94 37.8232 61.88C37.9698 61.8133 38.0932 61.72 38.1932 61.6C38.2998 61.48 38.3698 61.3367 38.4032 61.17H39.8332C39.7132 61.7633 39.4298 62.2367 38.9832 62.59C38.5432 62.9433 37.9998 63.12 37.3532 63.12ZM41.0562 63V57.78H42.2562L42.3762 58.7C42.5095 58.4733 42.6729 58.2833 42.8662 58.13C43.0595 57.9767 43.2829 57.86 43.5362 57.78C43.7962 57.7 44.0829 57.66 44.3962 57.66V59.09H43.7162C43.5362 59.09 43.3662 59.1133 43.2062 59.16C43.0462 59.2 42.9062 59.27 42.7862 59.37C42.6662 59.47 42.5729 59.6067 42.5062 59.78C42.4395 59.9467 42.4062 60.16 42.4062 60.42V63H41.0562ZM47.6254 63.12C47.1254 63.12 46.6821 63.01 46.2954 62.79C45.9154 62.5633 45.6188 62.2467 45.4054 61.84C45.1921 61.4333 45.0854 60.9667 45.0854 60.44C45.0854 59.9 45.1888 59.42 45.3954 59C45.6088 58.58 45.9054 58.2533 46.2854 58.02C46.6721 57.78 47.1221 57.66 47.6354 57.66C48.1488 57.66 48.5888 57.7733 48.9554 58C49.3221 58.2267 49.6021 58.5367 49.7954 58.93C49.9954 59.3167 50.0954 59.7567 50.0954 60.25C50.0954 60.3167 50.0954 60.39 50.0954 60.47C50.0954 60.55 50.0888 60.6333 50.0754 60.72H46.0454V59.9H48.7454C48.7321 59.54 48.6221 59.26 48.4154 59.06C48.2088 58.86 47.9488 58.76 47.6354 58.76C47.4088 58.76 47.2021 58.8167 47.0154 58.93C46.8288 59.0433 46.6821 59.2133 46.5754 59.44C46.4688 59.66 46.4154 59.9433 46.4154 60.29V60.58C46.4154 60.8733 46.4621 61.1267 46.5554 61.34C46.6554 61.5533 46.7954 61.72 46.9754 61.84C47.1554 61.96 47.3688 62.02 47.6154 62.02C47.8821 62.02 48.0888 61.9733 48.2354 61.88C48.3821 61.7867 48.4988 61.66 48.5854 61.5H49.9554C49.8621 61.8 49.7054 62.0733 49.4854 62.32C49.2721 62.5667 49.0088 62.7633 48.6954 62.91C48.3821 63.05 48.0254 63.12 47.6254 63.12ZM53.5129 63C53.1596 63 52.8496 62.9467 52.5829 62.84C52.3229 62.7267 52.1196 62.5433 51.9729 62.29C51.8263 62.03 51.7529 61.6767 51.7529 61.23V58.91H50.8529V57.78H51.7529L51.9029 56.33H53.1029V57.78H54.4529V58.91H53.1029V61.25C53.1029 61.4767 53.1529 61.6333 53.2529 61.72C53.3529 61.8067 53.5229 61.85 53.7629 61.85H54.4729V63H53.5129ZM57.9184 63.12C57.4184 63.12 56.9751 63.01 56.5884 62.79C56.2084 62.5633 55.9117 62.2467 55.6984 61.84C55.4851 61.4333 55.3784 60.9667 55.3784 60.44C55.3784 59.9 55.4817 59.42 55.6884 59C55.9017 58.58 56.1984 58.2533 56.5784 58.02C56.9651 57.78 57.4151 57.66 57.9284 57.66C58.4417 57.66 58.8817 57.7733 59.2484 58C59.6151 58.2267 59.8951 58.5367 60.0884 58.93C60.2884 59.3167 60.3884 59.7567 60.3884 60.25C60.3884 60.3167 60.3884 60.39 60.3884 60.47C60.3884 60.55 60.3817 60.6333 60.3684 60.72H56.3384V59.9H59.0384C59.0251 59.54 58.9151 59.26 58.7084 59.06C58.5017 58.86 58.2417 58.76 57.9284 58.76C57.7017 58.76 57.4951 58.8167 57.3084 58.93C57.1217 59.0433 56.9751 59.2133 56.8684 59.44C56.7617 59.66 56.7084 59.9433 56.7084 60.29V60.58C56.7084 60.8733 56.7551 61.1267 56.8484 61.34C56.9484 61.5533 57.0884 61.72 57.2684 61.84C57.4484 61.96 57.6617 62.02 57.9084 62.02C58.1751 62.02 58.3817 61.9733 58.5284 61.88C58.6751 61.7867 58.7917 61.66 58.8784 61.5H60.2484C60.1551 61.8 59.9984 62.0733 59.7784 62.32C59.5651 62.5667 59.3017 62.7633 58.9884 62.91C58.6751 63.05 58.3184 63.12 57.9184 63.12ZM63.9868 63V56H66.8568C67.3435 56 67.7535 56.0767 68.0868 56.23C68.4202 56.3833 68.6702 56.5967 68.8368 56.87C69.0102 57.1367 69.0968 57.4467 69.0968 57.8C69.0968 58.1533 69.0202 58.45 68.8668 58.69C68.7135 58.93 68.5102 59.1167 68.2568 59.25C68.0102 59.3767 67.7402 59.45 67.4468 59.47L67.5968 59.36C67.9168 59.3733 68.2002 59.46 68.4468 59.62C68.7002 59.7733 68.8968 59.98 69.0368 60.24C69.1835 60.5 69.2568 60.7833 69.2568 61.09C69.2568 61.4633 69.1668 61.7933 68.9868 62.08C68.8135 62.3667 68.5535 62.5933 68.2068 62.76C67.8668 62.92 67.4502 63 66.9568 63H63.9868ZM65.3368 61.9H66.7368C67.1035 61.9 67.3868 61.8167 67.5868 61.65C67.7868 61.4833 67.8868 61.2433 67.8868 60.93C67.8868 60.6167 67.7835 60.3733 67.5768 60.2C67.3702 60.02 67.0835 59.93 66.7168 59.93H65.3368V61.9ZM65.3368 58.92H66.6368C66.9902 58.92 67.2602 58.84 67.4468 58.68C67.6335 58.52 67.7268 58.2933 67.7268 58C67.7268 57.7133 67.6335 57.49 67.4468 57.33C67.2602 57.1633 66.9868 57.08 66.6268 57.08H65.3368V58.92ZM70.3824 63V55.8H71.7324V63H70.3824ZM75.477 63.12C74.9837 63.12 74.5437 63.0067 74.157 62.78C73.777 62.5467 73.477 62.2233 73.257 61.81C73.0437 61.3967 72.937 60.9233 72.937 60.39C72.937 59.85 73.0437 59.3767 73.257 58.97C73.477 58.5633 73.7803 58.2433 74.167 58.01C74.5537 57.7767 74.9937 57.66 75.487 57.66C75.987 57.66 76.427 57.7767 76.807 58.01C77.1937 58.2433 77.4937 58.5633 77.707 58.97C77.927 59.3767 78.037 59.85 78.037 60.39C78.037 60.9233 77.927 61.3967 77.707 61.81C77.4937 62.2233 77.1937 62.5467 76.807 62.78C76.427 63.0067 75.9837 63.12 75.477 63.12ZM75.477 61.95C75.7103 61.95 75.9137 61.8933 76.087 61.78C76.267 61.66 76.407 61.4867 76.507 61.26C76.607 61.0267 76.657 60.7367 76.657 60.39C76.657 60.0433 76.607 59.7567 76.507 59.53C76.4137 59.2967 76.2803 59.1233 76.107 59.01C75.9337 58.89 75.727 58.83 75.487 58.83C75.2603 58.83 75.057 58.89 74.877 59.01C74.7037 59.1233 74.5637 59.2967 74.457 59.53C74.357 59.7567 74.307 60.0433 74.307 60.39C74.307 60.7367 74.357 61.0267 74.457 61.26C74.557 61.4867 74.6937 61.66 74.867 61.78C75.047 61.8933 75.2503 61.95 75.477 61.95ZM81.6696 63.12C81.1629 63.12 80.7129 63.0067 80.3196 62.78C79.9329 62.5467 79.6296 62.2267 79.4096 61.82C79.1896 61.4133 79.0796 60.9533 79.0796 60.44C79.0796 59.8933 79.1896 59.4133 79.4096 59C79.6296 58.58 79.9329 58.2533 80.3196 58.02C80.7129 57.78 81.1629 57.66 81.6696 57.66C82.3229 57.66 82.8696 57.8333 83.3096 58.18C83.7496 58.5267 84.0296 59.0067 84.1496 59.62H82.7196C82.6596 59.3667 82.5329 59.17 82.3396 59.03C82.1529 58.89 81.9262 58.82 81.6596 58.82C81.4062 58.82 81.1896 58.8833 81.0096 59.01C80.8296 59.1367 80.6896 59.3167 80.5896 59.55C80.4962 59.7833 80.4496 60.0633 80.4496 60.39C80.4496 60.6367 80.4762 60.86 80.5296 61.06C80.5896 61.2533 80.6696 61.4167 80.7696 61.55C80.8762 61.6833 81.0029 61.7867 81.1496 61.86C81.3029 61.9333 81.4729 61.97 81.6596 61.97C81.8396 61.97 81.9996 61.94 82.1396 61.88C82.2862 61.8133 82.4096 61.72 82.5096 61.6C82.6162 61.48 82.6862 61.3367 82.7196 61.17H84.1496C84.0296 61.7633 83.7462 62.2367 83.2996 62.59C82.8596 62.9433 82.3162 63.12 81.6696 63.12ZM88.6426 63L86.5226 60.18L88.4726 57.78H90.0726L87.5426 60.74L87.5526 59.67L90.3226 63H88.6426ZM85.3726 63V55.8H86.7226V63H85.3726Z" fill="white"/>
<defs>
<radialGradient id="paint0_radial_4948_2612" cx="0" cy="0" r="1" gradientUnits="userSpaceOnUse" gradientTransform="translate(54.258 54.259) rotate(90) scale(49.9181)">
<stop stop-color="#F24F7A"/>
<stop offset="1" stop-color="#DB1F51"/>
</radialGradient>
</defs>
</svg>
