<svg width="109" height="109" viewBox="0 0 109 109" fill="none" xmlns="http://www.w3.org/2000/svg">
<circle cx="54.5" cy="54.5" r="52.0885" stroke="#FFAEC3" stroke-width="4.82301"/>
<circle cx="54.258" cy="54.259" r="49.9181" fill="url(#paint0_radial_4948_2624)"/>
<path d="M27.4902 12.0576L41.9593 34.7258" stroke="white" stroke-width="0.482301"/>
<path d="M66.0762 73.792L80.5452 96.4601" stroke="white" stroke-width="0.482301"/>
<path d="M34.1978 52V45H37.0678C37.5544 45 37.9644 45.0767 38.2978 45.23C38.6311 45.3833 38.8811 45.5967 39.0478 45.87C39.2211 46.1367 39.3078 46.4467 39.3078 46.8C39.3078 47.1533 39.2311 47.45 39.0778 47.69C38.9244 47.93 38.7211 48.1167 38.4678 48.25C38.2211 48.3767 37.9511 48.45 37.6578 48.47L37.8078 48.36C38.1278 48.3733 38.4111 48.46 38.6578 48.62C38.9111 48.7733 39.1078 48.98 39.2478 49.24C39.3944 49.5 39.4678 49.7833 39.4678 50.09C39.4678 50.4633 39.3778 50.7933 39.1978 51.08C39.0244 51.3667 38.7644 51.5933 38.4178 51.76C38.0778 51.92 37.6611 52 37.1678 52H34.1978ZM35.5478 50.9H36.9478C37.3144 50.9 37.5978 50.8167 37.7978 50.65C37.9978 50.4833 38.0978 50.2433 38.0978 49.93C38.0978 49.6167 37.9944 49.3733 37.7878 49.2C37.5811 49.02 37.2944 48.93 36.9278 48.93H35.5478V50.9ZM35.5478 47.92H36.8478C37.2011 47.92 37.4711 47.84 37.6578 47.68C37.8444 47.52 37.9378 47.2933 37.9378 47C37.9378 46.7133 37.8444 46.49 37.6578 46.33C37.4711 46.1633 37.1978 46.08 36.8378 46.08H35.5478V47.92ZM40.5933 52V46.78H41.7933L41.9133 47.7C42.0467 47.4733 42.21 47.2833 42.4033 47.13C42.5967 46.9767 42.82 46.86 43.0733 46.78C43.3333 46.7 43.62 46.66 43.9333 46.66V48.09H43.2533C43.0733 48.09 42.9033 48.1133 42.7433 48.16C42.5833 48.2 42.4433 48.27 42.3233 48.37C42.2033 48.47 42.11 48.6067 42.0433 48.78C41.9767 48.9467 41.9433 49.16 41.9433 49.42V52H40.5933ZM47.1625 52.12C46.6625 52.12 46.2192 52.01 45.8325 51.79C45.4525 51.5633 45.1559 51.2467 44.9425 50.84C44.7292 50.4333 44.6225 49.9667 44.6225 49.44C44.6225 48.9 44.7259 48.42 44.9325 48C45.1459 47.58 45.4425 47.2533 45.8225 47.02C46.2092 46.78 46.6592 46.66 47.1725 46.66C47.6859 46.66 48.1259 46.7733 48.4925 47C48.8592 47.2267 49.1392 47.5367 49.3325 47.93C49.5325 48.3167 49.6325 48.7567 49.6325 49.25C49.6325 49.3167 49.6325 49.39 49.6325 49.47C49.6325 49.55 49.6259 49.6333 49.6125 49.72H45.5825V48.9H48.2825C48.2692 48.54 48.1592 48.26 47.9525 48.06C47.7459 47.86 47.4859 47.76 47.1725 47.76C46.9459 47.76 46.7392 47.8167 46.5525 47.93C46.3659 48.0433 46.2192 48.2133 46.1125 48.44C46.0059 48.66 45.9525 48.9433 45.9525 49.29V49.58C45.9525 49.8733 45.9992 50.1267 46.0925 50.34C46.1925 50.5533 46.3325 50.72 46.5125 50.84C46.6925 50.96 46.9059 51.02 47.1525 51.02C47.4192 51.02 47.6259 50.9733 47.7725 50.88C47.9192 50.7867 48.0359 50.66 48.1225 50.5H49.4925C49.3992 50.8 49.2425 51.0733 49.0225 51.32C48.8092 51.5667 48.5459 51.7633 48.2325 51.91C47.9192 52.05 47.5625 52.12 47.1625 52.12ZM51.6431 52L50.1031 46.78H51.4331L52.3831 50.64H52.3331L53.3831 46.78H54.8731L55.9231 50.63L55.8731 50.64L56.8231 46.78H58.1631L56.6131 52H55.2231L54.1031 48.02H54.1531L53.0431 52H51.6431ZM61.2348 52.12C60.7348 52.12 60.2915 52.01 59.9048 51.79C59.5248 51.5633 59.2281 51.2467 59.0148 50.84C58.8015 50.4333 58.6948 49.9667 58.6948 49.44C58.6948 48.9 58.7981 48.42 59.0048 48C59.2181 47.58 59.5148 47.2533 59.8948 47.02C60.2815 46.78 60.7315 46.66 61.2448 46.66C61.7581 46.66 62.1981 46.7733 62.5648 47C62.9315 47.2267 63.2115 47.5367 63.4048 47.93C63.6048 48.3167 63.7048 48.7567 63.7048 49.25C63.7048 49.3167 63.7048 49.39 63.7048 49.47C63.7048 49.55 63.6981 49.6333 63.6848 49.72H59.6548V48.9H62.3548C62.3415 48.54 62.2315 48.26 62.0248 48.06C61.8181 47.86 61.5581 47.76 61.2448 47.76C61.0181 47.76 60.8115 47.8167 60.6248 47.93C60.4381 48.0433 60.2915 48.2133 60.1848 48.44C60.0781 48.66 60.0248 48.9433 60.0248 49.29V49.58C60.0248 49.8733 60.0715 50.1267 60.1648 50.34C60.2648 50.5533 60.4048 50.72 60.5848 50.84C60.7648 50.96 60.9781 51.02 61.2248 51.02C61.4915 51.02 61.6981 50.9733 61.8448 50.88C61.9915 50.7867 62.1081 50.66 62.1948 50.5H63.5648C63.4715 50.8 63.3148 51.0733 63.0948 51.32C62.8815 51.5667 62.6181 51.7633 62.3048 51.91C61.9915 52.05 61.6348 52.12 61.2348 52.12ZM64.8707 52V46.78H66.0707L66.1907 47.7C66.324 47.4733 66.4873 47.2833 66.6807 47.13C66.874 46.9767 67.0973 46.86 67.3507 46.78C67.6107 46.7 67.8973 46.66 68.2107 46.66V48.09H67.5307C67.3507 48.09 67.1807 48.1133 67.0207 48.16C66.8607 48.2 66.7207 48.27 66.6007 48.37C66.4807 48.47 66.3873 48.6067 66.3207 48.78C66.254 48.9467 66.2207 49.16 66.2207 49.42V52H64.8707ZM69.818 54.2L70.988 51.44H70.688L68.688 46.78H70.158L71.578 50.18L72.858 46.78H74.298L71.238 54.2H69.818ZM33.7974 63V56H35.1474V63H33.7974ZM36.5699 63V57.78H37.7499L37.8499 58.57C37.9965 58.29 38.2099 58.07 38.4899 57.91C38.7699 57.7433 39.1065 57.66 39.4999 57.66C39.9065 57.66 40.2532 57.7433 40.5399 57.91C40.8265 58.0767 41.0465 58.3167 41.1999 58.63C41.3532 58.9433 41.4299 59.3267 41.4299 59.78V63H40.0799V59.91C40.0799 59.5567 39.9899 59.2833 39.8099 59.09C39.6365 58.8967 39.3832 58.8 39.0499 58.8C38.8432 58.8 38.6532 58.8467 38.4799 58.94C38.3065 59.0333 38.1699 59.17 38.0699 59.35C37.9699 59.53 37.9199 59.7467 37.9199 60V63H36.5699ZM44.9501 63.12C44.4968 63.12 44.0935 63.0067 43.7401 62.78C43.3935 62.5467 43.1235 62.23 42.9301 61.83C42.7368 61.4233 42.6401 60.9567 42.6401 60.43C42.6401 59.89 42.7401 59.4133 42.9401 59C43.1401 58.58 43.4235 58.2533 43.7901 58.02C44.1568 57.78 44.5801 57.66 45.0601 57.66C45.4001 57.66 45.7001 57.7267 45.9601 57.86C46.2268 57.9867 46.4401 58.17 46.6001 58.41V55.8H47.9501V63H46.7501L46.6001 62.3C46.5001 62.4467 46.3768 62.5833 46.2301 62.71C46.0835 62.8367 45.9068 62.9367 45.7001 63.01C45.4935 63.0833 45.2435 63.12 44.9501 63.12ZM45.3301 61.94C45.5901 61.94 45.8168 61.8767 46.0101 61.75C46.2101 61.6233 46.3635 61.4433 46.4701 61.21C46.5835 60.9767 46.6401 60.7033 46.6401 60.39C46.6401 60.0767 46.5835 59.8033 46.4701 59.57C46.3635 59.3367 46.2101 59.1567 46.0101 59.03C45.8168 58.9033 45.5868 58.84 45.3201 58.84C45.0735 58.84 44.8501 58.9033 44.6501 59.03C44.4501 59.1567 44.2935 59.3367 44.1801 59.57C44.0668 59.7967 44.0101 60.0667 44.0101 60.38C44.0101 60.7 44.0668 60.9767 44.1801 61.21C44.2935 61.4433 44.4501 61.6233 44.6501 61.75C44.8501 61.8767 45.0768 61.94 45.3301 61.94ZM51.2638 63.12C50.8571 63.12 50.5071 63.0433 50.2138 62.89C49.9271 62.73 49.7071 62.4967 49.5538 62.19C49.4005 61.8833 49.3238 61.5 49.3238 61.04V57.78H50.6638V60.88C50.6638 61.2533 50.7538 61.53 50.9338 61.71C51.1138 61.89 51.3705 61.98 51.7038 61.98C51.9171 61.98 52.1071 61.9367 52.2738 61.85C52.4471 61.7633 52.5838 61.63 52.6838 61.45C52.7838 61.27 52.8338 61.05 52.8338 60.79V57.78H54.1838V63H52.9938L52.8938 62.21C52.7538 62.49 52.5438 62.7133 52.2638 62.88C51.9905 63.04 51.6571 63.12 51.2638 63.12ZM57.5943 63.12C57.0809 63.12 56.6576 63.0467 56.3243 62.9C55.9909 62.7467 55.7376 62.54 55.5643 62.28C55.3909 62.0133 55.2943 61.7167 55.2743 61.39H56.6143C56.6343 61.5167 56.6809 61.6333 56.7543 61.74C56.8276 61.8467 56.9309 61.9333 57.0643 62C57.2043 62.06 57.3743 62.09 57.5743 62.09C57.7476 62.09 57.8943 62.0667 58.0143 62.02C58.1409 61.9667 58.2343 61.8967 58.2943 61.81C58.3609 61.7167 58.3943 61.61 58.3943 61.49C58.3943 61.3367 58.3509 61.2167 58.2643 61.13C58.1843 61.0433 58.0676 60.9767 57.9143 60.93C57.7609 60.8767 57.5709 60.8333 57.3443 60.8C57.0509 60.7533 56.7809 60.6933 56.5343 60.62C56.2943 60.5467 56.0876 60.4533 55.9143 60.34C55.7476 60.22 55.6176 60.07 55.5243 59.89C55.4309 59.71 55.3843 59.4933 55.3843 59.24C55.3843 58.94 55.4676 58.67 55.6343 58.43C55.8009 58.19 56.0409 58.0033 56.3543 57.87C56.6676 57.73 57.0443 57.66 57.4843 57.66C58.1176 57.66 58.6076 57.7967 58.9543 58.07C59.3076 58.3433 59.5176 58.7167 59.5843 59.19H58.3143C58.2743 59.0367 58.1809 58.9167 58.0343 58.83C57.8943 58.7433 57.7043 58.7 57.4643 58.7C57.2176 58.7 57.0276 58.7467 56.8943 58.84C56.7609 58.9267 56.6943 59.0467 56.6943 59.2C56.6943 59.3 56.7243 59.3933 56.7843 59.48C56.8509 59.56 56.9576 59.63 57.1043 59.69C57.2576 59.7433 57.4643 59.7933 57.7243 59.84C58.1843 59.9067 58.5609 59.9933 58.8543 60.1C59.1543 60.2067 59.3776 60.3633 59.5243 60.57C59.6776 60.7767 59.7509 61.06 59.7443 61.42C59.7443 61.7733 59.6543 62.0767 59.4743 62.33C59.3009 62.5833 59.0509 62.78 58.7243 62.92C58.4043 63.0533 58.0276 63.12 57.5943 63.12ZM63.1086 63C62.7553 63 62.4453 62.9467 62.1786 62.84C61.9186 62.7267 61.7153 62.5433 61.5686 62.29C61.422 62.03 61.3486 61.6767 61.3486 61.23V58.91H60.4486V57.78H61.3486L61.4986 56.33H62.6986V57.78H64.0486V58.91H62.6986V61.25C62.6986 61.4767 62.7486 61.6333 62.8486 61.72C62.9486 61.8067 63.1186 61.85 63.3586 61.85H64.0686V63H63.1086ZM65.2711 63V57.78H66.4711L66.5911 58.7C66.7244 58.4733 66.8877 58.2833 67.0811 58.13C67.2744 57.9767 67.4977 57.86 67.7511 57.78C68.0111 57.7 68.2977 57.66 68.6111 57.66V59.09H67.9311C67.7511 59.09 67.5811 59.1133 67.4211 59.16C67.2611 59.2 67.1211 59.27 67.0011 59.37C66.8811 59.47 66.7877 59.6067 66.7211 59.78C66.6544 59.9467 66.6211 60.16 66.6211 60.42V63H65.2711ZM70.2184 65.2L71.3884 62.44H71.0884L69.0884 57.78H70.5584L71.9784 61.18L73.2584 57.78H74.6984L71.6384 65.2H70.2184Z" fill="white"/>
<defs>
<radialGradient id="paint0_radial_4948_2624" cx="0" cy="0" r="1" gradientUnits="userSpaceOnUse" gradientTransform="translate(54.258 54.259) rotate(90) scale(49.9181)">
<stop stop-color="#F24F7A"/>
<stop offset="1" stop-color="#DB1F51"/>
</radialGradient>
</defs>
</svg>
