<svg width="17" height="17" viewBox="0 0 17 17" fill="none" xmlns="http://www.w3.org/2000/svg">
<path d="M4.64844 4.05078V2.57231C4.64844 1.98389 5.12988 1.50244 5.71831 1.50244H11.2817C11.8702 1.50244 12.3516 1.98389 12.3516 2.57231V4.05078" stroke="#2A2A2A" stroke-width="0.996094" stroke-miterlimit="22.9256" stroke-linecap="round" stroke-linejoin="round"/>
<path d="M15.8379 8.83203V14.5015C15.8379 15.0492 15.3895 15.4976 14.8418 15.4976H2.1582C1.61045 15.4976 1.16211 15.0493 1.16211 14.5015V8.86523" stroke="#2A2A2A" stroke-width="0.996094" stroke-miterlimit="22.9256" stroke-linecap="round" stroke-linejoin="round"/>
<path d="M7.17188 10.5088C3.65935 10.3079 0.498047 9.30352 0.498047 7.49551V5.13818C0.498047 4.58957 0.945492 4.14209 1.49414 4.14209H15.5059C16.0545 4.14209 16.502 4.5896 16.502 5.13818V7.49551C16.502 9.31484 13.3007 10.3205 9.76172 10.5125" stroke="#2A2A2A" stroke-width="0.996094" stroke-miterlimit="22.9256" stroke-linecap="round" stroke-linejoin="round"/>
<path fill-rule="evenodd" clip-rule="evenodd" d="M7.27148 9.521H9.72852V10.6665C9.72852 11.2965 9.21304 11.812 8.58301 11.812H8.41699C7.78696 11.812 7.27148 11.2965 7.27148 10.6665V9.521Z" stroke="#2A2A2A" stroke-width="0.996094" stroke-miterlimit="22.9256" stroke-linecap="round" stroke-linejoin="round"/>
</svg>
