<svg width="23" height="23" viewBox="0 0 23 23" fill="none" xmlns="http://www.w3.org/2000/svg">
<path d="M13.0503 15.8993C13.0189 15.8832 12.9871 15.8671 12.9551 15.8509C12.7963 15.7707 12.6316 15.6874 12.4759 15.586M13.0503 15.8993L8.28113 11.7654C9.58656 13.3755 10.9616 14.6243 12.4759 15.586M13.0503 15.8993C13.2244 15.9863 13.3854 16.069 13.529 16.1604M13.0503 15.8993L13.529 16.1604M12.4759 15.586L12.3122 15.8374C12.3127 15.8377 12.3132 15.838 12.3137 15.8383M12.4759 15.586L12.3151 15.8392C12.3146 15.8389 12.3141 15.8386 12.3137 15.8383M12.3137 15.8383C12.484 15.9491 12.6655 16.0408 12.8237 16.1208C12.8547 16.1364 12.8847 16.1516 12.9137 16.1664L12.9161 16.1676C13.0906 16.2548 13.2389 16.3314 13.3679 16.4135L13.3809 16.4218L13.3948 16.4287L13.3948 16.4287C13.395 16.4288 13.3955 16.4291 13.3964 16.4296L13.404 16.4339L13.4052 16.4346C13.4123 16.4386 13.4253 16.4461 13.4408 16.4539M12.3137 15.8383L13.4408 16.4539M13.4408 16.4539C13.6217 16.5469 13.8073 16.5953 13.9989 16.5953C14.4757 16.5953 14.7778 16.2931 14.8586 16.2123L14.8594 16.2115L16.4868 14.5841C16.7031 14.3679 16.9053 14.2847 17.071 14.2847C17.2777 14.2847 17.4732 14.4164 17.6214 14.5761L17.6212 14.5762L17.6293 14.5843L20.253 17.2036C20.2531 17.2037 20.2531 17.2037 20.2532 17.2038C20.4763 17.427 20.5549 17.626 20.5535 17.798C20.5521 17.9724 20.4681 18.1823 20.2357 18.4242L20.2357 18.4241L20.2328 18.4273C20.0559 18.6168 19.8694 18.7992 19.6659 18.994L19.6643 18.9956C19.6469 19.0125 19.6294 19.0294 19.6118 19.0465C19.3265 19.3234 19.0194 19.6215 18.7388 19.9565C18.2994 20.4277 17.7858 20.647 17.0971 20.647C17.0334 20.647 16.9637 20.6432 16.8893 20.6388C15.5228 20.5512 14.2396 20.0162 13.2498 19.5452C10.5826 18.2543 8.24083 16.4232 6.29671 14.0972C4.69087 12.1641 3.61818 10.3743 2.90994 8.4629L2.90957 8.46191C2.47108 7.2912 2.31461 6.37569 2.37927 5.55959C2.4255 5.05071 2.61724 4.63395 2.98436 4.26684L4.60114 2.65005C4.81238 2.44677 5.01913 2.3661 5.19162 2.3661C5.35623 2.3661 5.5532 2.4436 5.76091 2.65495L5.7659 2.66003L5.77112 2.66486C6.01831 2.89361 6.25259 3.13182 6.50512 3.38857C6.54363 3.42774 6.58258 3.46733 6.62206 3.50739C6.69667 3.5842 6.77224 3.66086 6.84746 3.73716L6.84875 3.73847C6.92405 3.81485 6.99904 3.89092 7.07391 3.96793L7.07389 3.96795L7.07688 3.97094L8.3736 5.26766C8.61184 5.5059 8.69477 5.70823 8.69477 5.86925C8.69477 6.03027 8.61184 6.2326 8.3736 6.47083C8.30539 6.53905 8.23732 6.60822 8.17023 6.67639L8.16957 6.67706C8.10198 6.74574 8.03537 6.81341 7.96892 6.87987L7.96779 6.88101C7.9376 6.91151 7.90762 6.94184 7.87781 6.972C7.50551 7.3486 7.15957 7.69854 6.78118 8.03358L6.77437 8.03961L6.76793 8.04605L6.74617 8.06781C6.52287 8.2911 6.41273 8.52754 6.38368 8.76388C6.35557 8.99256 6.40707 9.19366 6.45612 9.34083L6.74073 9.24596L6.45612 9.34083C6.46114 9.35589 6.46612 9.3683 6.46836 9.37389L6.46871 9.37478C6.46923 9.37608 6.46959 9.37699 6.46982 9.37757L13.4408 16.4539ZM13.4408 16.4539C13.4414 16.4542 13.4421 16.4545 13.4427 16.4548L13.5768 16.1865M13.4408 16.4539L20.4521 18.632C20.983 18.0794 20.9873 17.5137 20.4651 16.9915L17.8412 14.3719C17.6715 14.1892 17.4017 13.9847 17.071 13.9847C16.8012 13.9847 16.5271 14.1196 16.2747 14.3719L14.6473 15.9994C14.5733 16.0734 14.347 16.2953 13.9989 16.2953C13.8597 16.2953 13.7204 16.2605 13.5768 16.1865M13.4408 16.4539C13.4404 16.4537 13.4399 16.4534 13.4394 16.4532L13.5768 16.1865M13.4408 16.4539L13.529 16.1604M13.5768 16.1865C13.5681 16.1821 13.5605 16.1778 13.5529 16.1734C13.5453 16.1691 13.5377 16.1647 13.529 16.1604M5.0089 15.1513L5.00938 15.1519C7.1075 17.6599 9.63454 19.636 12.5191 21.0342L12.5215 21.0353C13.612 21.5521 15.1038 22.1824 16.7775 22.2907L16.7775 22.2907L16.7839 22.291L16.7978 22.2916C16.8921 22.2957 16.99 22.3 17.0928 22.3C18.255 22.3 19.2052 21.8943 19.9728 21.0629C19.9774 21.0581 19.9847 21.0505 19.9923 21.0416C19.9977 21.0354 20.0061 21.0252 20.0155 21.0117C20.2369 20.7464 20.4871 20.5038 20.7631 20.236C20.7824 20.2172 20.8018 20.1984 20.8214 20.1794C21.0271 19.9825 21.239 19.775 21.4431 19.562C21.9511 19.0326 22.222 18.4124 22.2207 17.778C22.2194 17.1428 21.9454 16.5289 21.4301 16.0135L18.8169 13.4003C18.3258 12.8909 17.7207 12.6055 17.071 12.6055C16.4209 12.6055 15.8125 12.8912 15.3098 13.394L13.9108 14.7929C13.8278 14.7495 13.7466 14.7089 13.6707 14.6709L13.6675 14.6693C13.493 14.5821 13.3448 14.5056 13.2157 14.4234L13.2155 14.4233C11.8288 13.5428 10.5646 12.3914 9.35055 10.9031C8.80053 10.2068 8.42073 9.62029 8.14785 9.04184C8.50386 8.71103 8.83965 8.3708 9.16149 8.0414L9.16248 8.04037C9.29103 7.90755 9.42416 7.7744 9.55937 7.63919C10.0728 7.1258 10.3696 6.50921 10.3696 5.86055C10.3696 5.21319 10.0782 4.59622 9.55895 4.08148C9.55876 4.08129 9.55857 4.08111 9.55839 4.08092L8.26264 2.78517C8.11599 2.63853 7.97736 2.49581 7.83319 2.3474L7.82194 2.33581C7.82191 2.33578 7.82188 2.33575 7.82185 2.33572C7.53518 2.04037 7.23136 1.73203 6.93027 1.45289C6.43445 0.968018 5.83616 0.7 5.19162 0.7C4.54959 0.7 3.94731 0.969449 3.43551 1.45733L3.43545 1.45726L3.43038 1.46234L1.80294 3.08977C1.16143 3.73129 0.795236 4.51539 0.719642 5.41777L0.719541 5.41904C0.6324 6.51518 0.836095 7.66531 1.34206 9.02797C2.11754 11.1327 3.28573 13.0809 5.0089 15.1513Z" fill="#DB1F51" stroke="#DB1F51" stroke-width="0.6"/>
</svg>
