<svg width="109" height="109" viewBox="0 0 109 109" fill="none" xmlns="http://www.w3.org/2000/svg">
<circle cx="54.5" cy="54.5" r="52.0885" stroke="#FFAEC3" stroke-width="4.82301"/>
<circle cx="54.258" cy="54.259" r="49.9181" fill="url(#paint0_radial_4948_2582)"/>
<path d="M27.4902 12.0576L41.9593 34.7258" stroke="white" stroke-width="0.482301"/>
<path d="M66.0762 73.792L80.5452 96.4601" stroke="white" stroke-width="0.482301"/>
<path d="M21.7793 52.12C21.0926 52.12 20.5026 51.97 20.0093 51.67C19.5159 51.3633 19.1359 50.94 18.8693 50.4C18.6026 49.8533 18.4693 49.2233 18.4693 48.51C18.4693 47.7967 18.6026 47.1667 18.8693 46.62C19.1359 46.0733 19.5159 45.6467 20.0093 45.34C20.5026 45.0333 21.0926 44.88 21.7793 44.88C22.6193 44.88 23.3059 45.09 23.8393 45.51C24.3726 45.93 24.7059 46.5233 24.8393 47.29H23.3793C23.2926 46.9167 23.1126 46.6267 22.8393 46.42C22.5659 46.2067 22.2093 46.1 21.7693 46.1C21.3693 46.1 21.0226 46.2 20.7293 46.4C20.4426 46.5933 20.2226 46.87 20.0693 47.23C19.9159 47.5833 19.8393 48.01 19.8393 48.51C19.8393 49.0033 19.9159 49.43 20.0693 49.79C20.2226 50.15 20.4426 50.4267 20.7293 50.62C21.0226 50.8133 21.3693 50.91 21.7693 50.91C22.2093 50.91 22.5626 50.8133 22.8293 50.62C23.1026 50.42 23.2859 50.1433 23.3793 49.79H24.8393C24.7059 50.5167 24.3726 51.0867 23.8393 51.5C23.3059 51.9133 22.6193 52.12 21.7793 52.12ZM27.6932 52.12C27.2866 52.12 26.9466 52.05 26.6732 51.91C26.4066 51.7633 26.2066 51.57 26.0732 51.33C25.9399 51.09 25.8732 50.8267 25.8732 50.54C25.8732 50.2267 25.9499 49.9533 26.1032 49.72C26.2632 49.48 26.4999 49.2933 26.8132 49.16C27.1332 49.02 27.5299 48.95 28.0032 48.95H29.2232C29.2232 48.6833 29.1966 48.4633 29.1432 48.29C29.0966 48.11 29.0032 47.9767 28.8632 47.89C28.7299 47.8033 28.5366 47.76 28.2832 47.76C28.0366 47.76 27.8332 47.8133 27.6732 47.92C27.5199 48.02 27.4232 48.17 27.3832 48.37H26.0632C26.1032 48.0233 26.2166 47.7233 26.4032 47.47C26.5966 47.2167 26.8532 47.02 27.1732 46.88C27.4999 46.7333 27.8699 46.66 28.2832 46.66C28.7699 46.66 29.1832 46.74 29.5232 46.9C29.8632 47.06 30.1232 47.29 30.3032 47.59C30.4832 47.89 30.5732 48.26 30.5732 48.7V52H29.4432L29.2932 51.22C29.2199 51.3533 29.1299 51.4767 29.0232 51.59C28.9232 51.6967 28.8066 51.79 28.6732 51.87C28.5399 51.95 28.3899 52.01 28.2232 52.05C28.0632 52.0967 27.8866 52.12 27.6932 52.12ZM28.0132 51.08C28.1732 51.08 28.3199 51.0467 28.4532 50.98C28.5866 50.9133 28.7032 50.8233 28.8032 50.71C28.9032 50.5967 28.9832 50.4633 29.0432 50.31C29.1099 50.1567 29.1532 49.99 29.1732 49.81V49.78H28.1532C27.9599 49.78 27.7999 49.8067 27.6732 49.86C27.5466 49.9133 27.4532 49.99 27.3932 50.09C27.3332 50.1833 27.3032 50.2933 27.3032 50.42C27.3032 50.56 27.3299 50.68 27.3832 50.78C27.4432 50.8733 27.5266 50.9467 27.6332 51C27.7466 51.0533 27.8732 51.08 28.0132 51.08ZM31.9507 54.2V46.78H33.1507L33.2907 47.48C33.3974 47.3267 33.5241 47.19 33.6707 47.07C33.8174 46.9433 33.9907 46.8433 34.1907 46.77C34.3907 46.6967 34.6241 46.66 34.8907 46.66C35.3774 46.66 35.7974 46.78 36.1507 47.02C36.5041 47.26 36.7774 47.5867 36.9707 48C37.1707 48.4067 37.2707 48.8733 37.2707 49.4C37.2707 49.9267 37.1674 50.3967 36.9607 50.81C36.7541 51.2167 36.4741 51.5367 36.1207 51.77C35.7674 52.0033 35.3707 52.12 34.9307 52.12C34.5441 52.12 34.2141 52.0533 33.9407 51.92C33.6741 51.78 33.4607 51.59 33.3007 51.35V54.2H31.9507ZM34.5807 50.94C34.8341 50.94 35.0574 50.88 35.2507 50.76C35.4441 50.6333 35.5974 50.4533 35.7107 50.22C35.8307 49.9867 35.8907 49.7133 35.8907 49.4C35.8907 49.08 35.8307 48.8033 35.7107 48.57C35.5974 48.3367 35.4441 48.1567 35.2507 48.03C35.0574 47.9033 34.8341 47.84 34.5807 47.84C34.3207 47.84 34.0907 47.9033 33.8907 48.03C33.6907 48.1567 33.5341 48.3367 33.4207 48.57C33.3141 48.8033 33.2607 49.0767 33.2607 49.39C33.2607 49.71 33.3141 49.9867 33.4207 50.22C33.5341 50.4467 33.6907 50.6233 33.8907 50.75C34.0907 50.8767 34.3207 50.94 34.5807 50.94ZM40.6086 52C40.2553 52 39.9453 51.9467 39.6786 51.84C39.4186 51.7267 39.2153 51.5433 39.0686 51.29C38.922 51.03 38.8486 50.6767 38.8486 50.23V47.91H37.9486V46.78H38.8486L38.9986 45.33H40.1986V46.78H41.5486V47.91H40.1986V50.25C40.1986 50.4767 40.2486 50.6333 40.3486 50.72C40.4486 50.8067 40.6186 50.85 40.8586 50.85H41.5686V52H40.6086ZM42.7911 52V46.78H44.1411V52H42.7911ZM43.4711 46.15C43.2311 46.15 43.0311 46.08 42.8711 45.94C42.7177 45.7933 42.6411 45.61 42.6411 45.39C42.6411 45.17 42.7177 44.99 42.8711 44.85C43.0311 44.7033 43.2311 44.63 43.4711 44.63C43.7177 44.63 43.9177 44.7033 44.0711 44.85C44.2311 44.99 44.3111 45.17 44.3111 45.39C44.3111 45.61 44.2311 45.7933 44.0711 45.94C43.9177 46.08 43.7177 46.15 43.4711 46.15ZM46.9543 52L45.0443 46.78H46.4643L47.7743 50.73L49.0943 46.78H50.5043L48.5943 52H46.9543ZM53.5102 52.12C53.0102 52.12 52.5669 52.01 52.1802 51.79C51.8002 51.5633 51.5035 51.2467 51.2902 50.84C51.0769 50.4333 50.9702 49.9667 50.9702 49.44C50.9702 48.9 51.0735 48.42 51.2802 48C51.4935 47.58 51.7902 47.2533 52.1702 47.02C52.5569 46.78 53.0069 46.66 53.5202 46.66C54.0335 46.66 54.4735 46.7733 54.8402 47C55.2069 47.2267 55.4869 47.5367 55.6802 47.93C55.8802 48.3167 55.9802 48.7567 55.9802 49.25C55.9802 49.3167 55.9802 49.39 55.9802 49.47C55.9802 49.55 55.9735 49.6333 55.9602 49.72H51.9302V48.9H54.6302C54.6169 48.54 54.5069 48.26 54.3002 48.06C54.0935 47.86 53.8335 47.76 53.5202 47.76C53.2935 47.76 53.0869 47.8167 52.9002 47.93C52.7135 48.0433 52.5669 48.2133 52.4602 48.44C52.3535 48.66 52.3002 48.9433 52.3002 49.29V49.58C52.3002 49.8733 52.3469 50.1267 52.4402 50.34C52.5402 50.5533 52.6802 50.72 52.8602 50.84C53.0402 50.96 53.2535 51.02 53.5002 51.02C53.7669 51.02 53.9735 50.9733 54.1202 50.88C54.2669 50.7867 54.3835 50.66 54.4702 50.5H55.8402C55.7469 50.8 55.5902 51.0733 55.3702 51.32C55.1569 51.5667 54.8935 51.7633 54.5802 51.91C54.2669 52.05 53.9102 52.12 53.5102 52.12ZM62.6386 52.12C61.952 52.12 61.362 51.97 60.8686 51.67C60.3753 51.3633 59.9953 50.94 59.7286 50.4C59.462 49.8533 59.3286 49.2233 59.3286 48.51C59.3286 47.7967 59.462 47.1667 59.7286 46.62C59.9953 46.0733 60.3753 45.6467 60.8686 45.34C61.362 45.0333 61.952 44.88 62.6386 44.88C63.4786 44.88 64.1653 45.09 64.6986 45.51C65.232 45.93 65.5653 46.5233 65.6986 47.29H64.2386C64.152 46.9167 63.972 46.6267 63.6986 46.42C63.4253 46.2067 63.0686 46.1 62.6286 46.1C62.2286 46.1 61.882 46.2 61.5886 46.4C61.302 46.5933 61.082 46.87 60.9286 47.23C60.7753 47.5833 60.6986 48.01 60.6986 48.51C60.6986 49.0033 60.7753 49.43 60.9286 49.79C61.082 50.15 61.302 50.4267 61.5886 50.62C61.882 50.8133 62.2286 50.91 62.6286 50.91C63.0686 50.91 63.422 50.8133 63.6886 50.62C63.962 50.42 64.1453 50.1433 64.2386 49.79H65.6986C65.5653 50.5167 65.232 51.0867 64.6986 51.5C64.1653 51.9133 63.4786 52.12 62.6386 52.12ZM69.2426 52.12C68.7493 52.12 68.3093 52.0067 67.9226 51.78C67.5426 51.5467 67.2426 51.2233 67.0226 50.81C66.8093 50.3967 66.7026 49.9233 66.7026 49.39C66.7026 48.85 66.8093 48.3767 67.0226 47.97C67.2426 47.5633 67.546 47.2433 67.9326 47.01C68.3193 46.7767 68.7593 46.66 69.2526 46.66C69.7526 46.66 70.1926 46.7767 70.5726 47.01C70.9593 47.2433 71.2593 47.5633 71.4726 47.97C71.6926 48.3767 71.8026 48.85 71.8026 49.39C71.8026 49.9233 71.6926 50.3967 71.4726 50.81C71.2593 51.2233 70.9593 51.5467 70.5726 51.78C70.1926 52.0067 69.7493 52.12 69.2426 52.12ZM69.2426 50.95C69.476 50.95 69.6793 50.8933 69.8526 50.78C70.0326 50.66 70.1726 50.4867 70.2726 50.26C70.3726 50.0267 70.4226 49.7367 70.4226 49.39C70.4226 49.0433 70.3726 48.7567 70.2726 48.53C70.1793 48.2967 70.046 48.1233 69.8726 48.01C69.6993 47.89 69.4926 47.83 69.2526 47.83C69.026 47.83 68.8226 47.89 68.6426 48.01C68.4693 48.1233 68.3293 48.2967 68.2226 48.53C68.1226 48.7567 68.0726 49.0433 68.0726 49.39C68.0726 49.7367 68.1226 50.0267 68.2226 50.26C68.3226 50.4867 68.4593 50.66 68.6326 50.78C68.8126 50.8933 69.016 50.95 69.2426 50.95ZM74.8629 54.32C74.3696 54.32 73.9396 54.26 73.5729 54.14C73.2063 54.0267 72.9229 53.85 72.7229 53.61C72.5296 53.3767 72.4329 53.0867 72.4329 52.74C72.4329 52.4933 72.4929 52.2633 72.6129 52.05C72.7329 51.8367 72.9063 51.6467 73.1329 51.48C73.3663 51.3067 73.6529 51.16 73.9929 51.04L74.5629 51.71C74.2296 51.81 73.9929 51.9333 73.8529 52.08C73.7129 52.2333 73.6429 52.4033 73.6429 52.59C73.6429 52.75 73.6929 52.8833 73.7929 52.99C73.8996 53.0967 74.0429 53.1733 74.2229 53.22C74.4029 53.2733 74.6096 53.3 74.8429 53.3C75.0696 53.3 75.2663 53.2733 75.4329 53.22C75.6063 53.1667 75.7363 53.0867 75.8229 52.98C75.9163 52.88 75.9629 52.7567 75.9629 52.61C75.9629 52.41 75.8963 52.2533 75.7629 52.14C75.6363 52.0267 75.3696 51.9567 74.9629 51.93C74.6096 51.9033 74.2963 51.8667 74.0229 51.82C73.7563 51.7667 73.5229 51.7067 73.3229 51.64C73.1229 51.5733 72.9529 51.4967 72.8129 51.41C72.6796 51.3233 72.5696 51.2367 72.4829 51.15V50.92L73.5529 49.78L74.5729 50.08L73.2529 51.32L73.6429 50.63C73.7163 50.67 73.7863 50.71 73.8529 50.75C73.9263 50.79 74.0196 50.8267 74.1329 50.86C74.2463 50.8933 74.3929 50.9233 74.5729 50.95C74.7596 50.9767 74.9963 51.0033 75.2829 51.03C75.7296 51.07 76.0929 51.15 76.3729 51.27C76.6596 51.39 76.8696 51.56 77.0029 51.78C77.1363 51.9933 77.2029 52.26 77.2029 52.58C77.2029 52.88 77.1196 53.16 76.9529 53.42C76.7929 53.6867 76.5396 53.9033 76.1929 54.07C75.8463 54.2367 75.4029 54.32 74.8629 54.32ZM74.8729 50.47C74.4463 50.47 74.0796 50.3867 73.7729 50.22C73.4663 50.0467 73.2296 49.8167 73.0629 49.53C72.9029 49.2433 72.8229 48.9233 72.8229 48.57C72.8229 48.21 72.9063 47.8867 73.0729 47.6C73.2396 47.3133 73.4729 47.0867 73.7729 46.92C74.0796 46.7467 74.4463 46.66 74.8729 46.66C75.3063 46.66 75.6729 46.7467 75.9729 46.92C76.2796 47.0867 76.5129 47.3133 76.6729 47.6C76.8329 47.8867 76.9129 48.21 76.9129 48.57C76.9129 48.9233 76.8329 49.2433 76.6729 49.53C76.5129 49.8167 76.2796 50.0467 75.9729 50.22C75.6729 50.3867 75.3063 50.47 74.8729 50.47ZM74.8729 49.44C75.1463 49.44 75.3596 49.3667 75.5129 49.22C75.6729 49.0733 75.7529 48.8567 75.7529 48.57C75.7529 48.2767 75.6729 48.06 75.5129 47.92C75.3596 47.78 75.1463 47.71 74.8729 47.71C74.6129 47.71 74.3996 47.78 74.2329 47.92C74.0663 48.06 73.9829 48.2767 73.9829 48.57C73.9829 48.8567 74.0629 49.0733 74.2229 49.22C74.3896 49.3667 74.6063 49.44 74.8729 49.44ZM75.7529 47.74L75.5329 46.78H77.6129V47.58L75.7529 47.74ZM80.8246 52.12C80.3246 52.12 79.8813 52.01 79.4946 51.79C79.1146 51.5633 78.818 51.2467 78.6046 50.84C78.3913 50.4333 78.2846 49.9667 78.2846 49.44C78.2846 48.9 78.388 48.42 78.5946 48C78.808 47.58 79.1046 47.2533 79.4846 47.02C79.8713 46.78 80.3213 46.66 80.8346 46.66C81.348 46.66 81.788 46.7733 82.1546 47C82.5213 47.2267 82.8013 47.5367 82.9946 47.93C83.1946 48.3167 83.2946 48.7567 83.2946 49.25C83.2946 49.3167 83.2946 49.39 83.2946 49.47C83.2946 49.55 83.288 49.6333 83.2746 49.72H79.2446V48.9H81.9446C81.9313 48.54 81.8213 48.26 81.6146 48.06C81.408 47.86 81.148 47.76 80.8346 47.76C80.608 47.76 80.4013 47.8167 80.2146 47.93C80.028 48.0433 79.8813 48.2133 79.7746 48.44C79.668 48.66 79.6146 48.9433 79.6146 49.29V49.58C79.6146 49.8733 79.6613 50.1267 79.7546 50.34C79.8546 50.5533 79.9946 50.72 80.1746 50.84C80.3546 50.96 80.568 51.02 80.8146 51.02C81.0813 51.02 81.288 50.9733 81.4346 50.88C81.5813 50.7867 81.698 50.66 81.7846 50.5H83.1546C83.0613 50.8 82.9046 51.0733 82.6846 51.32C82.4713 51.5667 82.208 51.7633 81.8946 51.91C81.5813 52.05 81.2246 52.12 80.8246 52.12ZM84.4605 52V46.78H85.6405L85.7405 47.57C85.8872 47.29 86.1005 47.07 86.3805 46.91C86.6605 46.7433 86.9972 46.66 87.3905 46.66C87.7972 46.66 88.1438 46.7433 88.4305 46.91C88.7172 47.0767 88.9372 47.3167 89.0905 47.63C89.2438 47.9433 89.3205 48.3267 89.3205 48.78V52H87.9705V48.91C87.9705 48.5567 87.8805 48.2833 87.7005 48.09C87.5272 47.8967 87.2738 47.8 86.9405 47.8C86.7338 47.8 86.5438 47.8467 86.3705 47.94C86.1972 48.0333 86.0605 48.17 85.9605 48.35C85.8605 48.53 85.8105 48.7467 85.8105 49V52H84.4605ZM33.7974 63V56H35.1474V63H33.7974ZM36.5699 63V57.78H37.7499L37.8499 58.57C37.9965 58.29 38.2099 58.07 38.4899 57.91C38.7699 57.7433 39.1065 57.66 39.4999 57.66C39.9065 57.66 40.2532 57.7433 40.5399 57.91C40.8265 58.0767 41.0465 58.3167 41.1999 58.63C41.3532 58.9433 41.4299 59.3267 41.4299 59.78V63H40.0799V59.91C40.0799 59.5567 39.9899 59.2833 39.8099 59.09C39.6365 58.8967 39.3832 58.8 39.0499 58.8C38.8432 58.8 38.6532 58.8467 38.4799 58.94C38.3065 59.0333 38.1699 59.17 38.0699 59.35C37.9699 59.53 37.9199 59.7467 37.9199 60V63H36.5699ZM44.9501 63.12C44.4968 63.12 44.0935 63.0067 43.7401 62.78C43.3935 62.5467 43.1235 62.23 42.9301 61.83C42.7368 61.4233 42.6401 60.9567 42.6401 60.43C42.6401 59.89 42.7401 59.4133 42.9401 59C43.1401 58.58 43.4235 58.2533 43.7901 58.02C44.1568 57.78 44.5801 57.66 45.0601 57.66C45.4001 57.66 45.7001 57.7267 45.9601 57.86C46.2268 57.9867 46.4401 58.17 46.6001 58.41V55.8H47.9501V63H46.7501L46.6001 62.3C46.5001 62.4467 46.3768 62.5833 46.2301 62.71C46.0835 62.8367 45.9068 62.9367 45.7001 63.01C45.4935 63.0833 45.2435 63.12 44.9501 63.12ZM45.3301 61.94C45.5901 61.94 45.8168 61.8767 46.0101 61.75C46.2101 61.6233 46.3635 61.4433 46.4701 61.21C46.5835 60.9767 46.6401 60.7033 46.6401 60.39C46.6401 60.0767 46.5835 59.8033 46.4701 59.57C46.3635 59.3367 46.2101 59.1567 46.0101 59.03C45.8168 58.9033 45.5868 58.84 45.3201 58.84C45.0735 58.84 44.8501 58.9033 44.6501 59.03C44.4501 59.1567 44.2935 59.3367 44.1801 59.57C44.0668 59.7967 44.0101 60.0667 44.0101 60.38C44.0101 60.7 44.0668 60.9767 44.1801 61.21C44.2935 61.4433 44.4501 61.6233 44.6501 61.75C44.8501 61.8767 45.0768 61.94 45.3301 61.94ZM51.2638 63.12C50.8571 63.12 50.5071 63.0433 50.2138 62.89C49.9271 62.73 49.7071 62.4967 49.5538 62.19C49.4005 61.8833 49.3238 61.5 49.3238 61.04V57.78H50.6638V60.88C50.6638 61.2533 50.7538 61.53 50.9338 61.71C51.1138 61.89 51.3705 61.98 51.7038 61.98C51.9171 61.98 52.1071 61.9367 52.2738 61.85C52.4471 61.7633 52.5838 61.63 52.6838 61.45C52.7838 61.27 52.8338 61.05 52.8338 60.79V57.78H54.1838V63H52.9938L52.8938 62.21C52.7538 62.49 52.5438 62.7133 52.2638 62.88C51.9905 63.04 51.6571 63.12 51.2638 63.12ZM57.5943 63.12C57.0809 63.12 56.6576 63.0467 56.3243 62.9C55.9909 62.7467 55.7376 62.54 55.5643 62.28C55.3909 62.0133 55.2943 61.7167 55.2743 61.39H56.6143C56.6343 61.5167 56.6809 61.6333 56.7543 61.74C56.8276 61.8467 56.9309 61.9333 57.0643 62C57.2043 62.06 57.3743 62.09 57.5743 62.09C57.7476 62.09 57.8943 62.0667 58.0143 62.02C58.1409 61.9667 58.2343 61.8967 58.2943 61.81C58.3609 61.7167 58.3943 61.61 58.3943 61.49C58.3943 61.3367 58.3509 61.2167 58.2643 61.13C58.1843 61.0433 58.0676 60.9767 57.9143 60.93C57.7609 60.8767 57.5709 60.8333 57.3443 60.8C57.0509 60.7533 56.7809 60.6933 56.5343 60.62C56.2943 60.5467 56.0876 60.4533 55.9143 60.34C55.7476 60.22 55.6176 60.07 55.5243 59.89C55.4309 59.71 55.3843 59.4933 55.3843 59.24C55.3843 58.94 55.4676 58.67 55.6343 58.43C55.8009 58.19 56.0409 58.0033 56.3543 57.87C56.6676 57.73 57.0443 57.66 57.4843 57.66C58.1176 57.66 58.6076 57.7967 58.9543 58.07C59.3076 58.3433 59.5176 58.7167 59.5843 59.19H58.3143C58.2743 59.0367 58.1809 58.9167 58.0343 58.83C57.8943 58.7433 57.7043 58.7 57.4643 58.7C57.2176 58.7 57.0276 58.7467 56.8943 58.84C56.7609 58.9267 56.6943 59.0467 56.6943 59.2C56.6943 59.3 56.7243 59.3933 56.7843 59.48C56.8509 59.56 56.9576 59.63 57.1043 59.69C57.2576 59.7433 57.4643 59.7933 57.7243 59.84C58.1843 59.9067 58.5609 59.9933 58.8543 60.1C59.1543 60.2067 59.3776 60.3633 59.5243 60.57C59.6776 60.7767 59.7509 61.06 59.7443 61.42C59.7443 61.7733 59.6543 62.0767 59.4743 62.33C59.3009 62.5833 59.0509 62.78 58.7243 62.92C58.4043 63.0533 58.0276 63.12 57.5943 63.12ZM63.1086 63C62.7553 63 62.4453 62.9467 62.1786 62.84C61.9186 62.7267 61.7153 62.5433 61.5686 62.29C61.422 62.03 61.3486 61.6767 61.3486 61.23V58.91H60.4486V57.78H61.3486L61.4986 56.33H62.6986V57.78H64.0486V58.91H62.6986V61.25C62.6986 61.4767 62.7486 61.6333 62.8486 61.72C62.9486 61.8067 63.1186 61.85 63.3586 61.85H64.0686V63H63.1086ZM65.2711 63V57.78H66.4711L66.5911 58.7C66.7244 58.4733 66.8877 58.2833 67.0811 58.13C67.2744 57.9767 67.4977 57.86 67.7511 57.78C68.0111 57.7 68.2977 57.66 68.6111 57.66V59.09H67.9311C67.7511 59.09 67.5811 59.1133 67.4211 59.16C67.2611 59.2 67.1211 59.27 67.0011 59.37C66.8811 59.47 66.7877 59.6067 66.7211 59.78C66.6544 59.9467 66.6211 60.16 66.6211 60.42V63H65.2711ZM70.2184 65.2L71.3884 62.44H71.0884L69.0884 57.78H70.5584L71.9784 61.18L73.2584 57.78H74.6984L71.6384 65.2H70.2184Z" fill="white"/>
<defs>
<radialGradient id="paint0_radial_4948_2582" cx="0" cy="0" r="1" gradientUnits="userSpaceOnUse" gradientTransform="translate(54.258 54.259) rotate(90) scale(49.9181)">
<stop stop-color="#F24F7A"/>
<stop offset="1" stop-color="#DB1F51"/>
</radialGradient>
</defs>
</svg>
