<?xml version="1.0" encoding="UTF-8"?>
<svg xmlns="http://www.w3.org/2000/svg" viewBox="-2.25 -0.25 145 25">
	<g fill="#1D1D1B">
		<path d="M42.74,7.73h-5.01v2.82h3.74v1.69h-3.74v5.35h-1.95V6.04h6.96V7.73z"/>
		<path d="M54.59,17.59h-1.83v-5.35h-6.01v5.35h-1.82V6.04h1.82v4.51h6.01V6.04h1.83V17.59z"/>
		<path d="M73.58,17.59h-1.95v-7.08l-3.13,5.12h-1.4l-3.13-5.12v7.08h-1.94V6.04h1.34l4.43,7.29l4.43-7.29h1.34V17.59z"/>
		<path d="M86.37,12.76c0,1.69-0.48,2.94-1.47,3.82c-0.84,0.75-2.1,1.18-3.45,1.18c-1.35,0-2.6-0.43-3.45-1.18c-0.99-0.89-1.47-2.13-1.47-3.82V6.04h1.94v6.88c0,1.06,0.26,1.81,0.84,2.34c0.54,0.52,1.3,0.81,2.14,0.81c0.84,0,1.6-0.29,2.15-0.81c0.57-0.53,0.84-1.28,0.84-2.34V6.05h1.94V12.76z"/>
		<path d="M83.22,2.4c-0.61,0-1.09,0.47-1.09,1.06c0,0.59,0.47,1.06,1.09,1.06c0.61,0.01,1.09-0.46,1.09-1.06C84.31,2.87,83.83,2.4,83.22,2.4z"/>
		<path d="M79.69,2.4c-0.62,0-1.09,0.46-1.09,1.06c0,0.6,0.48,1.06,1.09,1.06c0.62,0.01,1.09-0.46,1.09-1.06C80.79,2.87,80.31,2.4,79.69,2.4z"/>
		<path d="M99.66,17.59h-1.36l-6.88-8.05v8.05h-1.94V6.05h1.36l6.89,8.05V6.05h1.94V17.59z"/>
		<path d="M106.68,10.78c-1.13-0.45-2.11-0.85-2.11-1.75c0-0.73,0.62-1.47,2-1.47c0.72,0,1.48,0.27,2.03,0.7l0.98-1.4c-0.96-0.67-1.98-0.99-3.21-0.99c-1.82,0-3.75,1.11-3.75,3.17c0,1.09,0.52,1.93,1.6,2.55c0.49,0.28,1.02,0.5,1.54,0.7c1.27,0.5,2.35,0.92,2.35,2.1c0,0.47-0.2,0.9-0.55,1.21c-0.35,0.3-0.83,0.46-1.36,0.46c-1,0-2.04-0.46-2.81-1.22l-1.24,1.29c1.21,1.06,2.61,1.62,4.05,1.62c1.02,0,1.98-0.34,2.71-0.95c0.74-0.63,1.15-1.5,1.15-2.44C110.06,12.12,108.18,11.37,106.68,10.78z"/>
		<polygon points="119.89,7.73 116.75,7.73 116.75,17.6 114.81,17.6 114.81,7.73 111.66,7.73 111.66,6.04 119.89,6.04"/>
		<path d="M128.76,7.74h-4.84v2.81h3.65v1.69h-3.65v3.66h5.01v1.69h-6.96V6.05h6.79V7.74z"/>
		<path d="M136.49,12.22l0.24-0.08c0.44-0.14,0.81-0.36,1.13-0.66c0.63-0.6,1-1.44,1-2.3c0-0.86-0.37-1.7-1-2.31c-0.62-0.57-1.41-0.83-2.48-0.83h-4.16v11.54h1.95v-5.27h1.09l4.23,5.27h2.38L136.49,12.22z M133.16,10.64v-2.9h2.08c0.78,0,1.07,0.21,1.28,0.43c0.24,0.26,0.39,0.65,0.39,1.03c0,0.38-0.15,0.77-0.39,1.02c-0.27,0.29-0.64,0.41-1.28,0.41H133.16z"/>
	</g>
	<g fill="#0014A0">
		<path d="M15.09,1.25c-1.61-1.6-4.18-1.67-5.87-0.21l8.72,8.72c0.81,0.81,2.09,0.81,2.93,0.07c0.01-0.01,1.4-1.4,1.4-1.4L15.09,1.25z"/>
		<path d="M2.11,15.93l6.9,6.92c1.61,1.59,4.18,1.65,5.86,0.2L6.43,14.6c-0.8-0.81-2.07-0.81-2.91-0.08L2.11,15.93z"/>
		<path d="M8.38,1.88L5.55,4.71l8.66,8.66c0.83,0.84,2.23,0.91,3.07,0.08l1.34-1.34L8.38,1.88z"/>
		<path d="M4.71,5.55L1.88,8.38l8.66,8.66c0.83,0.84,2.23,0.9,3.07,0.07l1.34-1.34L4.71,5.55z"/>
		<path d="M22.99,14.93c1.45-1.62,1.47-4.07,0.06-5.71L12.88,19.39l2.83,2.83C22.65,15.27,22.99,14.93,22.99,14.93z"/>
		<path d="M4.17,12.34L1.04,9.21c-1.46,1.69-1.42,4.16,0.28,5.94L4.17,12.34z"/>
	</g>
</svg>