<svg width="72" height="72" viewBox="0 0 72 72" fill="none" xmlns="http://www.w3.org/2000/svg">
<circle cx="36" cy="36" r="36" fill="#EEF2F7"/>
<circle cx="36" cy="36" r="35.5" stroke="black" stroke-opacity="0.15"/>
<path fill-rule="evenodd" clip-rule="evenodd" d="M22 24.6367C22 23.1828 23.1828 22 24.6367 22H35.3594V35.3594H22V24.6367ZM29.5586 29.5586H30.7305C31.2159 29.5586 31.6094 29.1651 31.6094 28.6797C31.6094 28.1943 31.2159 27.8008 30.7305 27.8008H29.5586V26.6289C29.5586 26.1435 29.1651 25.75 28.6797 25.75C28.1943 25.75 27.8008 26.1435 27.8008 26.6289V27.8008H26.6289C26.1435 27.8008 25.75 28.1943 25.75 28.6797C25.75 29.1651 26.1435 29.5586 26.6289 29.5586H27.8008V30.7305C27.8008 31.2159 28.1943 31.6094 28.6797 31.6094C29.1651 31.6094 29.5586 31.2159 29.5586 30.7305V29.5586ZM50.4766 35.3594H49.9981C48.1954 33.86 45.88 32.957 43.3574 32.957C41.018 32.957 38.8566 33.7337 37.1172 35.0424V22H47.8398C49.2937 22 50.4766 23.1828 50.4766 24.6367V35.3594ZM41.7461 27.8008C41.2607 27.8008 40.8672 28.1943 40.8672 28.6797C40.8672 29.1651 41.2607 29.5586 41.7461 29.5586H45.8477C46.333 29.5586 46.7266 29.1651 46.7266 28.6797C46.7266 28.1943 46.333 27.8008 45.8477 27.8008H41.7461ZM35.0424 37.1172H22V47.8398C22 49.2937 23.1828 50.4766 24.6367 50.4766H35.3594V49.9981C33.86 48.1954 32.957 45.8799 32.957 43.3574C32.957 41.018 33.7337 38.8566 35.0424 37.1172ZM30.766 44.6403C31.1092 44.9835 31.1092 45.54 30.766 45.8832C30.5944 46.0548 30.3695 46.1406 30.1445 46.1406C29.9196 46.1406 29.6946 46.0548 29.5231 45.8832L28.6797 45.0398L27.8363 45.8832C27.6647 46.0548 27.4398 46.1406 27.2148 46.1406C26.9899 46.1406 26.765 46.0548 26.5934 45.8832C26.2502 45.5399 26.2502 44.9835 26.5934 44.6402L27.4367 43.7969L26.5933 42.9535C26.2501 42.6102 26.2501 42.0538 26.5933 41.7105C26.9365 41.3673 27.493 41.3673 27.8363 41.7105L28.6797 42.5539L29.5231 41.7105C29.8663 41.3673 30.4228 41.3673 30.766 41.7105C31.1093 42.0538 31.1093 42.6102 30.766 42.9535L29.9226 43.7969L30.766 44.6403ZM34.7148 43.3574C34.7148 38.5919 38.5919 34.7148 43.3574 34.7148C48.123 34.7148 52 38.5919 52 43.3574C52 48.123 48.123 52 43.3574 52C38.5919 52 34.7148 48.123 34.7148 43.3574ZM40.4277 44.8223C40.4277 45.3077 40.8213 45.7012 41.3066 45.7012H45.4082C45.8936 45.7012 46.2871 45.3077 46.2871 44.8223C46.2871 44.3369 45.8936 43.9434 45.4082 43.9434H41.3066C40.8213 43.9434 40.4277 44.3369 40.4277 44.8223ZM41.3066 42.7715H45.4082C45.8936 42.7715 46.2871 42.378 46.2871 41.8926C46.2871 41.4072 45.8936 41.0137 45.4082 41.0137H41.3066C40.8213 41.0137 40.4277 41.4072 40.4277 41.8926C40.4277 42.378 40.8213 42.7715 41.3066 42.7715Z" fill="url(#paint0_linear_2209_11967)"/>
<defs>
<linearGradient id="paint0_linear_2209_11967" x1="34" y1="25.5" x2="43.3574" y2="52" gradientUnits="userSpaceOnUse">
<stop stop-color="#007DEB"/>
<stop offset="1" stop-color="#C73B72"/>
</linearGradient>
</defs>
</svg>
