<svg width="109" height="109" viewBox="0 0 109 109" fill="none" xmlns="http://www.w3.org/2000/svg">
<circle cx="54.5" cy="54.5" r="52.0885" stroke="#FFAEC3" stroke-width="4.82301"/>
<circle cx="54.258" cy="54.259" r="49.9181" fill="url(#paint0_radial_4948_2594)"/>
<path d="M27.4902 12.0576L41.9593 34.7258" stroke="white" stroke-width="0.482301"/>
<path d="M66.0762 73.792L80.5452 96.4601" stroke="white" stroke-width="0.482301"/>
<path d="M34.5234 52.12C33.8367 52.12 33.2467 51.97 32.7534 51.67C32.2601 51.3633 31.8801 50.94 31.6134 50.4C31.3467 49.8533 31.2134 49.2233 31.2134 48.51C31.2134 47.7967 31.3467 47.1667 31.6134 46.62C31.8801 46.0733 32.2601 45.6467 32.7534 45.34C33.2467 45.0333 33.8367 44.88 34.5234 44.88C35.3634 44.88 36.0501 45.09 36.5834 45.51C37.1167 45.93 37.4501 46.5233 37.5834 47.29H36.1234C36.0367 46.9167 35.8567 46.6267 35.5834 46.42C35.3101 46.2067 34.9534 46.1 34.5134 46.1C34.1134 46.1 33.7667 46.2 33.4734 46.4C33.1867 46.5933 32.9667 46.87 32.8134 47.23C32.6601 47.5833 32.5834 48.01 32.5834 48.51C32.5834 49.0033 32.6601 49.43 32.8134 49.79C32.9667 50.15 33.1867 50.4267 33.4734 50.62C33.7667 50.8133 34.1134 50.91 34.5134 50.91C34.9534 50.91 35.3067 50.8133 35.5734 50.62C35.8467 50.42 36.0301 50.1433 36.1234 49.79H37.5834C37.4501 50.5167 37.1167 51.0867 36.5834 51.5C36.0501 51.9133 35.3634 52.12 34.5234 52.12ZM38.7574 52V44.8H40.1074V47.53C40.274 47.27 40.494 47.06 40.7674 46.9C41.0474 46.74 41.364 46.66 41.7174 46.66C42.1507 46.66 42.5107 46.7467 42.7974 46.92C43.084 47.0867 43.2974 47.3333 43.4374 47.66C43.584 47.98 43.6574 48.3767 43.6574 48.85V52H42.3174V48.97C42.3174 48.5967 42.2274 48.31 42.0474 48.11C41.8674 47.9033 41.604 47.8 41.2574 47.8C41.044 47.8 40.8507 47.85 40.6774 47.95C40.504 48.05 40.364 48.1967 40.2574 48.39C40.1574 48.5767 40.1074 48.8033 40.1074 49.07V52H38.7574ZM47.4067 52.12C46.9067 52.12 46.4633 52.01 46.0767 51.79C45.6967 51.5633 45.4 51.2467 45.1867 50.84C44.9733 50.4333 44.8667 49.9667 44.8667 49.44C44.8667 48.9 44.97 48.42 45.1767 48C45.39 47.58 45.6867 47.2533 46.0667 47.02C46.4533 46.78 46.9033 46.66 47.4167 46.66C47.93 46.66 48.37 46.7733 48.7367 47C49.1033 47.2267 49.3833 47.5367 49.5767 47.93C49.7767 48.3167 49.8767 48.7567 49.8767 49.25C49.8767 49.3167 49.8767 49.39 49.8767 49.47C49.8767 49.55 49.87 49.6333 49.8567 49.72H45.8267V48.9H48.5267C48.5133 48.54 48.4033 48.26 48.1967 48.06C47.99 47.86 47.73 47.76 47.4167 47.76C47.19 47.76 46.9833 47.8167 46.7967 47.93C46.61 48.0433 46.4633 48.2133 46.3567 48.44C46.25 48.66 46.1967 48.9433 46.1967 49.29V49.58C46.1967 49.8733 46.2433 50.1267 46.3367 50.34C46.4367 50.5533 46.5767 50.72 46.7567 50.84C46.9367 50.96 47.15 51.02 47.3967 51.02C47.6633 51.02 47.87 50.9733 48.0167 50.88C48.1633 50.7867 48.28 50.66 48.3667 50.5H49.7367C49.6433 50.8 49.4867 51.0733 49.2667 51.32C49.0533 51.5667 48.79 51.7633 48.4767 51.91C48.1633 52.05 47.8067 52.12 47.4067 52.12ZM51.0425 52V46.78H52.2225L52.3225 47.45C52.4825 47.21 52.6959 47.02 52.9625 46.88C53.2292 46.7333 53.5292 46.66 53.8625 46.66C54.1092 46.66 54.3292 46.6933 54.5225 46.76C54.7225 46.8267 54.8959 46.9233 55.0425 47.05C55.1892 47.17 55.3092 47.3233 55.4025 47.51C55.5959 47.2433 55.8392 47.0367 56.1325 46.89C56.4259 46.7367 56.7425 46.66 57.0825 46.66C57.5225 46.66 57.8825 46.7467 58.1625 46.92C58.4492 47.0867 58.6625 47.33 58.8025 47.65C58.9425 47.9633 59.0125 48.3467 59.0125 48.8V52H57.6725V48.93C57.6725 48.5633 57.5925 48.2833 57.4325 48.09C57.2792 47.8967 57.0492 47.8 56.7425 47.8C56.5425 47.8 56.3625 47.85 56.2025 47.95C56.0492 48.0433 55.9259 48.1833 55.8325 48.37C55.7459 48.55 55.7025 48.77 55.7025 49.03V52H54.3525V48.93C54.3525 48.5633 54.2725 48.2833 54.1125 48.09C53.9592 47.8967 53.7259 47.8 53.4125 47.8C53.2192 47.8 53.0425 47.85 52.8825 47.95C52.7292 48.0433 52.6092 48.1833 52.5225 48.37C52.4359 48.55 52.3925 48.77 52.3925 49.03V52H51.0425ZM60.4082 52V46.78H61.7582V52H60.4082ZM61.0882 46.15C60.8482 46.15 60.6482 46.08 60.4882 45.94C60.3349 45.7933 60.2582 45.61 60.2582 45.39C60.2582 45.17 60.3349 44.99 60.4882 44.85C60.6482 44.7033 60.8482 44.63 61.0882 44.63C61.3349 44.63 61.5349 44.7033 61.6882 44.85C61.8482 44.99 61.9282 45.17 61.9282 45.39C61.9282 45.61 61.8482 45.7933 61.6882 45.94C61.5349 46.08 61.3349 46.15 61.0882 46.15ZM65.5914 52.12C65.0848 52.12 64.6348 52.0067 64.2414 51.78C63.8548 51.5467 63.5514 51.2267 63.3314 50.82C63.1114 50.4133 63.0014 49.9533 63.0014 49.44C63.0014 48.8933 63.1114 48.4133 63.3314 48C63.5514 47.58 63.8548 47.2533 64.2414 47.02C64.6348 46.78 65.0848 46.66 65.5914 46.66C66.2448 46.66 66.7914 46.8333 67.2314 47.18C67.6714 47.5267 67.9514 48.0067 68.0714 48.62H66.6414C66.5814 48.3667 66.4548 48.17 66.2614 48.03C66.0748 47.89 65.8481 47.82 65.5814 47.82C65.3281 47.82 65.1114 47.8833 64.9314 48.01C64.7514 48.1367 64.6114 48.3167 64.5114 48.55C64.4181 48.7833 64.3714 49.0633 64.3714 49.39C64.3714 49.6367 64.3981 49.86 64.4514 50.06C64.5114 50.2533 64.5914 50.4167 64.6914 50.55C64.7981 50.6833 64.9248 50.7867 65.0714 50.86C65.2248 50.9333 65.3948 50.97 65.5814 50.97C65.7614 50.97 65.9214 50.94 66.0614 50.88C66.2081 50.8133 66.3314 50.72 66.4314 50.6C66.5381 50.48 66.6081 50.3367 66.6414 50.17H68.0714C67.9514 50.7633 67.6681 51.2367 67.2214 51.59C66.7814 51.9433 66.2381 52.12 65.5914 52.12ZM70.9745 52.12C70.5678 52.12 70.2278 52.05 69.9545 51.91C69.6878 51.7633 69.4878 51.57 69.3545 51.33C69.2212 51.09 69.1545 50.8267 69.1545 50.54C69.1545 50.2267 69.2312 49.9533 69.3845 49.72C69.5445 49.48 69.7812 49.2933 70.0945 49.16C70.4145 49.02 70.8112 48.95 71.2845 48.95H72.5045C72.5045 48.6833 72.4778 48.4633 72.4245 48.29C72.3778 48.11 72.2845 47.9767 72.1445 47.89C72.0112 47.8033 71.8178 47.76 71.5645 47.76C71.3178 47.76 71.1145 47.8133 70.9545 47.92C70.8012 48.02 70.7045 48.17 70.6645 48.37H69.3445C69.3845 48.0233 69.4978 47.7233 69.6845 47.47C69.8778 47.2167 70.1345 47.02 70.4545 46.88C70.7812 46.7333 71.1512 46.66 71.5645 46.66C72.0512 46.66 72.4645 46.74 72.8045 46.9C73.1445 47.06 73.4045 47.29 73.5845 47.59C73.7645 47.89 73.8545 48.26 73.8545 48.7V52H72.7245L72.5745 51.22C72.5012 51.3533 72.4112 51.4767 72.3045 51.59C72.2045 51.6967 72.0878 51.79 71.9545 51.87C71.8212 51.95 71.6712 52.01 71.5045 52.05C71.3445 52.0967 71.1678 52.12 70.9745 52.12ZM71.2945 51.08C71.4545 51.08 71.6012 51.0467 71.7345 50.98C71.8678 50.9133 71.9845 50.8233 72.0845 50.71C72.1845 50.5967 72.2645 50.4633 72.3245 50.31C72.3912 50.1567 72.4345 49.99 72.4545 49.81V49.78H71.4345C71.2412 49.78 71.0812 49.8067 70.9545 49.86C70.8278 49.9133 70.7345 49.99 70.6745 50.09C70.6145 50.1833 70.5845 50.2933 70.5845 50.42C70.5845 50.56 70.6112 50.68 70.6645 50.78C70.7245 50.8733 70.8078 50.9467 70.9145 51C71.0278 51.0533 71.1545 51.08 71.2945 51.08ZM75.232 52V44.8H76.582V52H75.232ZM33.7974 63V56H35.1474V63H33.7974ZM36.5699 63V57.78H37.7499L37.8499 58.57C37.9965 58.29 38.2099 58.07 38.4899 57.91C38.7699 57.7433 39.1065 57.66 39.4999 57.66C39.9065 57.66 40.2532 57.7433 40.5399 57.91C40.8265 58.0767 41.0465 58.3167 41.1999 58.63C41.3532 58.9433 41.4299 59.3267 41.4299 59.78V63H40.0799V59.91C40.0799 59.5567 39.9899 59.2833 39.8099 59.09C39.6365 58.8967 39.3832 58.8 39.0499 58.8C38.8432 58.8 38.6532 58.8467 38.4799 58.94C38.3065 59.0333 38.1699 59.17 38.0699 59.35C37.9699 59.53 37.9199 59.7467 37.9199 60V63H36.5699ZM44.9501 63.12C44.4968 63.12 44.0935 63.0067 43.7401 62.78C43.3935 62.5467 43.1235 62.23 42.9301 61.83C42.7368 61.4233 42.6401 60.9567 42.6401 60.43C42.6401 59.89 42.7401 59.4133 42.9401 59C43.1401 58.58 43.4235 58.2533 43.7901 58.02C44.1568 57.78 44.5801 57.66 45.0601 57.66C45.4001 57.66 45.7001 57.7267 45.9601 57.86C46.2268 57.9867 46.4401 58.17 46.6001 58.41V55.8H47.9501V63H46.7501L46.6001 62.3C46.5001 62.4467 46.3768 62.5833 46.2301 62.71C46.0835 62.8367 45.9068 62.9367 45.7001 63.01C45.4935 63.0833 45.2435 63.12 44.9501 63.12ZM45.3301 61.94C45.5901 61.94 45.8168 61.8767 46.0101 61.75C46.2101 61.6233 46.3635 61.4433 46.4701 61.21C46.5835 60.9767 46.6401 60.7033 46.6401 60.39C46.6401 60.0767 46.5835 59.8033 46.4701 59.57C46.3635 59.3367 46.2101 59.1567 46.0101 59.03C45.8168 58.9033 45.5868 58.84 45.3201 58.84C45.0735 58.84 44.8501 58.9033 44.6501 59.03C44.4501 59.1567 44.2935 59.3367 44.1801 59.57C44.0668 59.7967 44.0101 60.0667 44.0101 60.38C44.0101 60.7 44.0668 60.9767 44.1801 61.21C44.2935 61.4433 44.4501 61.6233 44.6501 61.75C44.8501 61.8767 45.0768 61.94 45.3301 61.94ZM51.2638 63.12C50.8571 63.12 50.5071 63.0433 50.2138 62.89C49.9271 62.73 49.7071 62.4967 49.5538 62.19C49.4005 61.8833 49.3238 61.5 49.3238 61.04V57.78H50.6638V60.88C50.6638 61.2533 50.7538 61.53 50.9338 61.71C51.1138 61.89 51.3705 61.98 51.7038 61.98C51.9171 61.98 52.1071 61.9367 52.2738 61.85C52.4471 61.7633 52.5838 61.63 52.6838 61.45C52.7838 61.27 52.8338 61.05 52.8338 60.79V57.78H54.1838V63H52.9938L52.8938 62.21C52.7538 62.49 52.5438 62.7133 52.2638 62.88C51.9905 63.04 51.6571 63.12 51.2638 63.12ZM57.5943 63.12C57.0809 63.12 56.6576 63.0467 56.3243 62.9C55.9909 62.7467 55.7376 62.54 55.5643 62.28C55.3909 62.0133 55.2943 61.7167 55.2743 61.39H56.6143C56.6343 61.5167 56.6809 61.6333 56.7543 61.74C56.8276 61.8467 56.9309 61.9333 57.0643 62C57.2043 62.06 57.3743 62.09 57.5743 62.09C57.7476 62.09 57.8943 62.0667 58.0143 62.02C58.1409 61.9667 58.2343 61.8967 58.2943 61.81C58.3609 61.7167 58.3943 61.61 58.3943 61.49C58.3943 61.3367 58.3509 61.2167 58.2643 61.13C58.1843 61.0433 58.0676 60.9767 57.9143 60.93C57.7609 60.8767 57.5709 60.8333 57.3443 60.8C57.0509 60.7533 56.7809 60.6933 56.5343 60.62C56.2943 60.5467 56.0876 60.4533 55.9143 60.34C55.7476 60.22 55.6176 60.07 55.5243 59.89C55.4309 59.71 55.3843 59.4933 55.3843 59.24C55.3843 58.94 55.4676 58.67 55.6343 58.43C55.8009 58.19 56.0409 58.0033 56.3543 57.87C56.6676 57.73 57.0443 57.66 57.4843 57.66C58.1176 57.66 58.6076 57.7967 58.9543 58.07C59.3076 58.3433 59.5176 58.7167 59.5843 59.19H58.3143C58.2743 59.0367 58.1809 58.9167 58.0343 58.83C57.8943 58.7433 57.7043 58.7 57.4643 58.7C57.2176 58.7 57.0276 58.7467 56.8943 58.84C56.7609 58.9267 56.6943 59.0467 56.6943 59.2C56.6943 59.3 56.7243 59.3933 56.7843 59.48C56.8509 59.56 56.9576 59.63 57.1043 59.69C57.2576 59.7433 57.4643 59.7933 57.7243 59.84C58.1843 59.9067 58.5609 59.9933 58.8543 60.1C59.1543 60.2067 59.3776 60.3633 59.5243 60.57C59.6776 60.7767 59.7509 61.06 59.7443 61.42C59.7443 61.7733 59.6543 62.0767 59.4743 62.33C59.3009 62.5833 59.0509 62.78 58.7243 62.92C58.4043 63.0533 58.0276 63.12 57.5943 63.12ZM63.1086 63C62.7553 63 62.4453 62.9467 62.1786 62.84C61.9186 62.7267 61.7153 62.5433 61.5686 62.29C61.422 62.03 61.3486 61.6767 61.3486 61.23V58.91H60.4486V57.78H61.3486L61.4986 56.33H62.6986V57.78H64.0486V58.91H62.6986V61.25C62.6986 61.4767 62.7486 61.6333 62.8486 61.72C62.9486 61.8067 63.1186 61.85 63.3586 61.85H64.0686V63H63.1086ZM65.2711 63V57.78H66.4711L66.5911 58.7C66.7244 58.4733 66.8877 58.2833 67.0811 58.13C67.2744 57.9767 67.4977 57.86 67.7511 57.78C68.0111 57.7 68.2977 57.66 68.6111 57.66V59.09H67.9311C67.7511 59.09 67.5811 59.1133 67.4211 59.16C67.2611 59.2 67.1211 59.27 67.0011 59.37C66.8811 59.47 66.7877 59.6067 66.7211 59.78C66.6544 59.9467 66.6211 60.16 66.6211 60.42V63H65.2711ZM70.2184 65.2L71.3884 62.44H71.0884L69.0884 57.78H70.5584L71.9784 61.18L73.2584 57.78H74.6984L71.6384 65.2H70.2184Z" fill="white"/>
<defs>
<radialGradient id="paint0_radial_4948_2594" cx="0" cy="0" r="1" gradientUnits="userSpaceOnUse" gradientTransform="translate(54.258 54.259) rotate(90) scale(49.9181)">
<stop stop-color="#F24F7A"/>
<stop offset="1" stop-color="#DB1F51"/>
</radialGradient>
</defs>
</svg>
