<svg width="226" height="226" viewBox="0 0 226 226" fill="none" xmlns="http://www.w3.org/2000/svg">
<circle cx="113" cy="113" r="108" stroke="#FFAEC3" stroke-width="10"/>
<circle cx="112.5" cy="112.5" r="103.5" fill="url(#paint0_radial_2209_11853)"/>
<path d="M57 25L87 72" stroke="white"/>
<path d="M137 153L167 200" stroke="white"/>
<path d="M65.0702 97.24C63.6835 97.24 62.4835 96.94 61.4702 96.34C60.4702 95.7267 59.6968 94.88 59.1502 93.8C58.6035 92.7067 58.3302 91.4467 58.3302 90.02C58.3302 88.58 58.6035 87.32 59.1502 86.24C59.6968 85.1467 60.4702 84.2933 61.4702 83.68C62.4835 83.0667 63.6835 82.76 65.0702 82.76C66.7102 82.76 68.0502 83.16 69.0902 83.96C70.1302 84.76 70.7902 85.88 71.0702 87.32H68.7102C68.5235 86.5067 68.1235 85.86 67.5102 85.38C66.8968 84.9 66.0768 84.66 65.0502 84.66C63.6502 84.66 62.5435 85.14 61.7302 86.1C60.9168 87.0467 60.5102 88.3533 60.5102 90.02C60.5102 91.6733 60.9168 92.9733 61.7302 93.92C62.5435 94.8667 63.6502 95.34 65.0502 95.34C66.0768 95.34 66.8968 95.1133 67.5102 94.66C68.1235 94.2067 68.5235 93.5867 68.7102 92.8H71.0702C70.7902 94.1867 70.1302 95.2733 69.0902 96.06C68.0502 96.8467 66.7102 97.24 65.0702 97.24ZM73.3205 97V82.6H75.4405V88.68C75.7738 88.1067 76.2338 87.66 76.8205 87.34C77.4205 87.0067 78.0805 86.84 78.8005 86.84C79.9871 86.84 80.9205 87.2133 81.6005 87.96C82.2805 88.7067 82.6205 89.82 82.6205 91.3V97H80.5205V91.52C80.5205 89.6 79.7538 88.64 78.2205 88.64C77.4205 88.64 76.7538 88.92 76.2205 89.48C75.7005 90.04 75.4405 90.84 75.4405 91.88V97H73.3205ZM89.7573 97.24C88.784 97.24 87.9173 97.0267 87.1573 96.6C86.4107 96.16 85.824 95.5533 85.3973 94.78C84.9707 94.0067 84.7573 93.1067 84.7573 92.08C84.7573 91.04 84.964 90.1267 85.3773 89.34C85.804 88.5533 86.3907 87.94 87.1373 87.5C87.8973 87.06 88.7773 86.84 89.7773 86.84C90.7507 86.84 91.5973 87.06 92.3173 87.5C93.0373 87.9267 93.5973 88.5 93.9973 89.22C94.3973 89.94 94.5973 90.7333 94.5973 91.6C94.5973 91.7333 94.5907 91.88 94.5773 92.04C94.5773 92.1867 94.5707 92.3533 94.5573 92.54H86.8373C86.904 93.5 87.2173 94.2333 87.7773 94.74C88.3507 95.2333 89.0107 95.48 89.7573 95.48C90.3573 95.48 90.8573 95.3467 91.2573 95.08C91.6707 94.8 91.9773 94.4267 92.1773 93.96H94.2973C94.0307 94.8933 93.4973 95.6733 92.6973 96.3C91.9107 96.9267 90.9307 97.24 89.7573 97.24ZM89.7573 88.58C89.0507 88.58 88.424 88.7933 87.8773 89.22C87.3307 89.6333 86.9973 90.26 86.8773 91.1H92.4773C92.4373 90.3267 92.164 89.7133 91.6573 89.26C91.1507 88.8067 90.5173 88.58 89.7573 88.58ZM96.797 97V87.08H98.677L98.857 88.48C99.177 87.9733 99.597 87.5733 100.117 87.28C100.65 86.9867 101.264 86.84 101.957 86.84C103.53 86.84 104.624 87.46 105.237 88.7C105.597 88.1267 106.077 87.6733 106.677 87.34C107.29 87.0067 107.95 86.84 108.657 86.84C109.897 86.84 110.87 87.2133 111.577 87.96C112.284 88.7067 112.637 89.82 112.637 91.3V97H110.517V91.52C110.517 89.6 109.784 88.64 108.317 88.64C107.57 88.64 106.957 88.92 106.477 89.48C106.01 90.04 105.777 90.84 105.777 91.88V97H103.657V91.52C103.657 89.6 102.917 88.64 101.437 88.64C100.704 88.64 100.097 88.92 99.617 89.48C99.1504 90.04 98.917 90.84 98.917 91.88V97H96.797ZM116.317 85.2C115.917 85.2 115.584 85.08 115.317 84.84C115.064 84.5867 114.937 84.2733 114.937 83.9C114.937 83.5267 115.064 83.22 115.317 82.98C115.584 82.7267 115.917 82.6 116.317 82.6C116.717 82.6 117.044 82.7267 117.297 82.98C117.564 83.22 117.697 83.5267 117.697 83.9C117.697 84.2733 117.564 84.5867 117.297 84.84C117.044 85.08 116.717 85.2 116.317 85.2ZM115.257 97V87.08H117.377V97H115.257ZM124.876 97.24C123.903 97.24 123.029 97.02 122.256 96.58C121.496 96.14 120.896 95.5333 120.456 94.76C120.029 93.9733 119.816 93.0667 119.816 92.04C119.816 91.0133 120.029 90.1133 120.456 89.34C120.896 88.5533 121.496 87.94 122.256 87.5C123.029 87.06 123.903 86.84 124.876 86.84C126.103 86.84 127.129 87.16 127.956 87.8C128.796 88.44 129.336 89.3067 129.576 90.4H127.356C127.223 89.8533 126.929 89.4267 126.476 89.12C126.023 88.8133 125.489 88.66 124.876 88.66C124.356 88.66 123.876 88.7933 123.436 89.06C122.996 89.3133 122.643 89.6933 122.376 90.2C122.109 90.6933 121.976 91.3067 121.976 92.04C121.976 92.7733 122.109 93.3933 122.376 93.9C122.643 94.3933 122.996 94.7733 123.436 95.04C123.876 95.3067 124.356 95.44 124.876 95.44C125.489 95.44 126.023 95.2867 126.476 94.98C126.929 94.6733 127.223 94.24 127.356 93.68H129.576C129.349 94.7467 128.816 95.6067 127.976 96.26C127.136 96.9133 126.103 97.24 124.876 97.24ZM135.235 97.24C134.395 97.24 133.702 97.1 133.155 96.82C132.608 96.54 132.202 96.1733 131.935 95.72C131.668 95.2533 131.535 94.7467 131.535 94.2C131.535 93.24 131.908 92.48 132.655 91.92C133.402 91.36 134.468 91.08 135.855 91.08H138.455V90.9C138.455 90.1267 138.242 89.5467 137.815 89.16C137.402 88.7733 136.862 88.58 136.195 88.58C135.608 88.58 135.095 88.7267 134.655 89.02C134.228 89.3 133.968 89.72 133.875 90.28H131.755C131.822 89.56 132.062 88.9467 132.475 88.44C132.902 87.92 133.435 87.5267 134.075 87.26C134.728 86.98 135.442 86.84 136.215 86.84C137.602 86.84 138.675 87.2067 139.435 87.94C140.195 88.66 140.575 89.6467 140.575 90.9V97H138.735L138.555 95.3C138.275 95.8467 137.868 96.3067 137.335 96.68C136.802 97.0533 136.102 97.24 135.235 97.24ZM135.655 95.52C136.228 95.52 136.708 95.3867 137.095 95.12C137.495 94.84 137.802 94.4733 138.015 94.02C138.242 93.5667 138.382 93.0667 138.435 92.52H136.075C135.235 92.52 134.635 92.6667 134.275 92.96C133.928 93.2533 133.755 93.62 133.755 94.06C133.755 94.5133 133.922 94.8733 134.255 95.14C134.602 95.3933 135.068 95.52 135.655 95.52ZM143.047 97V82.6H145.167V97H143.047ZM157.291 97.24C156.291 97.24 155.417 97.0667 154.671 96.72C153.937 96.36 153.364 95.86 152.951 95.22C152.537 94.58 152.331 93.8333 152.331 92.98C152.331 92.0467 152.591 91.2133 153.111 90.48C153.644 89.7467 154.424 89.16 155.451 88.72C155.024 88.24 154.717 87.7867 154.531 87.36C154.344 86.9333 154.251 86.4667 154.251 85.96C154.251 85.04 154.584 84.28 155.251 83.68C155.917 83.0667 156.844 82.76 158.031 82.76C158.804 82.76 159.471 82.9067 160.031 83.2C160.591 83.4933 161.017 83.8867 161.311 84.38C161.604 84.8733 161.744 85.4333 161.731 86.06H159.671C159.684 85.5267 159.517 85.12 159.171 84.84C158.837 84.56 158.451 84.42 158.011 84.42C157.491 84.42 157.077 84.5667 156.771 84.86C156.464 85.14 156.311 85.5 156.311 85.94C156.311 86.3267 156.417 86.7067 156.631 87.08C156.857 87.4533 157.197 87.8733 157.651 88.34L161.811 92.52C162.144 92.0133 162.504 91.4133 162.891 90.72L163.411 89.74H165.611L164.811 91.2C164.264 92.2667 163.724 93.16 163.191 93.88L166.311 97H163.711L162.011 95.3C161.317 95.98 160.591 96.4733 159.831 96.78C159.071 97.0867 158.224 97.24 157.291 97.24ZM154.391 92.86C154.391 93.6067 154.657 94.2267 155.191 94.72C155.737 95.2133 156.451 95.46 157.331 95.46C157.984 95.46 158.577 95.3467 159.111 95.12C159.644 94.88 160.164 94.4933 160.671 93.96L156.691 89.98C155.917 90.3 155.337 90.7067 154.951 91.2C154.577 91.68 154.391 92.2333 154.391 92.86ZM47.7657 120V106H52.6657C53.759 106 54.6657 106.187 55.3857 106.56C56.1057 106.92 56.639 107.42 56.9857 108.06C57.3457 108.687 57.5257 109.4 57.5257 110.2C57.5257 110.96 57.3524 111.66 57.0057 112.3C56.6724 112.927 56.1457 113.427 55.4257 113.8C54.7057 114.173 53.7857 114.36 52.6657 114.36H49.8857V120H47.7657ZM49.8857 112.62H52.5657C53.5657 112.62 54.279 112.407 54.7057 111.98C55.1457 111.54 55.3657 110.947 55.3657 110.2C55.3657 109.427 55.1457 108.827 54.7057 108.4C54.279 107.96 53.5657 107.74 52.5657 107.74H49.8857V112.62ZM63.6343 120.24C62.661 120.24 61.7943 120.027 61.0343 119.6C60.2876 119.16 59.701 118.553 59.2743 117.78C58.8476 117.007 58.6343 116.107 58.6343 115.08C58.6343 114.04 58.841 113.127 59.2543 112.34C59.681 111.553 60.2676 110.94 61.0143 110.5C61.7743 110.06 62.6543 109.84 63.6543 109.84C64.6276 109.84 65.4743 110.06 66.1943 110.5C66.9143 110.927 67.4743 111.5 67.8743 112.22C68.2743 112.94 68.4743 113.733 68.4743 114.6C68.4743 114.733 68.4676 114.88 68.4543 115.04C68.4543 115.187 68.4476 115.353 68.4343 115.54H60.7143C60.781 116.5 61.0943 117.233 61.6543 117.74C62.2276 118.233 62.8876 118.48 63.6343 118.48C64.2343 118.48 64.7343 118.347 65.1343 118.08C65.5476 117.8 65.8543 117.427 66.0543 116.96H68.1743C67.9076 117.893 67.3743 118.673 66.5743 119.3C65.7876 119.927 64.8076 120.24 63.6343 120.24ZM63.6343 111.58C62.9276 111.58 62.301 111.793 61.7543 112.22C61.2076 112.633 60.8743 113.26 60.7543 114.1H66.3543C66.3143 113.327 66.041 112.713 65.5343 112.26C65.0276 111.807 64.3943 111.58 63.6343 111.58ZM74.5801 120C73.6067 120 72.8334 119.767 72.2601 119.3C71.6867 118.82 71.4001 117.973 71.4001 116.76V111.86H69.7001V110.08H71.4001L71.6601 107.56H73.5201V110.08H76.3201V111.86H73.5201V116.76C73.5201 117.307 73.6334 117.687 73.8601 117.9C74.1001 118.1 74.5067 118.2 75.0801 118.2H76.2201V120H74.5801ZM78.506 120V110.08H80.406L80.586 111.96C80.9327 111.307 81.4127 110.793 82.026 110.42C82.6527 110.033 83.406 109.84 84.286 109.84V112.06H83.706C83.1193 112.06 82.5927 112.16 82.126 112.36C81.6727 112.547 81.306 112.873 81.026 113.34C80.7593 113.793 80.626 114.427 80.626 115.24V120H78.506ZM90.4702 120.24C89.5236 120.24 88.6702 120.027 87.9102 119.6C87.1636 119.16 86.5702 118.553 86.1302 117.78C85.6902 116.993 85.4702 116.08 85.4702 115.04C85.4702 114 85.6902 113.093 86.1302 112.32C86.5836 111.533 87.1902 110.927 87.9502 110.5C88.7102 110.06 89.5569 109.84 90.4902 109.84C91.4369 109.84 92.2836 110.06 93.0302 110.5C93.7902 110.927 94.3902 111.533 94.8302 112.32C95.2836 113.093 95.5102 114 95.5102 115.04C95.5102 116.08 95.2836 116.993 94.8302 117.78C94.3902 118.553 93.7902 119.16 93.0302 119.6C92.2702 120.027 91.4169 120.24 90.4702 120.24ZM90.4702 118.42C90.9769 118.42 91.4436 118.293 91.8702 118.04C92.3102 117.787 92.6636 117.413 92.9302 116.92C93.1969 116.413 93.3302 115.787 93.3302 115.04C93.3302 114.293 93.1969 113.673 92.9302 113.18C92.6769 112.673 92.3302 112.293 91.8902 112.04C91.4636 111.787 90.9969 111.66 90.4902 111.66C89.9836 111.66 89.5102 111.787 89.0702 112.04C88.6436 112.293 88.2969 112.673 88.0302 113.18C87.7636 113.673 87.6302 114.293 87.6302 115.04C87.6302 115.787 87.7636 116.413 88.0302 116.92C88.2969 117.413 88.6436 117.787 89.0702 118.04C89.4969 118.293 89.9636 118.42 90.4702 118.42ZM102.503 120.24C101.53 120.24 100.656 120.02 99.8829 119.58C99.1229 119.14 98.5229 118.533 98.0829 117.76C97.6562 116.973 97.4429 116.067 97.4429 115.04C97.4429 114.013 97.6562 113.113 98.0829 112.34C98.5229 111.553 99.1229 110.94 99.8829 110.5C100.656 110.06 101.53 109.84 102.503 109.84C103.73 109.84 104.756 110.16 105.583 110.8C106.423 111.44 106.963 112.307 107.203 113.4H104.983C104.85 112.853 104.556 112.427 104.103 112.12C103.65 111.813 103.116 111.66 102.503 111.66C101.983 111.66 101.503 111.793 101.063 112.06C100.623 112.313 100.27 112.693 100.003 113.2C99.7362 113.693 99.6029 114.307 99.6029 115.04C99.6029 115.773 99.7362 116.393 100.003 116.9C100.27 117.393 100.623 117.773 101.063 118.04C101.503 118.307 101.983 118.44 102.503 118.44C103.116 118.44 103.65 118.287 104.103 117.98C104.556 117.673 104.85 117.24 104.983 116.68H107.203C106.976 117.747 106.443 118.607 105.603 119.26C104.763 119.913 103.73 120.24 102.503 120.24ZM109.502 120V105.6H111.622V111.68C111.955 111.107 112.415 110.66 113.002 110.34C113.602 110.007 114.262 109.84 114.982 109.84C116.169 109.84 117.102 110.213 117.782 110.96C118.462 111.707 118.802 112.82 118.802 114.3V120H116.702V114.52C116.702 112.6 115.935 111.64 114.402 111.64C113.602 111.64 112.935 111.92 112.402 112.48C111.882 113.04 111.622 113.84 111.622 114.88V120H109.502ZM125.939 120.24C124.966 120.24 124.099 120.027 123.339 119.6C122.592 119.16 122.006 118.553 121.579 117.78C121.152 117.007 120.939 116.107 120.939 115.08C120.939 114.04 121.146 113.127 121.559 112.34C121.986 111.553 122.572 110.94 123.319 110.5C124.079 110.06 124.959 109.84 125.959 109.84C126.932 109.84 127.779 110.06 128.499 110.5C129.219 110.927 129.779 111.5 130.179 112.22C130.579 112.94 130.779 113.733 130.779 114.6C130.779 114.733 130.772 114.88 130.759 115.04C130.759 115.187 130.752 115.353 130.739 115.54H123.019C123.086 116.5 123.399 117.233 123.959 117.74C124.532 118.233 125.192 118.48 125.939 118.48C126.539 118.48 127.039 118.347 127.439 118.08C127.852 117.8 128.159 117.427 128.359 116.96H130.479C130.212 117.893 129.679 118.673 128.879 119.3C128.092 119.927 127.112 120.24 125.939 120.24ZM125.939 111.58C125.232 111.58 124.606 111.793 124.059 112.22C123.512 112.633 123.179 113.26 123.059 114.1H128.659C128.619 113.327 128.346 112.713 127.839 112.26C127.332 111.807 126.699 111.58 125.939 111.58ZM132.979 120V110.08H134.859L135.039 111.48C135.359 110.973 135.779 110.573 136.299 110.28C136.832 109.987 137.445 109.84 138.139 109.84C139.712 109.84 140.805 110.46 141.419 111.7C141.779 111.127 142.259 110.673 142.859 110.34C143.472 110.007 144.132 109.84 144.839 109.84C146.079 109.84 147.052 110.213 147.759 110.96C148.465 111.707 148.819 112.82 148.819 114.3V120H146.699V114.52C146.699 112.6 145.965 111.64 144.499 111.64C143.752 111.64 143.139 111.92 142.659 112.48C142.192 113.04 141.959 113.84 141.959 114.88V120H139.839V114.52C139.839 112.6 139.099 111.64 137.619 111.64C136.885 111.64 136.279 111.92 135.799 112.48C135.332 113.04 135.099 113.84 135.099 114.88V120H132.979ZM152.499 108.2C152.099 108.2 151.766 108.08 151.499 107.84C151.246 107.587 151.119 107.273 151.119 106.9C151.119 106.527 151.246 106.22 151.499 105.98C151.766 105.727 152.099 105.6 152.499 105.6C152.899 105.6 153.226 105.727 153.479 105.98C153.746 106.22 153.879 106.527 153.879 106.9C153.879 107.273 153.746 107.587 153.479 107.84C153.226 108.08 152.899 108.2 152.499 108.2ZM151.439 120V110.08H153.559V120H151.439ZM161.058 120.24C160.084 120.24 159.211 120.02 158.438 119.58C157.678 119.14 157.078 118.533 156.638 117.76C156.211 116.973 155.998 116.067 155.998 115.04C155.998 114.013 156.211 113.113 156.638 112.34C157.078 111.553 157.678 110.94 158.438 110.5C159.211 110.06 160.084 109.84 161.058 109.84C162.284 109.84 163.311 110.16 164.138 110.8C164.978 111.44 165.518 112.307 165.758 113.4H163.538C163.404 112.853 163.111 112.427 162.658 112.12C162.204 111.813 161.671 111.66 161.058 111.66C160.538 111.66 160.058 111.793 159.618 112.06C159.178 112.313 158.824 112.693 158.558 113.2C158.291 113.693 158.158 114.307 158.158 115.04C158.158 115.773 158.291 116.393 158.558 116.9C158.824 117.393 159.178 117.773 159.618 118.04C160.058 118.307 160.538 118.44 161.058 118.44C161.671 118.44 162.204 118.287 162.658 117.98C163.111 117.673 163.404 117.24 163.538 116.68H165.758C165.531 117.747 164.998 118.607 164.158 119.26C163.318 119.913 162.284 120.24 161.058 120.24ZM171.417 120.24C170.577 120.24 169.883 120.1 169.337 119.82C168.79 119.54 168.383 119.173 168.117 118.72C167.85 118.253 167.717 117.747 167.717 117.2C167.717 116.24 168.09 115.48 168.837 114.92C169.583 114.36 170.65 114.08 172.037 114.08H174.637V113.9C174.637 113.127 174.423 112.547 173.997 112.16C173.583 111.773 173.043 111.58 172.377 111.58C171.79 111.58 171.277 111.727 170.837 112.02C170.41 112.3 170.15 112.72 170.057 113.28H167.937C168.003 112.56 168.243 111.947 168.657 111.44C169.083 110.92 169.617 110.527 170.257 110.26C170.91 109.98 171.623 109.84 172.397 109.84C173.783 109.84 174.857 110.207 175.617 110.94C176.377 111.66 176.757 112.647 176.757 113.9V120H174.917L174.737 118.3C174.457 118.847 174.05 119.307 173.517 119.68C172.983 120.053 172.283 120.24 171.417 120.24ZM171.837 118.52C172.41 118.52 172.89 118.387 173.277 118.12C173.677 117.84 173.983 117.473 174.197 117.02C174.423 116.567 174.563 116.067 174.617 115.52H172.257C171.417 115.52 170.817 115.667 170.457 115.96C170.11 116.253 169.937 116.62 169.937 117.06C169.937 117.513 170.103 117.873 170.437 118.14C170.783 118.393 171.25 118.52 171.837 118.52ZM179.229 120V105.6H181.349V120H179.229ZM86.9649 143V129H91.8649C92.9583 129 93.8649 129.187 94.5849 129.56C95.3049 129.92 95.8383 130.42 96.1849 131.06C96.5449 131.687 96.7249 132.4 96.7249 133.2C96.7249 133.96 96.5516 134.66 96.2049 135.3C95.8716 135.927 95.3449 136.427 94.6249 136.8C93.9049 137.173 92.9849 137.36 91.8649 137.36H89.0849V143H86.9649ZM89.0849 135.62H91.7649C92.7649 135.62 93.4783 135.407 93.9049 134.98C94.3449 134.54 94.5649 133.947 94.5649 133.2C94.5649 132.427 94.3449 131.827 93.9049 131.4C93.4783 130.96 92.7649 130.74 91.7649 130.74H89.0849V135.62ZM98.7404 143V128.6H100.86V143H98.7404ZM106.905 143.24C106.065 143.24 105.372 143.1 104.825 142.82C104.278 142.54 103.872 142.173 103.605 141.72C103.338 141.253 103.205 140.747 103.205 140.2C103.205 139.24 103.578 138.48 104.325 137.92C105.072 137.36 106.138 137.08 107.525 137.08H110.125V136.9C110.125 136.127 109.912 135.547 109.485 135.16C109.072 134.773 108.532 134.58 107.865 134.58C107.278 134.58 106.765 134.727 106.325 135.02C105.898 135.3 105.638 135.72 105.545 136.28H103.425C103.492 135.56 103.732 134.947 104.145 134.44C104.572 133.92 105.105 133.527 105.745 133.26C106.398 132.98 107.112 132.84 107.885 132.84C109.272 132.84 110.345 133.207 111.105 133.94C111.865 134.66 112.245 135.647 112.245 136.9V143H110.405L110.225 141.3C109.945 141.847 109.538 142.307 109.005 142.68C108.472 143.053 107.772 143.24 106.905 143.24ZM107.325 141.52C107.898 141.52 108.378 141.387 108.765 141.12C109.165 140.84 109.472 140.473 109.685 140.02C109.912 139.567 110.052 139.067 110.105 138.52H107.745C106.905 138.52 106.305 138.667 105.945 138.96C105.598 139.253 105.425 139.62 105.425 140.06C105.425 140.513 105.592 140.873 105.925 141.14C106.272 141.393 106.738 141.52 107.325 141.52ZM114.717 143V133.08H116.597L116.757 134.82C117.064 134.207 117.51 133.727 118.097 133.38C118.697 133.02 119.384 132.84 120.157 132.84C121.357 132.84 122.297 133.213 122.977 133.96C123.67 134.707 124.017 135.82 124.017 137.3V143H121.917V137.52C121.917 135.6 121.13 134.64 119.557 134.64C118.77 134.64 118.117 134.92 117.597 135.48C117.09 136.04 116.837 136.84 116.837 137.88V143H114.717ZM130.674 143C129.7 143 128.927 142.767 128.354 142.3C127.78 141.82 127.494 140.973 127.494 139.76V134.86H125.794V133.08H127.494L127.754 130.56H129.614V133.08H132.414V134.86H129.614V139.76C129.614 140.307 129.727 140.687 129.954 140.9C130.194 141.1 130.6 141.2 131.174 141.2H132.314V143H130.674ZM138.56 143.24C137.306 143.24 136.273 142.933 135.46 142.32C134.646 141.707 134.18 140.893 134.06 139.88H136.2C136.306 140.333 136.56 140.727 136.96 141.06C137.36 141.38 137.886 141.54 138.54 141.54C139.18 141.54 139.646 141.407 139.94 141.14C140.233 140.873 140.38 140.567 140.38 140.22C140.38 139.713 140.173 139.373 139.76 139.2C139.36 139.013 138.8 138.847 138.08 138.7C137.52 138.58 136.96 138.42 136.4 138.22C135.853 138.02 135.393 137.74 135.02 137.38C134.66 137.007 134.48 136.507 134.48 135.88C134.48 135.013 134.813 134.293 135.48 133.72C136.146 133.133 137.08 132.84 138.28 132.84C139.386 132.84 140.28 133.107 140.96 133.64C141.653 134.173 142.06 134.927 142.18 135.9H140.14C140.073 135.473 139.873 135.14 139.54 134.9C139.22 134.66 138.786 134.54 138.24 134.54C137.706 134.54 137.293 134.653 137 134.88C136.706 135.093 136.56 135.373 136.56 135.72C136.56 136.067 136.76 136.34 137.16 136.54C137.573 136.74 138.113 136.92 138.78 137.08C139.446 137.227 140.06 137.4 140.62 137.6C141.193 137.787 141.653 138.067 142 138.44C142.346 138.813 142.52 139.36 142.52 140.08C142.533 140.987 142.18 141.74 141.46 142.34C140.753 142.94 139.786 143.24 138.56 143.24Z" fill="white"/>
<defs>
<radialGradient id="paint0_radial_2209_11853" cx="0" cy="0" r="1" gradientUnits="userSpaceOnUse" gradientTransform="translate(112.5 112.5) rotate(90) scale(103.5)">
<stop stop-color="#F24F7A"/>
<stop offset="1" stop-color="#DB1F51"/>
</radialGradient>
</defs>
</svg>
