<svg width="143" height="431" viewBox="0 0 143 431" fill="none" xmlns="http://www.w3.org/2000/svg">
<path d="M12.0008 213L11.11 213.454L12.0008 213ZM0 429L11.4449 430.532L7.04956 419.855L0 429ZM5.9092 427.436C7.1183 426.819 8.30144 426.164 9.4585 425.474L8.43338 423.756C7.3142 424.424 6.1697 425.057 4.99992 425.654L5.9092 427.436ZM12.8665 423.283C13.978 422.515 15.0628 421.712 16.1209 420.873L14.8789 419.306C13.8548 420.117 12.8052 420.895 11.7299 421.637L12.8665 423.283ZM19.2144 418.255C20.2125 417.353 21.1841 416.418 22.129 415.451L20.6982 414.053C19.782 414.992 18.8406 415.898 17.8739 416.771L19.2144 418.255ZM24.8648 412.473C25.7433 411.457 26.5959 410.411 27.4226 409.334L25.8363 408.116C25.0329 409.162 24.2047 410.179 23.352 411.165L24.8648 412.473ZM29.7931 406.062C30.5461 404.96 31.2747 403.831 31.9787 402.675L30.2705 401.634C29.5844 402.761 28.8748 403.861 28.1418 404.933L29.7931 406.062ZM33.9932 399.172C34.6301 397.998 35.2439 396.8 35.8344 395.578L34.0336 394.708C33.4565 395.902 32.857 397.072 32.2353 398.218L33.9932 399.172ZM37.502 391.921C38.0289 390.696 38.5341 389.449 39.0174 388.181L37.1486 387.468C36.675 388.711 36.1803 389.932 35.6646 391.131L37.502 391.921ZM40.3767 384.39C40.8001 383.133 41.2034 381.857 41.5866 380.563L39.6689 379.995C39.2926 381.266 38.8967 382.519 38.4813 383.752L40.3767 384.39ZM42.6644 376.67C42.9953 375.389 43.3075 374.091 43.6009 372.777L41.649 372.341C41.3603 373.634 41.0532 374.911 40.7279 376.17L42.6644 376.67ZM44.4152 368.84C44.6643 367.534 44.8956 366.213 45.1093 364.878L43.1344 364.562C42.9239 365.877 42.6959 367.179 42.4506 368.465L44.4152 368.84ZM45.6859 360.916C45.8598 359.592 46.0169 358.256 46.1572 356.907L44.1679 356.7C44.0294 358.031 43.8744 359.35 43.7029 360.656L45.6859 360.916ZM46.5191 352.935C46.6233 351.606 46.7118 350.266 46.7846 348.915L44.7875 348.808C44.7156 350.143 44.6281 351.466 44.5252 352.779L46.5191 352.935ZM46.9527 344.925C46.9934 343.595 47.0193 342.255 47.0303 340.906L45.0304 340.889C45.0195 342.224 44.9939 343.549 44.9536 344.863L46.9527 344.925ZM47.0201 336.906C47.0026 335.578 46.9711 334.24 46.9256 332.894L44.9267 332.961C44.9718 334.294 45.003 335.618 45.0203 336.933L47.0201 336.906ZM46.7505 328.896C46.6793 327.57 46.5949 326.235 46.4971 324.894L44.5024 325.039C44.5993 326.368 44.6829 327.69 44.7534 329.003L46.7505 328.896ZM46.1693 320.906C46.0483 319.583 45.9146 318.253 45.7681 316.916L43.78 317.134C43.9252 318.459 44.0577 319.777 44.1776 321.088L46.1693 320.906ZM45.2983 312.946C45.1307 311.627 44.9509 310.302 44.759 308.97L42.7794 309.256C42.9698 310.576 43.1481 311.89 43.3143 313.198L45.2983 312.946ZM44.1567 305.023C43.9452 303.708 43.722 302.388 43.4871 301.062L41.5178 301.411C41.7509 302.726 41.9723 304.036 42.1821 305.34L44.1567 305.023ZM42.7609 297.142C42.5078 295.832 42.2435 294.517 41.9678 293.197L40.0101 293.606C40.2837 294.916 40.5461 296.221 40.7972 297.521L42.7609 297.142ZM41.1253 289.308C40.8336 288.007 40.531 286.702 40.2175 285.393L38.2725 285.859C38.5838 287.158 38.8841 288.454 39.1737 289.745L41.1253 289.308ZM39.2622 281.524C38.9344 280.235 38.5962 278.942 38.2474 277.646L36.3161 278.166C36.6625 279.453 36.9984 280.737 37.3239 282.017L39.2622 281.524ZM37.1828 273.794C36.8208 272.517 36.4488 271.238 36.0667 269.955L34.1499 270.526C34.5295 271.8 34.8991 273.071 35.2586 274.339L37.1828 273.794ZM34.8964 266.119C34.502 264.856 34.098 263.59 33.6842 262.322L31.7828 262.942C32.194 264.202 32.5955 265.46 32.9873 266.715L34.8964 266.119ZM32.4137 258.509C31.9878 257.258 31.5526 256.004 31.1079 254.748L29.2226 255.416C29.6645 256.664 30.0971 257.91 30.5203 259.154L32.4137 258.509ZM29.7479 250.981C29.2895 249.734 28.8218 248.486 28.3449 247.236L26.4763 247.949C26.9504 249.192 27.4152 250.432 27.8709 251.671L29.7479 250.981ZM26.8994 243.515C26.4092 242.274 25.9098 241.032 25.4014 239.788L23.5502 240.545C24.0556 241.781 24.552 243.016 25.0394 244.25L26.8994 243.515ZM23.874 236.113C23.3561 234.887 22.8294 233.659 22.2939 232.43L20.4604 233.229C20.9929 234.451 21.5167 235.672 22.0316 236.891L23.874 236.113ZM20.6771 228.777C20.1332 227.567 19.5808 226.356 19.0199 225.144L17.2048 225.984C17.7627 227.189 18.312 228.394 18.8528 229.597L20.6771 228.777ZM17.3132 221.51C16.7444 220.316 16.1673 219.121 15.5819 217.926L13.7858 218.806C14.368 219.995 14.942 221.183 15.5077 222.37L17.3132 221.51ZM13.8007 214.34C13.4998 213.742 13.1967 213.144 12.8915 212.546L11.11 213.454C11.4135 214.049 11.715 214.644 12.0143 215.239L13.8007 214.34ZM12.8915 212.546C12.5903 211.955 12.2977 211.364 12.0136 210.771L10.2103 211.636C10.5014 212.243 10.8013 212.849 11.11 213.454L12.8915 212.546ZM10.411 207.207C9.90412 206 9.43154 204.79 8.99252 203.576L7.11179 204.256C7.5623 205.502 8.04714 206.743 8.56705 207.981L10.411 207.207ZM7.75814 199.869C7.37755 198.62 7.03134 197.368 6.71871 196.112L4.77798 196.595C5.09891 197.884 5.4543 199.17 5.84495 200.452L7.75814 199.869ZM5.87343 192.3C5.62425 191.02 5.4088 189.738 5.22627 188.453L3.24615 188.734C3.43344 190.053 3.65455 191.369 3.91031 192.682L5.87343 192.3ZM4.77507 184.574C4.6573 183.278 4.57195 181.979 4.51822 180.679L2.51992 180.761C2.57499 182.094 2.66249 183.425 2.78328 184.755L4.77507 184.574ZM4.45106 176.77C4.45974 175.471 4.49901 174.169 4.56807 172.866L2.57087 172.761C2.5002 174.094 2.46 175.426 2.45111 176.757L4.45106 176.77ZM4.86293 168.963C4.98934 167.671 5.14417 166.377 5.32665 165.083L3.34623 164.803C3.15987 166.125 3.00166 167.447 2.87243 168.768L4.86293 168.963ZM5.95353 161.212C6.18685 159.935 6.44627 158.658 6.73105 157.38L4.77895 156.945C4.48869 158.247 4.22415 159.55 3.98611 160.852L5.95353 161.212ZM7.65605 153.564C7.98484 152.308 8.33742 151.051 8.71309 149.795L6.79696 149.222C6.41483 150.5 6.05599 151.778 5.72122 153.057L7.65605 153.564ZM9.90167 146.049C10.3149 144.817 10.7498 143.585 11.2056 142.353L9.32995 141.659C8.86717 142.909 8.42543 144.161 8.00543 145.413L9.90167 146.049ZM12.6249 138.687C13.1127 137.48 13.62 136.273 14.1462 135.068L12.3133 134.268C11.7798 135.489 11.2654 136.713 10.7705 137.938L12.6249 138.687ZM15.7666 131.487C16.3201 130.304 16.8912 129.124 17.4793 127.945L15.6897 127.052C15.0943 128.245 14.5159 129.441 13.9553 130.639L15.7666 131.487ZM19.2746 124.45C19.8862 123.293 20.5137 122.138 21.1564 120.985L19.4096 120.011C18.7597 121.177 18.1251 122.345 17.5064 123.516L19.2746 124.45ZM23.1044 117.577C23.7674 116.445 24.4447 115.314 25.1357 114.187L23.4305 113.142C22.7326 114.281 22.0484 115.422 21.3785 116.566L23.1044 117.577ZM27.2176 110.862C27.9246 109.756 28.6443 108.653 29.3764 107.553L27.7113 106.445C26.9727 107.555 26.2462 108.669 25.5326 109.785L27.2176 110.862ZM31.5816 104.301C32.3266 103.222 33.083 102.146 33.8504 101.074L32.2238 99.91C31.4501 100.991 30.6873 102.076 29.9359 103.164L31.5816 104.301ZM36.1683 97.8876C36.9473 96.8343 37.7365 95.7843 38.5353 94.7377L36.9455 93.5243C36.1407 94.5787 35.3455 95.6368 34.5603 96.6983L36.1683 97.8876ZM40.9537 91.6169C41.7634 90.5874 42.5822 89.5615 43.4094 88.5394L41.8547 87.2812C41.0218 88.3104 40.1973 89.3435 39.3817 90.3805L40.9537 91.6169ZM45.9159 85.4847C46.7541 84.4769 47.6002 83.4731 48.4536 82.4734L46.9326 81.1748C46.0736 82.1809 45.222 83.1913 44.3782 84.2058L45.9159 85.4847ZM51.035 79.4879C51.9004 78.4993 52.7727 77.5151 53.6515 76.5353L52.1625 75.1999C51.2786 76.1856 50.4009 77.1758 49.5302 78.1705L51.035 79.4879ZM56.3024 73.6139C57.1919 72.6449 58.0873 71.6805 58.9881 70.721L57.53 69.3521C56.6241 70.317 55.7236 71.2868 54.829 72.2614L56.3024 73.6139ZM61.7047 67.8589C62.6153 66.9098 63.531 65.9657 64.451 65.0267L63.0226 63.6269C62.0976 64.5708 61.1771 65.52 60.2616 66.4742L61.7047 67.8589ZM67.2301 62.2198C68.1609 61.2893 69.0956 60.3641 70.0339 59.4446L68.634 58.0162C67.691 58.9403 66.7516 59.8701 65.8161 60.8054L67.2301 62.2198ZM72.8682 56.6939C73.8184 55.7805 74.7718 54.873 75.7278 53.9715L74.3556 52.5164C73.3951 53.4223 72.4371 54.3341 71.4823 55.2519L72.8682 56.6939ZM78.6097 51.2789C79.5792 50.3815 80.5508 49.4903 81.5242 48.6056L80.179 47.1256C79.2012 48.0144 78.225 48.9096 77.251 49.8112L78.6097 51.2789ZM84.4489 45.9711C85.4369 45.0891 86.4261 44.2139 87.416 43.3456L86.0972 41.842C85.1029 42.7141 84.1093 43.5932 83.1169 44.4792L84.4489 45.9711ZM90.3896 40.7602C91.392 39.8962 92.3947 39.0395 93.3971 38.1903L92.1043 36.6643C91.0977 37.5171 90.0906 38.3775 89.0838 39.2453L90.3896 40.7602ZM96.4194 35.6518C97.435 34.8061 98.4497 33.9684 99.4629 33.1389L98.1959 31.5914C97.1784 32.4244 96.1595 33.2656 95.1396 34.1149L96.4194 35.6518ZM102.534 30.6458C103.562 29.8187 104.587 29.0003 105.61 28.1909L104.369 26.6226C103.342 27.4354 102.312 28.2572 101.28 29.0878L102.534 30.6458ZM108.73 25.7428C109.77 24.9343 110.806 24.1353 111.838 23.3462L110.623 21.7575C109.586 22.55 108.546 23.3523 107.502 24.1642L108.73 25.7428ZM115.006 20.944C116.058 20.1537 117.105 19.3742 118.146 18.6055L116.957 16.9966C115.912 17.7686 114.861 18.5515 113.805 19.3451L115.006 20.944ZM121.362 16.2519C122.427 15.4792 123.486 14.7185 124.537 13.9701L123.377 12.3409C122.321 13.0927 121.258 13.8567 120.188 14.6328L121.362 16.2519ZM127.797 11.671C128.879 10.9154 129.951 10.1735 131.014 9.44575L129.883 7.7957C128.816 8.52696 127.738 9.27228 126.652 10.0314L127.797 11.671ZM134.312 7.20951C135.415 6.4699 136.505 5.74648 137.582 5.03963L136.485 3.36759C135.402 4.07816 134.306 4.80528 133.198 5.54857L134.312 7.20951ZM140.908 2.8822C141.454 2.53177 141.997 2.18596 142.536 1.84482L141.466 0.155181C140.924 0.498301 140.378 0.846085 139.828 1.19848L140.908 2.8822Z" fill="url(#paint0_linear_2214_279)"/>
<defs>
<linearGradient id="paint0_linear_2214_279" x1="71.0004" y1="1" x2="71.0004" y2="429" gradientUnits="userSpaceOnUse">
<stop stop-color="#DB1F51" stop-opacity="0"/>
<stop offset="1" stop-color="#DB1F51"/>
</linearGradient>
</defs>
</svg>
