<svg width="14" height="16" viewBox="0 0 14 16" fill="none" xmlns="http://www.w3.org/2000/svg">
<path d="M7.98484 0.961689C7.99547 1.02716 8.00037 1.09341 7.99951 1.1597L7.99951 12.4474L8.11399 12.2013C8.22786 11.9607 8.38283 11.7418 8.5719 11.5544L11.7373 8.3891C12.1352 7.97221 12.7754 7.90217 13.2541 8.2231C13.7642 8.59662 13.875 9.31294 13.5014 9.82309C13.4713 9.8643 13.4383 9.90348 13.4029 9.94029L7.67897 15.6642C7.23214 16.1116 6.50731 16.112 6.05998 15.6651C6.05969 15.6649 6.05937 15.6645 6.05909 15.6642L0.335129 9.94029C-0.111303 9.4926 -0.110302 8.76777 0.337382 8.3213C0.372621 8.28617 0.410112 8.25337 0.449608 8.2231C0.928309 7.90217 1.5685 7.97221 1.96646 8.3891L5.13753 11.5487C5.30567 11.7167 5.44666 11.9098 5.55538 12.1211L5.70992 12.4646V1.2227C5.68821 0.637891 6.09672 0.124809 6.67155 0.014945C7.29564 -0.0862617 7.8836 0.337599 7.98484 0.961689Z" fill="white"/>
</svg>
