<svg width="23" height="23" viewBox="0 0 23 23" fill="none" xmlns="http://www.w3.org/2000/svg">
<path d="M20.1838 15.772L20.1837 15.7719L18.0162 15.1911L17.9791 15.1812L17.9582 15.149L16.7369 13.2679C16.6227 13.092 16.4275 12.986 16.2179 12.986C16.0082 12.986 15.813 13.092 15.6987 13.2676L14.4768 15.149L14.4559 15.1812L14.4188 15.1911L12.252 15.7719L12.2519 15.772C12.0496 15.826 11.8883 15.9792 11.8236 16.1782C11.7589 16.3777 11.7994 16.5962 11.9312 16.759L13.3434 18.5025L13.3675 18.5324L13.3655 18.5707L13.2469 20.8111L20.1838 15.772ZM20.1838 15.772C20.3862 15.826 20.5475 15.9789 20.6121 16.1782M20.1838 15.772L20.6121 16.1782M16.2179 20.6033L16.2537 20.6171L18.3478 21.4214C18.3479 21.4214 18.348 21.4214 18.3481 21.4214C18.5441 21.4958 18.7633 21.4676 18.9337 21.3445C19.103 21.2211 19.199 21.0204 19.1881 20.8115L19.0702 18.5707L19.0682 18.5323L19.0924 18.5025L20.5046 16.759L16.2179 20.6033ZM16.2179 20.6033L16.182 20.6171M16.2179 20.6033L16.182 20.6171M16.182 20.6171L14.087 21.4214L16.182 20.6171ZM20.6121 16.1782C20.6768 16.3777 20.6363 16.5961 20.5046 16.759L20.6121 16.1782ZM13.5012 21.3444C13.6089 21.4224 13.7364 21.4626 13.8651 21.4626C13.9399 21.4626 14.0148 21.449 14.0868 21.4215L13.5012 21.3444ZM13.5012 21.3444C13.3315 21.2212 13.236 21.0206 13.2469 20.8112L13.5012 21.3444ZM17.7585 19.8692L17.9023 19.9245L17.8942 19.7706L17.8198 18.3599C17.8119 18.2073 17.8609 18.0568 17.957 17.938L18.8463 16.8403L18.9432 16.7206L18.7945 16.6807L17.4293 16.3151C17.2818 16.2755 17.1537 16.1827 17.0703 16.0543L16.3017 14.8702L16.2179 14.741L16.134 14.8702L15.3648 16.0546C15.2814 16.1826 15.1532 16.2755 15.0057 16.3151L13.6413 16.6808L13.4925 16.7206L13.5894 16.8403L14.4786 17.9379C14.5748 18.0571 14.6238 18.2074 14.6159 18.3603L14.5415 19.7706L14.5334 19.9245L14.6772 19.8692L15.9961 19.3628L15.9962 19.3628C16.0673 19.3354 16.1428 19.3217 16.2179 19.3217C16.2929 19.3217 16.3684 19.3354 16.4395 19.3628L16.4396 19.3628L17.7585 19.8692Z" fill="#2A2A2A" stroke="#EEF2F7" stroke-width="0.2"/>
<path d="M4.34482 14.401L4.34477 14.4011L3.62544 16.9458C3.62543 16.9459 3.62541 16.9459 3.62539 16.946C3.55787 17.1809 3.60306 17.4253 3.74892 17.6192C3.89707 17.8168 4.12543 17.9305 4.37291 17.9305H10.4275C10.7696 17.9305 11.0463 18.2075 11.0463 18.5492C11.0463 18.891 10.7696 19.168 10.4275 19.168H4.37291C3.73192 19.168 3.14457 18.8746 2.75987 18.3628C2.37786 17.8544 2.25973 17.2144 2.43557 16.606L2.43573 16.6055L3.15443 14.0633C3.7388 12.0091 5.64025 10.5749 7.77715 10.5749H7.99097H8.24229L8.05967 10.4022C7.06827 9.46483 6.44597 8.14219 6.44597 6.67441C6.44597 3.842 8.75047 1.5375 11.5829 1.5375C14.4153 1.5375 16.7198 3.842 16.7198 6.67441C16.7198 8.16907 16.0739 9.51272 15.0505 10.4527L14.9314 10.562L15.0824 10.6198C15.3161 10.7092 15.4816 10.931 15.4816 11.1936C15.4816 11.5353 15.2049 11.8124 14.8629 11.8124H7.77715C6.18977 11.8124 4.77893 12.8765 4.34482 14.401ZM11.5829 2.775C9.43246 2.775 7.68347 4.52435 7.68347 6.67441C7.68347 8.82448 9.43247 10.5735 11.5829 10.5735C13.7333 10.5735 15.4823 8.82448 15.4823 6.67441C15.4823 4.52435 13.7333 2.775 11.5829 2.775Z" fill="#2A2A2A" stroke="#EEF2F7" stroke-width="0.2"/>
</svg>
