<svg width="226" height="226" viewBox="0 0 226 226" fill="none" xmlns="http://www.w3.org/2000/svg">
<circle cx="113" cy="113" r="108" stroke="#FFAEC3" stroke-width="10"/>
<circle cx="112.5" cy="112.5" r="103.5" fill="url(#paint0_radial_2209_11853)"/>
<path d="M57 25L87 72" stroke="white"/>
<path d="M137 153L167 200" stroke="white"/>
<path d="M36.8985 118V104H45.6785V105.72H39.0185V110.14H44.5385V111.84H39.0185V118H36.8985ZM51.8296 118.24C50.8829 118.24 50.0296 118.027 49.2696 117.6C48.5229 117.16 47.9296 116.553 47.4896 115.78C47.0496 114.993 46.8296 114.08 46.8296 113.04C46.8296 112 47.0496 111.093 47.4896 110.32C47.9429 109.533 48.5496 108.927 49.3096 108.5C50.0696 108.06 50.9163 107.84 51.8496 107.84C52.7963 107.84 53.6429 108.06 54.3896 108.5C55.1496 108.927 55.7496 109.533 56.1896 110.32C56.6429 111.093 56.8696 112 56.8696 113.04C56.8696 114.08 56.6429 114.993 56.1896 115.78C55.7496 116.553 55.1496 117.16 54.3896 117.6C53.6296 118.027 52.7763 118.24 51.8296 118.24ZM51.8296 116.42C52.3363 116.42 52.8029 116.293 53.2296 116.04C53.6696 115.787 54.0229 115.413 54.2896 114.92C54.5563 114.413 54.6896 113.787 54.6896 113.04C54.6896 112.293 54.5563 111.673 54.2896 111.18C54.0363 110.673 53.6896 110.293 53.2496 110.04C52.8229 109.787 52.3563 109.66 51.8496 109.66C51.3429 109.66 50.8696 109.787 50.4296 110.04C50.0029 110.293 49.6563 110.673 49.3896 111.18C49.1229 111.673 48.9896 112.293 48.9896 113.04C48.9896 113.787 49.1229 114.413 49.3896 114.92C49.6563 115.413 50.0029 115.787 50.4296 116.04C50.8563 116.293 51.3229 116.42 51.8296 116.42ZM63.8023 118.24C62.8556 118.24 62.0023 118.027 61.2423 117.6C60.4956 117.16 59.9023 116.553 59.4623 115.78C59.0223 114.993 58.8023 114.08 58.8023 113.04C58.8023 112 59.0223 111.093 59.4623 110.32C59.9156 109.533 60.5223 108.927 61.2823 108.5C62.0423 108.06 62.8889 107.84 63.8223 107.84C64.7689 107.84 65.6156 108.06 66.3623 108.5C67.1223 108.927 67.7223 109.533 68.1623 110.32C68.6156 111.093 68.8423 112 68.8423 113.04C68.8423 114.08 68.6156 114.993 68.1623 115.78C67.7223 116.553 67.1223 117.16 66.3623 117.6C65.6023 118.027 64.7489 118.24 63.8023 118.24ZM63.8023 116.42C64.3089 116.42 64.7756 116.293 65.2023 116.04C65.6423 115.787 65.9956 115.413 66.2623 114.92C66.5289 114.413 66.6623 113.787 66.6623 113.04C66.6623 112.293 66.5289 111.673 66.2623 111.18C66.0089 110.673 65.6623 110.293 65.2223 110.04C64.7956 109.787 64.3289 109.66 63.8223 109.66C63.3156 109.66 62.8423 109.787 62.4023 110.04C61.9756 110.293 61.6289 110.673 61.3623 111.18C61.0956 111.673 60.9623 112.293 60.9623 113.04C60.9623 113.787 61.0956 114.413 61.3623 114.92C61.6289 115.413 61.9756 115.787 62.4023 116.04C62.8289 116.293 63.2956 116.42 63.8023 116.42ZM75.6549 118.24C74.6949 118.24 73.8483 118.013 73.1149 117.56C72.3816 117.107 71.8083 116.487 71.3949 115.7C70.9816 114.913 70.7749 114.02 70.7749 113.02C70.7749 112.02 70.9816 111.133 71.3949 110.36C71.8083 109.573 72.3816 108.96 73.1149 108.52C73.8616 108.067 74.7149 107.84 75.6749 107.84C76.4616 107.84 77.1483 107.993 77.7349 108.3C78.3349 108.607 78.8016 109.04 79.1349 109.6V103.6H81.2549V118H79.3549L79.1349 116.46C78.8149 116.927 78.3749 117.34 77.8149 117.7C77.2549 118.06 76.5349 118.24 75.6549 118.24ZM76.0349 116.4C76.9416 116.4 77.6816 116.087 78.2549 115.46C78.8416 114.833 79.1349 114.027 79.1349 113.04C79.1349 112.04 78.8416 111.233 78.2549 110.62C77.6816 109.993 76.9416 109.68 76.0349 109.68C75.1283 109.68 74.3816 109.993 73.7949 110.62C73.2083 111.233 72.9149 112.04 72.9149 113.04C72.9149 113.693 73.0483 114.273 73.3149 114.78C73.5816 115.287 73.9483 115.687 74.4149 115.98C74.8949 116.26 75.4349 116.4 76.0349 116.4ZM93.367 118.24C92.367 118.24 91.4936 118.067 90.747 117.72C90.0136 117.36 89.4403 116.86 89.027 116.22C88.6136 115.58 88.407 114.833 88.407 113.98C88.407 113.047 88.667 112.213 89.187 111.48C89.7203 110.747 90.5003 110.16 91.527 109.72C91.1003 109.24 90.7936 108.787 90.607 108.36C90.4203 107.933 90.327 107.467 90.327 106.96C90.327 106.04 90.6603 105.28 91.327 104.68C91.9936 104.067 92.9203 103.76 94.107 103.76C94.8803 103.76 95.547 103.907 96.107 104.2C96.667 104.493 97.0936 104.887 97.387 105.38C97.6803 105.873 97.8203 106.433 97.807 107.06H95.747C95.7603 106.527 95.5936 106.12 95.247 105.84C94.9136 105.56 94.527 105.42 94.087 105.42C93.567 105.42 93.1536 105.567 92.847 105.86C92.5403 106.14 92.387 106.5 92.387 106.94C92.387 107.327 92.4936 107.707 92.707 108.08C92.9336 108.453 93.2736 108.873 93.727 109.34L97.887 113.52C98.2203 113.013 98.5803 112.413 98.967 111.72L99.487 110.74H101.687L100.887 112.2C100.34 113.267 99.8003 114.16 99.267 114.88L102.387 118H99.787L98.087 116.3C97.3936 116.98 96.667 117.473 95.907 117.78C95.147 118.087 94.3003 118.24 93.367 118.24ZM90.467 113.86C90.467 114.607 90.7336 115.227 91.267 115.72C91.8136 116.213 92.527 116.46 93.407 116.46C94.0603 116.46 94.6536 116.347 95.187 116.12C95.7203 115.88 96.2403 115.493 96.747 114.96L92.767 110.98C91.9936 111.3 91.4136 111.707 91.027 112.2C90.6536 112.68 90.467 113.233 90.467 113.86ZM109.125 118V104H114.405C115.858 104 116.958 104.34 117.705 105.02C118.452 105.7 118.825 106.553 118.825 107.58C118.825 108.473 118.585 109.187 118.105 109.72C117.625 110.24 117.045 110.593 116.365 110.78C116.898 110.887 117.372 111.1 117.785 111.42C118.212 111.74 118.545 112.14 118.785 112.62C119.025 113.1 119.145 113.62 119.145 114.18C119.145 114.9 118.965 115.553 118.605 116.14C118.258 116.713 117.745 117.167 117.065 117.5C116.385 117.833 115.552 118 114.565 118H109.125ZM111.245 110H114.145C114.958 110 115.578 109.813 116.005 109.44C116.432 109.053 116.645 108.527 116.645 107.86C116.645 107.207 116.432 106.687 116.005 106.3C115.592 105.913 114.958 105.72 114.105 105.72H111.245V110ZM111.245 116.26H114.285C115.138 116.26 115.798 116.06 116.265 115.66C116.745 115.26 116.985 114.7 116.985 113.98C116.985 113.26 116.738 112.693 116.245 112.28C115.752 111.853 115.085 111.64 114.245 111.64H111.245V116.26ZM126.029 118.24C125.055 118.24 124.189 118.027 123.429 117.6C122.682 117.16 122.095 116.553 121.669 115.78C121.242 115.007 121.029 114.107 121.029 113.08C121.029 112.04 121.235 111.127 121.649 110.34C122.075 109.553 122.662 108.94 123.409 108.5C124.169 108.06 125.049 107.84 126.049 107.84C127.022 107.84 127.869 108.06 128.589 108.5C129.309 108.927 129.869 109.5 130.269 110.22C130.669 110.94 130.869 111.733 130.869 112.6C130.869 112.733 130.862 112.88 130.849 113.04C130.849 113.187 130.842 113.353 130.829 113.54H123.109C123.175 114.5 123.489 115.233 124.049 115.74C124.622 116.233 125.282 116.48 126.029 116.48C126.629 116.48 127.129 116.347 127.529 116.08C127.942 115.8 128.249 115.427 128.449 114.96H130.569C130.302 115.893 129.769 116.673 128.969 117.3C128.182 117.927 127.202 118.24 126.029 118.24ZM126.029 109.58C125.322 109.58 124.695 109.793 124.149 110.22C123.602 110.633 123.269 111.26 123.149 112.1H128.749C128.709 111.327 128.435 110.713 127.929 110.26C127.422 109.807 126.789 109.58 126.029 109.58ZM135.458 118L131.738 108.08H133.958L136.718 115.98L139.478 108.08H141.678L137.978 118H135.458ZM147.552 118.24C146.579 118.24 145.712 118.027 144.952 117.6C144.206 117.16 143.619 116.553 143.192 115.78C142.766 115.007 142.552 114.107 142.552 113.08C142.552 112.04 142.759 111.127 143.172 110.34C143.599 109.553 144.186 108.94 144.932 108.5C145.692 108.06 146.572 107.84 147.572 107.84C148.546 107.84 149.392 108.06 150.112 108.5C150.832 108.927 151.392 109.5 151.792 110.22C152.192 110.94 152.392 111.733 152.392 112.6C152.392 112.733 152.386 112.88 152.372 113.04C152.372 113.187 152.366 113.353 152.352 113.54H144.632C144.699 114.5 145.012 115.233 145.572 115.74C146.146 116.233 146.806 116.48 147.552 116.48C148.152 116.48 148.652 116.347 149.052 116.08C149.466 115.8 149.772 115.427 149.972 114.96H152.092C151.826 115.893 151.292 116.673 150.492 117.3C149.706 117.927 148.726 118.24 147.552 118.24ZM147.552 109.58C146.846 109.58 146.219 109.793 145.672 110.22C145.126 110.633 144.792 111.26 144.672 112.1H150.272C150.232 111.327 149.959 110.713 149.452 110.26C148.946 109.807 148.312 109.58 147.552 109.58ZM154.592 118V108.08H156.492L156.672 109.96C157.019 109.307 157.499 108.793 158.112 108.42C158.739 108.033 159.492 107.84 160.372 107.84V110.06H159.792C159.205 110.06 158.679 110.16 158.212 110.36C157.759 110.547 157.392 110.873 157.112 111.34C156.845 111.793 156.712 112.427 156.712 113.24V118H154.592ZM165.55 118.24C164.71 118.24 164.016 118.1 163.47 117.82C162.923 117.54 162.516 117.173 162.25 116.72C161.983 116.253 161.85 115.747 161.85 115.2C161.85 114.24 162.223 113.48 162.97 112.92C163.716 112.36 164.783 112.08 166.17 112.08H168.77V111.9C168.77 111.127 168.556 110.547 168.13 110.16C167.716 109.773 167.176 109.58 166.51 109.58C165.923 109.58 165.41 109.727 164.97 110.02C164.543 110.3 164.283 110.72 164.19 111.28H162.07C162.136 110.56 162.376 109.947 162.79 109.44C163.216 108.92 163.75 108.527 164.39 108.26C165.043 107.98 165.756 107.84 166.53 107.84C167.916 107.84 168.99 108.207 169.75 108.94C170.51 109.66 170.89 110.647 170.89 111.9V118H169.05L168.87 116.3C168.59 116.847 168.183 117.307 167.65 117.68C167.116 118.053 166.416 118.24 165.55 118.24ZM165.97 116.52C166.543 116.52 167.023 116.387 167.41 116.12C167.81 115.84 168.116 115.473 168.33 115.02C168.556 114.567 168.696 114.067 168.75 113.52H166.39C165.55 113.52 164.95 113.667 164.59 113.96C164.243 114.253 164.07 114.62 164.07 115.06C164.07 115.513 164.236 115.873 164.57 116.14C164.916 116.393 165.383 116.52 165.97 116.52ZM177.421 114.96C176.901 114.96 176.421 114.9 175.981 114.78L175.121 115.62C175.268 115.713 175.448 115.793 175.661 115.86C175.875 115.927 176.175 115.987 176.561 116.04C176.948 116.093 177.475 116.147 178.141 116.2C179.461 116.32 180.415 116.64 181.001 117.16C181.588 117.667 181.881 118.347 181.881 119.2C181.881 119.787 181.721 120.34 181.401 120.86C181.095 121.393 180.608 121.82 179.941 122.14C179.288 122.473 178.448 122.64 177.421 122.64C176.035 122.64 174.908 122.373 174.041 121.84C173.188 121.32 172.761 120.527 172.761 119.46C172.761 119.047 172.868 118.633 173.081 118.22C173.308 117.82 173.661 117.44 174.141 117.08C173.861 116.96 173.615 116.833 173.401 116.7C173.201 116.553 173.021 116.407 172.861 116.26V115.78L174.581 114.02C173.808 113.353 173.421 112.48 173.421 111.4C173.421 110.747 173.575 110.153 173.881 109.62C174.201 109.073 174.661 108.64 175.261 108.32C175.861 108 176.581 107.84 177.421 107.84C177.981 107.84 178.501 107.92 178.981 108.08H182.681V109.48L180.921 109.58C181.241 110.127 181.401 110.733 181.401 111.4C181.401 112.067 181.241 112.667 180.921 113.2C180.615 113.733 180.161 114.16 179.561 114.48C178.975 114.8 178.261 114.96 177.421 114.96ZM177.421 113.3C178.035 113.3 178.528 113.14 178.901 112.82C179.288 112.487 179.481 112.02 179.481 111.42C179.481 110.807 179.288 110.34 178.901 110.02C178.528 109.7 178.035 109.54 177.421 109.54C176.795 109.54 176.288 109.7 175.901 110.02C175.528 110.34 175.341 110.807 175.341 111.42C175.341 112.02 175.528 112.487 175.901 112.82C176.288 113.14 176.795 113.3 177.421 113.3ZM174.761 119.26C174.761 119.833 175.015 120.26 175.521 120.54C176.028 120.833 176.661 120.98 177.421 120.98C178.155 120.98 178.748 120.82 179.201 120.5C179.655 120.193 179.881 119.78 179.881 119.26C179.881 118.873 179.728 118.54 179.421 118.26C179.115 117.993 178.535 117.827 177.681 117.76C177.041 117.72 176.475 117.66 175.981 117.58C175.515 117.833 175.195 118.107 175.021 118.4C174.848 118.693 174.761 118.98 174.761 119.26ZM188.822 118.24C187.848 118.24 186.982 118.027 186.222 117.6C185.475 117.16 184.888 116.553 184.462 115.78C184.035 115.007 183.822 114.107 183.822 113.08C183.822 112.04 184.028 111.127 184.442 110.34C184.868 109.553 185.455 108.94 186.202 108.5C186.962 108.06 187.842 107.84 188.842 107.84C189.815 107.84 190.662 108.06 191.382 108.5C192.102 108.927 192.662 109.5 193.062 110.22C193.462 110.94 193.662 111.733 193.662 112.6C193.662 112.733 193.655 112.88 193.642 113.04C193.642 113.187 193.635 113.353 193.622 113.54H185.902C185.968 114.5 186.282 115.233 186.842 115.74C187.415 116.233 188.075 116.48 188.822 116.48C189.422 116.48 189.922 116.347 190.322 116.08C190.735 115.8 191.042 115.427 191.242 114.96H193.362C193.095 115.893 192.562 116.673 191.762 117.3C190.975 117.927 189.995 118.24 188.822 118.24ZM188.822 109.58C188.115 109.58 187.488 109.793 186.942 110.22C186.395 110.633 186.062 111.26 185.942 112.1H191.542C191.502 111.327 191.228 110.713 190.722 110.26C190.215 109.807 189.582 109.58 188.822 109.58Z" fill="white"/>
<defs>
<radialGradient id="paint0_radial_2209_11853" cx="0" cy="0" r="1" gradientUnits="userSpaceOnUse" gradientTransform="translate(112.5 112.5) rotate(90) scale(103.5)">
<stop stop-color="#F24F7A"/>
<stop offset="1" stop-color="#DB1F51"/>
</radialGradient>
</defs>
</svg>
