<svg width="226" height="226" viewBox="0 0 226 226" fill="none" xmlns="http://www.w3.org/2000/svg">
<circle cx="113" cy="113" r="108" stroke="#FFAEC3" stroke-width="10"/>
<circle cx="112.5" cy="112.5" r="103.5" fill="url(#paint0_radial_2209_11853)"/>
<path d="M57 25L87 72" stroke="white"/>
<path d="M137 153L167 200" stroke="white"/>
<path d="M76.6684 107L81.8284 93H84.1484L89.2684 107H87.0284L85.8284 103.58H80.1084L78.9084 107H76.6684ZM80.7084 101.9H85.2284L82.9684 95.52L80.7084 101.9ZM95.273 107.24C94.2996 107.24 93.433 107.027 92.673 106.6C91.9263 106.16 91.3396 105.553 90.913 104.78C90.4863 104.007 90.273 103.107 90.273 102.08C90.273 101.04 90.4796 100.127 90.893 99.34C91.3196 98.5533 91.9063 97.94 92.653 97.5C93.413 97.06 94.293 96.84 95.293 96.84C96.2663 96.84 97.113 97.06 97.833 97.5C98.553 97.9267 99.113 98.5 99.513 99.22C99.913 99.94 100.113 100.733 100.113 101.6C100.113 101.733 100.106 101.88 100.093 102.04C100.093 102.187 100.086 102.353 100.073 102.54H92.353C92.4196 103.5 92.733 104.233 93.293 104.74C93.8663 105.233 94.5263 105.48 95.273 105.48C95.873 105.48 96.373 105.347 96.773 105.08C97.1863 104.8 97.493 104.427 97.693 103.96H99.813C99.5463 104.893 99.013 105.673 98.213 106.3C97.4263 106.927 96.4463 107.24 95.273 107.24ZM95.273 98.58C94.5663 98.58 93.9396 98.7933 93.393 99.22C92.8463 99.6333 92.513 100.26 92.393 101.1H97.993C97.953 100.327 97.6796 99.7133 97.173 99.26C96.6663 98.8067 96.033 98.58 95.273 98.58ZM102.313 107V97.08H104.213L104.393 98.96C104.739 98.3067 105.219 97.7933 105.833 97.42C106.459 97.0333 107.213 96.84 108.093 96.84V99.06H107.513C106.926 99.06 106.399 99.16 105.933 99.36C105.479 99.5467 105.113 99.8733 104.833 100.34C104.566 100.793 104.433 101.427 104.433 102.24V107H102.313ZM113.27 107.24C112.43 107.24 111.737 107.1 111.19 106.82C110.644 106.54 110.237 106.173 109.97 105.72C109.704 105.253 109.57 104.747 109.57 104.2C109.57 103.24 109.944 102.48 110.69 101.92C111.437 101.36 112.504 101.08 113.89 101.08H116.49V100.9C116.49 100.127 116.277 99.5467 115.85 99.16C115.437 98.7733 114.897 98.58 114.23 98.58C113.644 98.58 113.13 98.7267 112.69 99.02C112.264 99.3 112.004 99.72 111.91 100.28H109.79C109.857 99.56 110.097 98.9467 110.51 98.44C110.937 97.92 111.47 97.5267 112.11 97.26C112.764 96.98 113.477 96.84 114.25 96.84C115.637 96.84 116.71 97.2067 117.47 97.94C118.23 98.66 118.61 99.6467 118.61 100.9V107H116.77L116.59 105.3C116.31 105.847 115.904 106.307 115.37 106.68C114.837 107.053 114.137 107.24 113.27 107.24ZM113.69 105.52C114.264 105.52 114.744 105.387 115.13 105.12C115.53 104.84 115.837 104.473 116.05 104.02C116.277 103.567 116.417 103.067 116.47 102.52H114.11C113.27 102.52 112.67 102.667 112.31 102.96C111.964 103.253 111.79 103.62 111.79 104.06C111.79 104.513 111.957 104.873 112.29 105.14C112.637 105.393 113.104 105.52 113.69 105.52ZM125.047 107C124.074 107 123.3 106.767 122.727 106.3C122.154 105.82 121.867 104.973 121.867 103.76V98.86H120.167V97.08H121.867L122.127 94.56H123.987V97.08H126.787V98.86H123.987V103.76C123.987 104.307 124.1 104.687 124.327 104.9C124.567 105.1 124.974 105.2 125.547 105.2H126.687V107H125.047ZM133.359 107.24C132.386 107.24 131.519 107.027 130.759 106.6C130.012 106.16 129.426 105.553 128.999 104.78C128.572 104.007 128.359 103.107 128.359 102.08C128.359 101.04 128.566 100.127 128.979 99.34C129.406 98.5533 129.992 97.94 130.739 97.5C131.499 97.06 132.379 96.84 133.379 96.84C134.352 96.84 135.199 97.06 135.919 97.5C136.639 97.9267 137.199 98.5 137.599 99.22C137.999 99.94 138.199 100.733 138.199 101.6C138.199 101.733 138.192 101.88 138.179 102.04C138.179 102.187 138.172 102.353 138.159 102.54H130.439C130.506 103.5 130.819 104.233 131.379 104.74C131.952 105.233 132.612 105.48 133.359 105.48C133.959 105.48 134.459 105.347 134.859 105.08C135.272 104.8 135.579 104.427 135.779 103.96H137.899C137.632 104.893 137.099 105.673 136.299 106.3C135.512 106.927 134.532 107.24 133.359 107.24ZM133.359 98.58C132.652 98.58 132.026 98.7933 131.479 99.22C130.932 99.6333 130.599 100.26 130.479 101.1H136.079C136.039 100.327 135.766 99.7133 135.259 99.26C134.752 98.8067 134.119 98.58 133.359 98.58ZM144.919 107.24C143.959 107.24 143.112 107.013 142.379 106.56C141.645 106.107 141.072 105.487 140.659 104.7C140.245 103.913 140.039 103.02 140.039 102.02C140.039 101.02 140.245 100.133 140.659 99.36C141.072 98.5733 141.645 97.96 142.379 97.52C143.125 97.0667 143.979 96.84 144.939 96.84C145.725 96.84 146.412 96.9933 146.999 97.3C147.599 97.6067 148.065 98.04 148.399 98.6V92.6H150.519V107H148.619L148.399 105.46C148.079 105.927 147.639 106.34 147.079 106.7C146.519 107.06 145.799 107.24 144.919 107.24ZM145.299 105.4C146.205 105.4 146.945 105.087 147.519 104.46C148.105 103.833 148.399 103.027 148.399 102.04C148.399 101.04 148.105 100.233 147.519 99.62C146.945 98.9933 146.205 98.68 145.299 98.68C144.392 98.68 143.645 98.9933 143.059 99.62C142.472 100.233 142.179 101.04 142.179 102.04C142.179 102.693 142.312 103.273 142.579 103.78C142.845 104.287 143.212 104.687 143.679 104.98C144.159 105.26 144.699 105.4 145.299 105.4ZM47.9102 130V116H53.1902C54.6436 116 55.7436 116.34 56.4902 117.02C57.2369 117.7 57.6102 118.553 57.6102 119.58C57.6102 120.473 57.3702 121.187 56.8902 121.72C56.4102 122.24 55.8302 122.593 55.1502 122.78C55.6836 122.887 56.1569 123.1 56.5702 123.42C56.9969 123.74 57.3302 124.14 57.5702 124.62C57.8102 125.1 57.9302 125.62 57.9302 126.18C57.9302 126.9 57.7502 127.553 57.3902 128.14C57.0436 128.713 56.5302 129.167 55.8502 129.5C55.1702 129.833 54.3369 130 53.3502 130H47.9102ZM50.0302 122H52.9302C53.7436 122 54.3636 121.813 54.7902 121.44C55.2169 121.053 55.4302 120.527 55.4302 119.86C55.4302 119.207 55.2169 118.687 54.7902 118.3C54.3769 117.913 53.7436 117.72 52.8902 117.72H50.0302V122ZM50.0302 128.26H53.0702C53.9236 128.26 54.5836 128.06 55.0502 127.66C55.5302 127.26 55.7702 126.7 55.7702 125.98C55.7702 125.26 55.5236 124.693 55.0302 124.28C54.5369 123.853 53.8702 123.64 53.0302 123.64H50.0302V128.26ZM60.174 130V115.6H62.294V130H60.174ZM69.6187 130.24C68.672 130.24 67.8187 130.027 67.0587 129.6C66.312 129.16 65.7187 128.553 65.2787 127.78C64.8387 126.993 64.6187 126.08 64.6187 125.04C64.6187 124 64.8387 123.093 65.2787 122.32C65.732 121.533 66.3387 120.927 67.0987 120.5C67.8587 120.06 68.7053 119.84 69.6387 119.84C70.5853 119.84 71.432 120.06 72.1787 120.5C72.9387 120.927 73.5387 121.533 73.9787 122.32C74.432 123.093 74.6587 124 74.6587 125.04C74.6587 126.08 74.432 126.993 73.9787 127.78C73.5387 128.553 72.9387 129.16 72.1787 129.6C71.4187 130.027 70.5653 130.24 69.6187 130.24ZM69.6187 128.42C70.1253 128.42 70.592 128.293 71.0187 128.04C71.4587 127.787 71.812 127.413 72.0787 126.92C72.3453 126.413 72.4787 125.787 72.4787 125.04C72.4787 124.293 72.3453 123.673 72.0787 123.18C71.8253 122.673 71.4787 122.293 71.0387 122.04C70.612 121.787 70.1453 121.66 69.6387 121.66C69.132 121.66 68.6587 121.787 68.2187 122.04C67.792 122.293 67.4453 122.673 67.1787 123.18C66.912 123.673 66.7787 124.293 66.7787 125.04C66.7787 125.787 66.912 126.413 67.1787 126.92C67.4453 127.413 67.792 127.787 68.2187 128.04C68.6453 128.293 69.112 128.42 69.6187 128.42ZM81.6513 130.24C80.678 130.24 79.8047 130.02 79.0313 129.58C78.2713 129.14 77.6713 128.533 77.2313 127.76C76.8047 126.973 76.5913 126.067 76.5913 125.04C76.5913 124.013 76.8047 123.113 77.2313 122.34C77.6713 121.553 78.2713 120.94 79.0313 120.5C79.8047 120.06 80.678 119.84 81.6513 119.84C82.878 119.84 83.9047 120.16 84.7313 120.8C85.5713 121.44 86.1113 122.307 86.3513 123.4H84.1313C83.998 122.853 83.7047 122.427 83.2513 122.12C82.798 121.813 82.2647 121.66 81.6513 121.66C81.1313 121.66 80.6513 121.793 80.2113 122.06C79.7713 122.313 79.418 122.693 79.1513 123.2C78.8847 123.693 78.7513 124.307 78.7513 125.04C78.7513 125.773 78.8847 126.393 79.1513 126.9C79.418 127.393 79.7713 127.773 80.2113 128.04C80.6513 128.307 81.1313 128.44 81.6513 128.44C82.2647 128.44 82.798 128.287 83.2513 127.98C83.7047 127.673 83.998 127.24 84.1313 126.68H86.3513C86.1247 127.747 85.5913 128.607 84.7513 129.26C83.9113 129.913 82.878 130.24 81.6513 130.24ZM88.6505 130V115.6H90.7705V124.18L94.5705 120.08H97.1105L92.8905 124.58L97.7305 130H95.0505L90.7705 124.92V130H88.6505ZM104.492 130V116H106.612V130H104.492ZM109.373 130V120.08H111.253L111.413 121.82C111.72 121.207 112.167 120.727 112.753 120.38C113.353 120.02 114.04 119.84 114.813 119.84C116.013 119.84 116.953 120.213 117.633 120.96C118.327 121.707 118.673 122.82 118.673 124.3V130H116.573V124.52C116.573 122.6 115.787 121.64 114.213 121.64C113.427 121.64 112.773 121.92 112.253 122.48C111.747 123.04 111.493 123.84 111.493 124.88V130H109.373ZM125.69 130.24C124.73 130.24 123.883 130.013 123.15 129.56C122.417 129.107 121.843 128.487 121.43 127.7C121.017 126.913 120.81 126.02 120.81 125.02C120.81 124.02 121.017 123.133 121.43 122.36C121.843 121.573 122.417 120.96 123.15 120.52C123.897 120.067 124.75 119.84 125.71 119.84C126.497 119.84 127.183 119.993 127.77 120.3C128.37 120.607 128.837 121.04 129.17 121.6V115.6H131.29V130H129.39L129.17 128.46C128.85 128.927 128.41 129.34 127.85 129.7C127.29 130.06 126.57 130.24 125.69 130.24ZM126.07 128.4C126.977 128.4 127.717 128.087 128.29 127.46C128.877 126.833 129.17 126.027 129.17 125.04C129.17 124.04 128.877 123.233 128.29 122.62C127.717 121.993 126.977 121.68 126.07 121.68C125.163 121.68 124.417 121.993 123.83 122.62C123.243 123.233 122.95 124.04 122.95 125.04C122.95 125.693 123.083 126.273 123.35 126.78C123.617 127.287 123.983 127.687 124.45 127.98C124.93 128.26 125.47 128.4 126.07 128.4ZM137.623 130.24C136.423 130.24 135.476 129.867 134.783 129.12C134.103 128.373 133.763 127.26 133.763 125.78V120.08H135.883V125.56C135.883 127.48 136.67 128.44 138.243 128.44C139.03 128.44 139.676 128.16 140.183 127.6C140.69 127.04 140.943 126.24 140.943 125.2V120.08H143.063V130H141.183L141.023 128.26C140.716 128.873 140.263 129.36 139.663 129.72C139.076 130.067 138.396 130.24 137.623 130.24ZM149.72 130.24C148.467 130.24 147.433 129.933 146.62 129.32C145.807 128.707 145.34 127.893 145.22 126.88H147.36C147.467 127.333 147.72 127.727 148.12 128.06C148.52 128.38 149.047 128.54 149.7 128.54C150.34 128.54 150.807 128.407 151.1 128.14C151.393 127.873 151.54 127.567 151.54 127.22C151.54 126.713 151.333 126.373 150.92 126.2C150.52 126.013 149.96 125.847 149.24 125.7C148.68 125.58 148.12 125.42 147.56 125.22C147.013 125.02 146.553 124.74 146.18 124.38C145.82 124.007 145.64 123.507 145.64 122.88C145.64 122.013 145.973 121.293 146.64 120.72C147.307 120.133 148.24 119.84 149.44 119.84C150.547 119.84 151.44 120.107 152.12 120.64C152.813 121.173 153.22 121.927 153.34 122.9H151.3C151.233 122.473 151.033 122.14 150.7 121.9C150.38 121.66 149.947 121.54 149.4 121.54C148.867 121.54 148.453 121.653 148.16 121.88C147.867 122.093 147.72 122.373 147.72 122.72C147.72 123.067 147.92 123.34 148.32 123.54C148.733 123.74 149.273 123.92 149.94 124.08C150.607 124.227 151.22 124.4 151.78 124.6C152.353 124.787 152.813 125.067 153.16 125.44C153.507 125.813 153.68 126.36 153.68 127.08C153.693 127.987 153.34 128.74 152.62 129.34C151.913 129.94 150.947 130.24 149.72 130.24ZM159.783 130C158.81 130 158.037 129.767 157.463 129.3C156.89 128.82 156.603 127.973 156.603 126.76V121.86H154.903V120.08H156.603L156.863 117.56H158.723V120.08H161.523V121.86H158.723V126.76C158.723 127.307 158.837 127.687 159.063 127.9C159.303 128.1 159.71 128.2 160.283 128.2H161.423V130H159.783ZM163.709 130V120.08H165.609L165.789 121.96C166.136 121.307 166.616 120.793 167.229 120.42C167.856 120.033 168.609 119.84 169.489 119.84V122.06H168.909C168.322 122.06 167.796 122.16 167.329 122.36C166.876 122.547 166.509 122.873 166.229 123.34C165.962 123.793 165.829 124.427 165.829 125.24V130H163.709ZM172.467 134.4L174.847 129.18H174.267L170.347 120.08H172.647L175.687 127.42L178.867 120.08H181.107L174.707 134.4H172.467Z" fill="white"/>
<defs>
<radialGradient id="paint0_radial_2209_11853" cx="0" cy="0" r="1" gradientUnits="userSpaceOnUse" gradientTransform="translate(112.5 112.5) rotate(90) scale(103.5)">
<stop stop-color="#F24F7A"/>
<stop offset="1" stop-color="#DB1F51"/>
</radialGradient>
</defs>
</svg>
