<svg width="19" height="19" viewBox="0 0 19 19" fill="none" xmlns="http://www.w3.org/2000/svg">
<path d="M15.1871 2.3537C13.6693 0.83589 11.6513 0 9.5048 0C7.35832 0 5.34023 0.83589 3.82245 2.3537C2.30464 3.87155 1.46875 5.88957 1.46875 8.03601C1.46875 12.3783 5.57447 15.9899 7.78021 17.9302C8.08674 18.1999 8.35144 18.4327 8.56233 18.6297C8.82655 18.8765 9.1657 19 9.50476 19C9.84391 19 10.183 18.8765 10.4472 18.6297C10.6581 18.4327 10.9228 18.1999 11.2294 17.9302C13.4351 15.9899 17.5408 12.3783 17.5408 8.03601C17.5408 5.88957 16.7049 3.87155 15.1871 2.3537ZM10.4942 17.0946C10.181 17.3702 9.91048 17.6081 9.68745 17.8164C9.585 17.9121 9.42453 17.9121 9.32204 17.8164C9.09905 17.6081 8.82852 17.3701 8.51528 17.0946C6.4416 15.2705 2.58166 11.875 2.58166 8.03605C2.58166 4.21868 5.68731 1.11302 9.50473 1.11302C13.3221 1.11302 16.4278 4.21868 16.4278 8.03605C16.4278 11.875 12.5679 15.2705 10.4942 17.0946Z" fill="#2A2A2A"/>
<path d="M9.50233 4.19141C7.54959 4.19141 5.96094 5.78002 5.96094 7.73276C5.96094 9.6855 7.54959 11.2741 9.50233 11.2741C11.4551 11.2741 13.0437 9.6855 13.0437 7.73276C13.0437 5.78002 11.4551 4.19141 9.50233 4.19141ZM9.50233 10.1611C8.16331 10.1611 7.07392 9.07171 7.07392 7.73272C7.07392 6.39374 8.16331 5.30436 9.50233 5.30436C10.8413 5.30436 11.9307 6.39374 11.9307 7.73272C11.9307 9.07171 10.8413 10.1611 9.50233 10.1611Z" fill="#2A2A2A"/>
</svg>
