<svg width="69" height="34" viewBox="0 0 69 34" fill="none" xmlns="http://www.w3.org/2000/svg">
<path fill-rule="evenodd" clip-rule="evenodd" d="M4.06185 0H11.7228L8.19735 13.1574C7.68287 15.0769 7.74044 16.4991 8.37498 17.424C9.00951 18.3488 10.2492 18.8094 12.083 18.8094C13.9167 18.8094 15.3475 18.339 16.4867 17.3983C17.6247 16.4624 18.4479 15.0463 18.9538 13.1586L22.4793 0.00122617H29.921L26.4212 13.0631C25.456 16.667 23.7018 19.3019 21.1612 20.9813C18.617 22.6546 15.0829 23.4937 10.5652 23.4937C6.04753 23.4937 3.04023 22.6656 1.46124 21.0131C-0.115297 19.3558 -0.41664 16.7098 0.559661 13.0631L4.0594 0.00122617L4.06185 0Z" fill="#00407C"/>
<path fill-rule="evenodd" clip-rule="evenodd" d="M29.4609 9.85611L41.4424 0H50.9322L39.0647 9.91246L46.2124 23.1029H36.4396L29.4609 9.85611Z" fill="#EB1B57"/>
<path fill-rule="evenodd" clip-rule="evenodd" d="M68.9988 18.061L67.6476 23.1029H47.6953L53.8851 0H61.7825L56.9426 18.061H68.9988Z" fill="#00407C"/>
<path d="M0.141849 32.0669L1.75759 27.6484H2.72286L4.33247 32.0669H3.42967L2.23655 28.6211L1.0373 32.0669H0.140625H0.141849ZM0.854783 31.0637L1.0814 30.4009H3.328L3.54849 31.0637H0.853557H0.854783Z" fill="#231F20"/>
<path d="M6.39844 32.0669V27.6484H7.25102L9.28324 30.6962V27.6484H10.1358V32.0669H9.28324L7.25102 29.0253V32.0669H6.39844Z" fill="#231F20"/>
<path d="M12.503 32.1444C12.1833 32.1444 11.9003 32.0758 11.6541 31.9398C11.4079 31.8026 11.2168 31.6116 11.0796 31.3653C10.9424 31.1191 10.875 30.8337 10.875 30.5103C10.875 30.1869 10.9424 29.8843 11.0771 29.6296C11.2119 29.3748 11.4017 29.1751 11.648 29.0305C11.8942 28.8848 12.1796 28.8125 12.503 28.8125C12.8264 28.8125 13.0946 28.8823 13.3298 29.0207C13.565 29.1592 13.7488 29.3466 13.8786 29.5818C14.0085 29.817 14.0746 30.084 14.0746 30.3829V30.525C14.0746 30.5777 14.0709 30.6316 14.0624 30.6855H11.4814V30.1685H13.2171C13.2049 29.9627 13.1314 29.7998 12.9991 29.6822C12.8668 29.5646 12.7014 29.5058 12.5042 29.5058C12.3609 29.5058 12.2286 29.5389 12.1061 29.6038C11.9836 29.6687 11.888 29.7692 11.8195 29.9039C11.7496 30.0387 11.7153 30.209 11.7153 30.4148V30.5973C11.7153 30.77 11.7484 30.9207 11.8133 31.0481C11.8782 31.1767 11.9701 31.2759 12.0877 31.3445C12.2053 31.4143 12.3425 31.4486 12.4981 31.4486C12.6537 31.4486 12.7835 31.4156 12.8864 31.3482C12.9893 31.2808 13.0665 31.1951 13.1167 31.0897H13.9876C13.9288 31.2882 13.8296 31.467 13.6912 31.6263C13.5528 31.7867 13.3825 31.9129 13.1804 32.0048C12.9783 32.0979 12.7529 32.1432 12.5054 32.1432L12.503 32.1444Z" fill="#231F20"/>
<path d="M16.1693 32.0676C15.9464 32.0676 15.7516 32.0333 15.585 31.9634C15.4184 31.8936 15.2898 31.7785 15.1967 31.6168C15.1036 31.4551 15.0583 31.2334 15.0583 30.9504V29.5992H14.5156V28.8863H15.0583L15.1526 28.0215H15.9096V28.8863H16.7487V29.5992H15.9096V30.9626C15.9096 31.106 15.9415 31.2052 16.004 31.2591C16.0664 31.313 16.1742 31.3412 16.3261 31.3412H16.7426V32.0663H16.1681L16.1693 32.0676Z" fill="#231F20"/>
<path d="M18.9092 32.1444C18.5895 32.1444 18.3065 32.0758 18.0603 31.9398C17.8141 31.8026 17.623 31.6116 17.4858 31.3653C17.3486 31.1191 17.2812 30.8337 17.2812 30.5103C17.2812 30.1869 17.3486 29.8843 17.4834 29.6296C17.6181 29.3748 17.808 29.1751 18.0542 29.0305C18.3004 28.8848 18.5858 28.8125 18.9092 28.8125C19.2326 28.8125 19.5009 28.8823 19.7361 29.0207C19.9713 29.1592 20.155 29.3466 20.2849 29.5818C20.4147 29.817 20.4809 30.084 20.4809 30.3829V30.525C20.4809 30.5777 20.4772 30.6316 20.4686 30.6855H17.8876V30.1685H19.6234C19.6111 29.9627 19.5376 29.7998 19.4053 29.6822C19.2731 29.5646 19.1077 29.5058 18.9105 29.5058C18.7671 29.5058 18.6348 29.5389 18.5123 29.6038C18.3898 29.6687 18.2943 29.7692 18.2257 29.9039C18.1559 30.0387 18.1216 30.209 18.1216 30.4148V30.5973C18.1216 30.77 18.1547 30.9207 18.2196 31.0481C18.2845 31.1767 18.3764 31.2759 18.494 31.3445C18.6116 31.4143 18.7488 31.4486 18.9043 31.4486C19.0599 31.4486 19.1898 31.4156 19.2926 31.3482C19.3955 31.2808 19.4727 31.1951 19.5229 31.0897H20.3939C20.3351 31.2882 20.2359 31.467 20.0975 31.6263C19.959 31.7867 19.7888 31.9129 19.5866 32.0048C19.3845 32.0979 19.1591 32.1432 18.9117 32.1432L18.9092 32.1444Z" fill="#231F20"/>
<path d="M21.1848 32.0677V28.8865H21.9419L22.0239 29.4733C22.0999 29.3348 22.1954 29.2172 22.3106 29.1205C22.4257 29.0237 22.5592 28.9477 22.7087 28.8926C22.8581 28.8375 23.0235 28.8105 23.2036 28.8105V29.7133H22.9133C22.7871 29.7133 22.6707 29.728 22.5629 29.7574C22.4551 29.7868 22.362 29.8346 22.2824 29.8995C22.2028 29.9645 22.1415 30.0539 22.0999 30.1678C22.0582 30.2817 22.0362 30.4238 22.0362 30.5966V32.0665H21.1836L21.1848 32.0677Z" fill="#231F20"/>
<path d="M24.3905 32.068L23.457 28.8867H24.2961L24.9147 31.4677L24.7567 31.4616L25.4635 28.8867H26.4104L27.1172 31.4616L26.9531 31.4677L27.5778 28.8867H28.4169L27.4823 32.068H26.5991L25.8482 29.4171H26.0246L25.2737 32.068H24.3905Z" fill="#231F20"/>
<path d="M29.8488 32.1444C29.5842 32.1444 29.3649 32.1015 29.1922 32.0146C29.0195 31.9288 28.8921 31.8125 28.81 31.6679C28.7279 31.5221 28.6875 31.3617 28.6875 31.1853C28.6875 30.9917 28.7365 30.8215 28.8357 30.6745C28.9349 30.5275 29.0844 30.4111 29.2841 30.3278C29.4837 30.2433 29.7348 30.2016 30.0386 30.2016H30.8275C30.8275 30.046 30.8067 29.9162 30.7638 29.8133C30.7222 29.7104 30.656 29.6332 30.5678 29.583C30.4796 29.5328 30.362 29.5071 30.2138 29.5071C30.0533 29.5071 29.9186 29.5414 29.8071 29.6112C29.6956 29.681 29.6271 29.7864 29.6026 29.9297H28.7757C28.7965 29.7018 28.8712 29.5058 28.9999 29.3392C29.1285 29.1726 29.2988 29.044 29.5107 28.9509C29.7226 28.859 29.9602 28.8125 30.2212 28.8125C30.5201 28.8125 30.7785 28.8627 30.9978 28.9644C31.2171 29.0648 31.3849 29.2106 31.5025 29.3993C31.6201 29.5891 31.6789 29.8219 31.6789 30.0999V32.0697H30.9598L30.8655 31.5834C30.8189 31.6679 30.7651 31.7439 30.7014 31.81C30.6377 31.8774 30.5642 31.9362 30.4809 31.9864C30.3963 32.0366 30.302 32.0758 30.1967 32.1028C30.0913 32.1297 29.9762 32.1432 29.85 32.1432L29.8488 32.1444ZM30.0497 31.4878C30.1587 31.4878 30.2567 31.4682 30.3437 31.4278C30.4294 31.3874 30.5041 31.3335 30.5678 31.2637C30.6315 31.1938 30.6805 31.1142 30.7161 31.0236C30.7516 30.9329 30.7761 30.8349 30.7883 30.7296V30.7235H30.1379C30.008 30.7235 29.9014 30.7394 29.8194 30.7712C29.7373 30.8031 29.6773 30.8484 29.6393 30.9072C29.6013 30.966 29.583 31.0334 29.583 31.1093C29.583 31.1938 29.6013 31.2624 29.6393 31.3176C29.6773 31.3727 29.7324 31.4143 29.8034 31.4437C29.8745 31.4731 29.9566 31.4878 30.0497 31.4878Z" fill="#231F20"/>
<path d="M32.4766 32.0681V27.5234H33.3291V32.0681H32.4766Z" fill="#231F20"/>
<path d="M35.2316 32.1444C34.967 32.1444 34.7477 32.1015 34.575 32.0146C34.4023 31.9288 34.2749 31.8125 34.1928 31.6679C34.1107 31.5221 34.0703 31.3617 34.0703 31.1853C34.0703 30.9917 34.1193 30.8215 34.2185 30.6745C34.3178 30.5275 34.4672 30.4111 34.6669 30.3278C34.8665 30.2433 35.1177 30.2016 35.4215 30.2016H36.2103C36.2103 30.046 36.1895 29.9162 36.1466 29.8133C36.105 29.7104 36.0388 29.6332 35.9506 29.583C35.8624 29.5328 35.7448 29.5071 35.5966 29.5071C35.4362 29.5071 35.3014 29.5414 35.1899 29.6112C35.0785 29.681 35.0099 29.7864 34.9854 29.9297H34.1585C34.1793 29.7018 34.2541 29.5058 34.3827 29.3392C34.5113 29.1726 34.6816 29.044 34.8935 28.9509C35.1054 28.859 35.3431 28.8125 35.604 28.8125C35.9029 28.8125 36.1613 28.8627 36.3806 28.9644C36.5999 29.0661 36.7677 29.2106 36.8853 29.3993C37.0029 29.5891 37.0617 29.8219 37.0617 30.0999V32.0697H36.3426L36.2483 31.5834C36.2018 31.6679 36.1479 31.7439 36.0842 31.81C36.0217 31.8774 35.947 31.9362 35.8637 31.9864C35.7791 32.0366 35.6848 32.0758 35.5795 32.1028C35.4741 32.1297 35.359 32.1432 35.2328 32.1432L35.2316 32.1444ZM35.4337 31.4878C35.5427 31.4878 35.6407 31.4682 35.7277 31.4278C35.8134 31.3874 35.8882 31.3335 35.9519 31.2637C36.0143 31.1938 36.0646 31.1142 36.1001 31.0236C36.1356 30.9329 36.1601 30.8349 36.1724 30.7296V30.7235H35.5219C35.3908 30.7235 35.2855 30.7394 35.2034 30.7712C35.1213 30.8031 35.0613 30.8484 35.0233 30.9072C34.9854 30.966 34.967 31.0334 34.967 31.1093C34.967 31.1938 34.9854 31.2624 35.0233 31.3176C35.0613 31.3727 35.1152 31.4143 35.1875 31.4437C35.2585 31.4731 35.3406 31.4878 35.4337 31.4878Z" fill="#231F20"/>
<path d="M41.3 32.1441C40.8798 32.1441 40.5135 32.051 40.2024 31.8636C39.8913 31.6761 39.6487 31.414 39.4772 31.0747C39.3045 30.7366 39.2188 30.3422 39.2188 29.8914C39.2188 29.4406 39.307 29.0363 39.4833 28.6897C39.6597 28.343 39.9145 28.0698 40.2465 27.8726C40.5785 27.6754 40.9766 27.5762 41.4396 27.5762C41.9566 27.5762 42.3877 27.6999 42.7307 27.9486C43.0737 28.1972 43.2955 28.5414 43.3971 28.9837H42.4441C42.3804 28.7901 42.264 28.637 42.0938 28.5255C41.9235 28.4141 41.703 28.3577 41.4347 28.3577C41.1481 28.3577 40.9043 28.4202 40.7022 28.5476C40.5001 28.6737 40.347 28.8501 40.2416 29.078C40.1363 29.3058 40.0836 29.5766 40.0836 29.8926C40.0836 30.2086 40.1363 30.4843 40.2416 30.7072C40.347 30.9301 40.4976 31.0992 40.6924 31.2156C40.8884 31.3319 41.1187 31.3895 41.3833 31.3895C41.7704 31.3895 42.0644 31.2854 42.264 31.0771C42.4637 30.8689 42.5825 30.5982 42.6205 30.2662H41.5352V29.6292H43.4792V32.0718H42.6903L42.6278 31.5096C42.5347 31.648 42.4269 31.7656 42.3032 31.8599C42.1795 31.9542 42.035 32.0265 41.8708 32.0743C41.7067 32.122 41.5168 32.1465 41.3024 32.1465L41.3 32.1441Z" fill="#231F20"/>
<path d="M44.2539 32.0677V28.8865H45.0109L45.093 29.4733C45.169 29.3348 45.2645 29.2172 45.3797 29.1205C45.4948 29.0237 45.6283 28.9477 45.7778 28.8926C45.9272 28.8375 46.0926 28.8105 46.2727 28.8105V29.7133H45.9823C45.8562 29.7133 45.7398 29.728 45.632 29.7574C45.5242 29.7868 45.4311 29.8346 45.3515 29.8995C45.2719 29.9645 45.2106 30.0539 45.169 30.1678C45.1273 30.2817 45.1065 30.4238 45.1065 30.5966V32.0665H44.2539V32.0677Z" fill="#231F20"/>
<path d="M48.2832 32.1437C47.9806 32.1437 47.7074 32.0726 47.4661 31.9318C47.2248 31.7909 47.0325 31.5949 46.8916 31.345C46.7507 31.0951 46.6797 30.8072 46.6797 30.4839C46.6797 30.1605 46.7507 29.8603 46.8916 29.6092C47.0325 29.3593 47.2248 29.1633 47.4686 29.0225C47.7123 28.8816 47.9855 28.8105 48.2893 28.8105C48.5931 28.8105 48.8712 28.8816 49.1125 29.0225C49.355 29.1633 49.5461 29.3593 49.687 29.6092C49.8279 29.8591 49.8989 30.1494 49.8989 30.4765C49.8989 30.8036 49.8279 31.0939 49.687 31.3438C49.5461 31.5937 49.3538 31.7897 49.11 31.9305C48.8663 32.0714 48.5906 32.1425 48.2832 32.1425V32.1437ZM48.2832 31.405C48.4265 31.405 48.5539 31.372 48.6654 31.3046C48.7768 31.2372 48.865 31.1343 48.93 30.9959C48.9949 30.8575 49.028 30.6848 49.028 30.479C49.028 30.2732 48.9949 30.1017 48.93 29.9645C48.865 29.8273 48.7768 29.7244 48.6654 29.6558C48.5539 29.586 48.4289 29.5517 48.2893 29.5517C48.1497 29.5517 48.0308 29.586 47.9169 29.6558C47.803 29.7256 47.7136 29.8285 47.6486 29.9645C47.5837 30.1004 47.5506 30.2732 47.5506 30.479C47.5506 30.6848 47.5837 30.8575 47.6486 30.9959C47.7136 31.1343 47.8018 31.2384 47.9132 31.3046C48.0247 31.372 48.1484 31.405 48.282 31.405H48.2832Z" fill="#231F20"/>
<path d="M51.8175 32.1439C51.5603 32.1439 51.341 32.09 51.1585 31.9834C50.9759 31.8769 50.8351 31.7188 50.7383 31.5106C50.6415 31.3024 50.5938 31.0451 50.5938 30.7376V28.8879H51.4463V30.6482C51.4463 30.9055 51.5002 31.099 51.6068 31.2289C51.7146 31.3599 51.8787 31.4249 52.1017 31.4249C52.245 31.4249 52.3712 31.3918 52.4802 31.3269C52.5892 31.2619 52.6774 31.1676 52.7423 31.0427C52.8073 30.9189 52.8403 30.7658 52.8403 30.5845V28.8867H53.6856V32.068H52.9408L52.871 31.551C52.7779 31.7323 52.6419 31.8757 52.4606 31.9834C52.2793 32.0912 52.0649 32.1439 51.8175 32.1439Z" fill="#231F20"/>
<path d="M54.5208 33.4576V28.8884H55.2778L55.3721 29.3307C55.4395 29.2376 55.5191 29.153 55.6122 29.0746C55.7053 28.9975 55.8156 28.9338 55.9442 28.8848C56.0728 28.837 56.2235 28.8125 56.395 28.8125C56.6939 28.8125 56.9572 28.886 57.1838 29.033C57.4117 29.18 57.5905 29.3797 57.7241 29.6296C57.8564 29.8794 57.9225 30.1649 57.9225 30.4846C57.9225 30.8043 57.8551 31.0897 57.7204 31.3396C57.5856 31.5895 57.4043 31.7867 57.1777 31.9301C56.9499 32.0734 56.6914 32.1444 56.4011 32.1444C56.1659 32.1444 55.9625 32.1015 55.7923 32.0146C55.622 31.9288 55.4824 31.81 55.3721 31.6581V33.4564H54.5195L54.5208 33.4576ZM56.199 31.3996C56.3668 31.3996 56.515 31.3617 56.6436 31.2857C56.7723 31.2098 56.8715 31.1032 56.9438 30.9635C57.0148 30.8251 57.0516 30.6647 57.0516 30.4834C57.0516 30.3021 57.016 30.1416 56.9438 30.0007C56.8715 29.8599 56.7723 29.7508 56.6436 29.6724C56.515 29.5953 56.3668 29.5561 56.199 29.5561C56.0311 29.5561 55.889 29.5953 55.7604 29.6724C55.6318 29.7508 55.5314 29.8586 55.4579 29.997C55.3844 30.1355 55.3476 30.2959 55.3476 30.4772C55.3476 30.6585 55.3844 30.819 55.4579 30.9599C55.5314 31.1007 55.6318 31.2098 55.7604 31.2845C55.889 31.3592 56.0348 31.3984 56.199 31.3984V31.3996Z" fill="#231F20"/>
<path d="M61.3395 32.1443C61.0528 32.1443 60.8017 32.0892 60.5849 31.9802C60.3681 31.8711 60.2015 31.7094 60.0826 31.4975C59.965 31.2856 59.9062 31.0271 59.9062 30.7246H60.7588C60.7588 30.8593 60.7784 30.9757 60.8189 31.0749C60.8593 31.1741 60.9193 31.2501 61.0014 31.3028C61.0834 31.3554 61.19 31.3812 61.3199 31.3812C61.4497 31.3812 61.5477 31.3567 61.6261 31.3089C61.7033 31.2611 61.7609 31.1913 61.7964 31.1006C61.8319 31.01 61.8503 30.9022 61.8503 30.776V27.6523H62.7029V30.776C62.7029 31.2182 62.5804 31.5563 62.3341 31.7927C62.0879 32.0279 61.7572 32.1455 61.3395 32.1455V32.1443Z" fill="#231F20"/>
<path d="M64.8401 32.0669L63.2305 27.6484H64.1394L65.3644 31.1959L66.5955 27.6484H67.4983L65.8886 32.0669H64.8413H64.8401Z" fill="#231F20"/>
</svg>
