<svg width="226" height="226" viewBox="0 0 226 226" fill="none" xmlns="http://www.w3.org/2000/svg">
<circle cx="113" cy="113" r="108" stroke="#FFAEC3" stroke-width="10"/>
<circle cx="112.5" cy="112.5" r="103.5" fill="url(#paint0_radial_2209_11853)"/>
<path d="M57 25L87 72" stroke="white"/>
<path d="M137 153L167 200" stroke="white"/>
<path d="M58.0441 119.24C56.6574 119.24 55.4441 118.933 54.4041 118.32C53.3641 117.707 52.5507 116.86 51.9641 115.78C51.3774 114.687 51.0841 113.427 51.0841 112C51.0841 110.573 51.3774 109.32 51.9641 108.24C52.5507 107.147 53.3641 106.293 54.4041 105.68C55.4441 105.067 56.6574 104.76 58.0441 104.76C59.4307 104.76 60.6441 105.067 61.6841 105.68C62.7241 106.293 63.5307 107.147 64.1041 108.24C64.6907 109.32 64.9841 110.573 64.9841 112C64.9841 113.427 64.6907 114.687 64.1041 115.78C63.5307 116.86 62.7241 117.707 61.6841 118.32C60.6441 118.933 59.4307 119.24 58.0441 119.24ZM58.0441 117.34C59.0041 117.34 59.8374 117.127 60.5441 116.7C61.2641 116.273 61.8241 115.66 62.2241 114.86C62.6241 114.06 62.8241 113.107 62.8241 112C62.8241 110.893 62.6241 109.94 62.2241 109.14C61.8241 108.34 61.2641 107.727 60.5441 107.3C59.8374 106.873 59.0041 106.66 58.0441 106.66C57.0841 106.66 56.2441 106.873 55.5241 107.3C54.8041 107.727 54.2441 108.34 53.8441 109.14C53.4574 109.94 53.2641 110.893 53.2641 112C53.2641 113.107 53.4574 114.06 53.8441 114.86C54.2441 115.66 54.8041 116.273 55.5241 116.7C56.2441 117.127 57.0841 117.34 58.0441 117.34ZM68.4658 107.2C68.0658 107.2 67.7324 107.08 67.4658 106.84C67.2124 106.587 67.0858 106.273 67.0858 105.9C67.0858 105.527 67.2124 105.22 67.4658 104.98C67.7324 104.727 68.0658 104.6 68.4658 104.6C68.8658 104.6 69.1924 104.727 69.4458 104.98C69.7124 105.22 69.8458 105.527 69.8458 105.9C69.8458 106.273 69.7124 106.587 69.4458 106.84C69.1924 107.08 68.8658 107.2 68.4658 107.2ZM67.4058 119V109.08H69.5258V119H67.4058ZM72.3244 119V104.6H74.4444V119H72.3244ZM82.2481 119V105H87.0681C88.1748 105 89.0815 105.187 89.7881 105.56C90.5081 105.933 91.0415 106.44 91.3881 107.08C91.7348 107.707 91.9081 108.407 91.9081 109.18C91.9081 110.047 91.6748 110.833 91.2081 111.54C90.7548 112.247 90.0415 112.753 89.0681 113.06L92.0481 119H89.5881L86.8681 113.36H84.3681V119H82.2481ZM84.3681 111.76H86.9481C87.9081 111.76 88.6081 111.527 89.0481 111.06C89.5015 110.593 89.7281 109.987 89.7281 109.24C89.7281 108.493 89.5081 107.9 89.0681 107.46C88.6281 107.007 87.9148 106.78 86.9281 106.78H84.3681V111.76ZM98.3706 119.24C97.3973 119.24 96.5306 119.027 95.7706 118.6C95.024 118.16 94.4373 117.553 94.0106 116.78C93.584 116.007 93.3706 115.107 93.3706 114.08C93.3706 113.04 93.5773 112.127 93.9906 111.34C94.4173 110.553 95.004 109.94 95.7506 109.5C96.5106 109.06 97.3906 108.84 98.3906 108.84C99.364 108.84 100.211 109.06 100.931 109.5C101.651 109.927 102.211 110.5 102.611 111.22C103.011 111.94 103.211 112.733 103.211 113.6C103.211 113.733 103.204 113.88 103.191 114.04C103.191 114.187 103.184 114.353 103.171 114.54H95.4506C95.5173 115.5 95.8306 116.233 96.3906 116.74C96.964 117.233 97.624 117.48 98.3706 117.48C98.9706 117.48 99.4706 117.347 99.8706 117.08C100.284 116.8 100.591 116.427 100.791 115.96H102.911C102.644 116.893 102.111 117.673 101.311 118.3C100.524 118.927 99.544 119.24 98.3706 119.24ZM98.3706 110.58C97.664 110.58 97.0373 110.793 96.4906 111.22C95.944 111.633 95.6106 112.26 95.4906 113.1H101.091C101.051 112.327 100.777 111.713 100.271 111.26C99.764 110.807 99.1306 110.58 98.3706 110.58ZM105.91 119V110.86H104.49V109.08H105.91V107.64C105.91 106.56 106.177 105.787 106.71 105.32C107.257 104.84 108.024 104.6 109.01 104.6H110.05V106.4H109.33C108.864 106.4 108.53 106.5 108.33 106.7C108.13 106.887 108.03 107.207 108.03 107.66V109.08H114.31V119H112.19V110.86H108.03V119H105.91ZM113.27 107.42C112.87 107.42 112.537 107.3 112.27 107.06C112.017 106.807 111.89 106.487 111.89 106.1C111.89 105.727 112.017 105.42 112.27 105.18C112.537 104.94 112.87 104.82 113.27 104.82C113.67 104.82 113.997 104.94 114.25 105.18C114.517 105.42 114.65 105.727 114.65 106.1C114.65 106.487 114.517 106.807 114.25 107.06C113.997 107.3 113.67 107.42 113.27 107.42ZM117.129 119V109.08H119.009L119.169 110.82C119.476 110.207 119.922 109.727 120.509 109.38C121.109 109.02 121.796 108.84 122.569 108.84C123.769 108.84 124.709 109.213 125.389 109.96C126.082 110.707 126.429 111.82 126.429 113.3V119H124.329V113.52C124.329 111.6 123.542 110.64 121.969 110.64C121.182 110.64 120.529 110.92 120.009 111.48C119.502 112.04 119.249 112.84 119.249 113.88V119H117.129ZM133.566 119.24C132.593 119.24 131.726 119.027 130.966 118.6C130.219 118.16 129.633 117.553 129.206 116.78C128.779 116.007 128.566 115.107 128.566 114.08C128.566 113.04 128.773 112.127 129.186 111.34C129.613 110.553 130.199 109.94 130.946 109.5C131.706 109.06 132.586 108.84 133.586 108.84C134.559 108.84 135.406 109.06 136.126 109.5C136.846 109.927 137.406 110.5 137.806 111.22C138.206 111.94 138.406 112.733 138.406 113.6C138.406 113.733 138.399 113.88 138.386 114.04C138.386 114.187 138.379 114.353 138.366 114.54H130.646C130.713 115.5 131.026 116.233 131.586 116.74C132.159 117.233 132.819 117.48 133.566 117.48C134.166 117.48 134.666 117.347 135.066 117.08C135.479 116.8 135.786 116.427 135.986 115.96H138.106C137.839 116.893 137.306 117.673 136.506 118.3C135.719 118.927 134.739 119.24 133.566 119.24ZM133.566 110.58C132.859 110.58 132.233 110.793 131.686 111.22C131.139 111.633 130.806 112.26 130.686 113.1H136.286C136.246 112.327 135.973 111.713 135.466 111.26C134.959 110.807 134.326 110.58 133.566 110.58ZM140.606 119V109.08H142.506L142.686 110.96C143.032 110.307 143.512 109.793 144.126 109.42C144.752 109.033 145.506 108.84 146.386 108.84V111.06H145.806C145.219 111.06 144.692 111.16 144.226 111.36C143.772 111.547 143.406 111.873 143.126 112.34C142.859 112.793 142.726 113.427 142.726 114.24V119H140.606ZM149.403 107.2C149.003 107.2 148.67 107.08 148.403 106.84C148.15 106.587 148.023 106.273 148.023 105.9C148.023 105.527 148.15 105.22 148.403 104.98C148.67 104.727 149.003 104.6 149.403 104.6C149.803 104.6 150.13 104.727 150.383 104.98C150.65 105.22 150.783 105.527 150.783 105.9C150.783 106.273 150.65 106.587 150.383 106.84C150.13 107.08 149.803 107.2 149.403 107.2ZM148.343 119V109.08H150.463V119H148.343ZM157.902 119.24C156.929 119.24 156.062 119.027 155.302 118.6C154.555 118.16 153.969 117.553 153.542 116.78C153.115 116.007 152.902 115.107 152.902 114.08C152.902 113.04 153.109 112.127 153.522 111.34C153.949 110.553 154.535 109.94 155.282 109.5C156.042 109.06 156.922 108.84 157.922 108.84C158.895 108.84 159.742 109.06 160.462 109.5C161.182 109.927 161.742 110.5 162.142 111.22C162.542 111.94 162.742 112.733 162.742 113.6C162.742 113.733 162.735 113.88 162.722 114.04C162.722 114.187 162.715 114.353 162.702 114.54H154.982C155.049 115.5 155.362 116.233 155.922 116.74C156.495 117.233 157.155 117.48 157.902 117.48C158.502 117.48 159.002 117.347 159.402 117.08C159.815 116.8 160.122 116.427 160.322 115.96H162.442C162.175 116.893 161.642 117.673 160.842 118.3C160.055 118.927 159.075 119.24 157.902 119.24ZM157.902 110.58C157.195 110.58 156.569 110.793 156.022 111.22C155.475 111.633 155.142 112.26 155.022 113.1H160.622C160.582 112.327 160.309 111.713 159.802 111.26C159.295 110.807 158.662 110.58 157.902 110.58ZM168.902 119.24C167.648 119.24 166.615 118.933 165.802 118.32C164.988 117.707 164.522 116.893 164.402 115.88H166.542C166.648 116.333 166.902 116.727 167.302 117.06C167.702 117.38 168.228 117.54 168.882 117.54C169.522 117.54 169.988 117.407 170.282 117.14C170.575 116.873 170.722 116.567 170.722 116.22C170.722 115.713 170.515 115.373 170.102 115.2C169.702 115.013 169.142 114.847 168.422 114.7C167.862 114.58 167.302 114.42 166.742 114.22C166.195 114.02 165.735 113.74 165.362 113.38C165.002 113.007 164.822 112.507 164.822 111.88C164.822 111.013 165.155 110.293 165.822 109.72C166.488 109.133 167.422 108.84 168.622 108.84C169.728 108.84 170.622 109.107 171.302 109.64C171.995 110.173 172.402 110.927 172.522 111.9H170.482C170.415 111.473 170.215 111.14 169.882 110.9C169.562 110.66 169.128 110.54 168.582 110.54C168.048 110.54 167.635 110.653 167.342 110.88C167.048 111.093 166.902 111.373 166.902 111.72C166.902 112.067 167.102 112.34 167.502 112.54C167.915 112.74 168.455 112.92 169.122 113.08C169.788 113.227 170.402 113.4 170.962 113.6C171.535 113.787 171.995 114.067 172.342 114.44C172.688 114.813 172.862 115.36 172.862 116.08C172.875 116.987 172.522 117.74 171.802 118.34C171.095 118.94 170.128 119.24 168.902 119.24Z" fill="white"/>
<defs>
<radialGradient id="paint0_radial_2209_11853" cx="0" cy="0" r="1" gradientUnits="userSpaceOnUse" gradientTransform="translate(112.5 112.5) rotate(90) scale(103.5)">
<stop stop-color="#F24F7A"/>
<stop offset="1" stop-color="#DB1F51"/>
</radialGradient>
</defs>
</svg>
