<svg width="226" height="226" viewBox="0 0 226 226" fill="none" xmlns="http://www.w3.org/2000/svg">
<circle cx="113" cy="113" r="108" stroke="#FFAEC3" stroke-width="10"/>
<circle cx="112.5" cy="112.5" r="103.5" fill="url(#paint0_radial_2209_11853)"/>
<path d="M57 25L87 72" stroke="white"/>
<path d="M137 153L167 200" stroke="white"/>
<path d="M89.6446 118V104H94.5446C95.6379 104 96.5446 104.187 97.2646 104.56C97.9846 104.92 98.5179 105.42 98.8646 106.06C99.2246 106.687 99.4046 107.4 99.4046 108.2C99.4046 108.96 99.2313 109.66 98.8846 110.3C98.5513 110.927 98.0246 111.427 97.3046 111.8C96.5846 112.173 95.6646 112.36 94.5446 112.36H91.7646V118H89.6446ZM91.7646 110.62H94.4446C95.4446 110.62 96.1579 110.407 96.5846 109.98C97.0246 109.54 97.2446 108.947 97.2446 108.2C97.2446 107.427 97.0246 106.827 96.5846 106.4C96.1579 105.96 95.4446 105.74 94.4446 105.74H91.7646V110.62ZM104.233 118.24C103.393 118.24 102.7 118.1 102.153 117.82C101.607 117.54 101.2 117.173 100.933 116.72C100.667 116.253 100.533 115.747 100.533 115.2C100.533 114.24 100.907 113.48 101.653 112.92C102.4 112.36 103.467 112.08 104.853 112.08H107.453V111.9C107.453 111.127 107.24 110.547 106.813 110.16C106.4 109.773 105.86 109.58 105.193 109.58C104.607 109.58 104.093 109.727 103.653 110.02C103.227 110.3 102.967 110.72 102.873 111.28H100.753C100.82 110.56 101.06 109.947 101.473 109.44C101.9 108.92 102.433 108.527 103.073 108.26C103.727 107.98 104.44 107.84 105.213 107.84C106.6 107.84 107.673 108.207 108.433 108.94C109.193 109.66 109.573 110.647 109.573 111.9V118H107.733L107.553 116.3C107.273 116.847 106.867 117.307 106.333 117.68C105.8 118.053 105.1 118.24 104.233 118.24ZM104.653 116.52C105.227 116.52 105.707 116.387 106.093 116.12C106.493 115.84 106.8 115.473 107.013 115.02C107.24 114.567 107.38 114.067 107.433 113.52H105.073C104.233 113.52 103.633 113.667 103.273 113.96C102.927 114.253 102.753 114.62 102.753 115.06C102.753 115.513 102.92 115.873 103.253 116.14C103.6 116.393 104.067 116.52 104.653 116.52ZM112.045 122.4V108.08H113.945L114.165 109.62C114.485 109.153 114.925 108.74 115.485 108.38C116.045 108.02 116.765 107.84 117.645 107.84C118.605 107.84 119.452 108.067 120.185 108.52C120.918 108.973 121.492 109.593 121.905 110.38C122.332 111.167 122.545 112.06 122.545 113.06C122.545 114.06 122.332 114.953 121.905 115.74C121.492 116.513 120.918 117.127 120.185 117.58C119.452 118.02 118.598 118.24 117.625 118.24C116.852 118.24 116.165 118.087 115.565 117.78C114.978 117.473 114.512 117.04 114.165 116.48V122.4H112.045ZM117.265 116.4C118.172 116.4 118.918 116.093 119.505 115.48C120.092 114.853 120.385 114.04 120.385 113.04C120.385 112.387 120.252 111.807 119.985 111.3C119.718 110.793 119.352 110.4 118.885 110.12C118.418 109.827 117.878 109.68 117.265 109.68C116.358 109.68 115.612 109.993 115.025 110.62C114.452 111.247 114.165 112.053 114.165 113.04C114.165 114.04 114.452 114.853 115.025 115.48C115.612 116.093 116.358 116.4 117.265 116.4ZM129.478 118.24C128.505 118.24 127.638 118.027 126.878 117.6C126.131 117.16 125.545 116.553 125.118 115.78C124.691 115.007 124.478 114.107 124.478 113.08C124.478 112.04 124.685 111.127 125.098 110.34C125.525 109.553 126.111 108.94 126.858 108.5C127.618 108.06 128.498 107.84 129.498 107.84C130.471 107.84 131.318 108.06 132.038 108.5C132.758 108.927 133.318 109.5 133.718 110.22C134.118 110.94 134.318 111.733 134.318 112.6C134.318 112.733 134.311 112.88 134.298 113.04C134.298 113.187 134.291 113.353 134.278 113.54H126.558C126.625 114.5 126.938 115.233 127.498 115.74C128.071 116.233 128.731 116.48 129.478 116.48C130.078 116.48 130.578 116.347 130.978 116.08C131.391 115.8 131.698 115.427 131.898 114.96H134.018C133.751 115.893 133.218 116.673 132.418 117.3C131.631 117.927 130.651 118.24 129.478 118.24ZM129.478 109.58C128.771 109.58 128.145 109.793 127.598 110.22C127.051 110.633 126.718 111.26 126.598 112.1H132.198C132.158 111.327 131.885 110.713 131.378 110.26C130.871 109.807 130.238 109.58 129.478 109.58ZM136.518 118V108.08H138.418L138.598 109.96C138.944 109.307 139.424 108.793 140.038 108.42C140.664 108.033 141.418 107.84 142.298 107.84V110.06H141.718C141.131 110.06 140.604 110.16 140.138 110.36C139.684 110.547 139.318 110.873 139.038 111.34C138.771 111.793 138.638 112.427 138.638 113.24V118H136.518Z" fill="white"/>
<defs>
<radialGradient id="paint0_radial_2209_11853" cx="0" cy="0" r="1" gradientUnits="userSpaceOnUse" gradientTransform="translate(112.5 112.5) rotate(90) scale(103.5)">
<stop stop-color="#F24F7A"/>
<stop offset="1" stop-color="#DB1F51"/>
</radialGradient>
</defs>
</svg>
