<svg width="226" height="226" viewBox="0 0 226 226" fill="none" xmlns="http://www.w3.org/2000/svg">
<circle cx="113" cy="113" r="108" stroke="#FFAEC3" stroke-width="10"/>
<circle cx="112.5" cy="112.5" r="103.5" fill="url(#paint0_radial_2209_11853)"/>
<path d="M57 25L87 72" stroke="white"/>
<path d="M137 153L167 200" stroke="white"/>
<path d="M37.8477 118V104H42.7477C43.8411 104 44.7477 104.187 45.4677 104.56C46.1877 104.92 46.7211 105.42 47.0677 106.06C47.4277 106.687 47.6077 107.4 47.6077 108.2C47.6077 108.96 47.4344 109.66 47.0877 110.3C46.7544 110.927 46.2277 111.427 45.5077 111.8C44.7877 112.173 43.8677 112.36 42.7477 112.36H39.9677V118H37.8477ZM39.9677 110.62H42.6477C43.6477 110.62 44.3611 110.407 44.7877 109.98C45.2277 109.54 45.4477 108.947 45.4477 108.2C45.4477 107.427 45.2277 106.827 44.7877 106.4C44.3611 105.96 43.6477 105.74 42.6477 105.74H39.9677V110.62ZM49.6232 118V103.6H51.7432V109.68C52.0765 109.107 52.5365 108.66 53.1232 108.34C53.7232 108.007 54.3832 107.84 55.1032 107.84C56.2899 107.84 57.2232 108.213 57.9032 108.96C58.5832 109.707 58.9232 110.82 58.9232 112.3V118H56.8232V112.52C56.8232 110.6 56.0565 109.64 54.5232 109.64C53.7232 109.64 53.0565 109.92 52.5232 110.48C52.0032 111.04 51.7432 111.84 51.7432 112.88V118H49.6232ZM64.7801 118.24C63.9401 118.24 63.2467 118.1 62.7001 117.82C62.1534 117.54 61.7467 117.173 61.4801 116.72C61.2134 116.253 61.0801 115.747 61.0801 115.2C61.0801 114.24 61.4534 113.48 62.2001 112.92C62.9467 112.36 64.0134 112.08 65.4001 112.08H68.0001V111.9C68.0001 111.127 67.7867 110.547 67.3601 110.16C66.9467 109.773 66.4067 109.58 65.7401 109.58C65.1534 109.58 64.6401 109.727 64.2001 110.02C63.7734 110.3 63.5134 110.72 63.4201 111.28H61.3001C61.3667 110.56 61.6067 109.947 62.0201 109.44C62.4467 108.92 62.9801 108.527 63.6201 108.26C64.2734 107.98 64.9867 107.84 65.7601 107.84C67.1467 107.84 68.2201 108.207 68.9801 108.94C69.7401 109.66 70.1201 110.647 70.1201 111.9V118H68.2801L68.1001 116.3C67.8201 116.847 67.4134 117.307 66.8801 117.68C66.3467 118.053 65.6467 118.24 64.7801 118.24ZM65.2001 116.52C65.7734 116.52 66.2534 116.387 66.6401 116.12C67.0401 115.84 67.3467 115.473 67.5601 115.02C67.7867 114.567 67.9267 114.067 67.9801 113.52H65.6201C64.7801 113.52 64.1801 113.667 63.8201 113.96C63.4734 114.253 63.3001 114.62 63.3001 115.06C63.3001 115.513 63.4667 115.873 63.8001 116.14C64.1467 116.393 64.6134 116.52 65.2001 116.52ZM72.592 118V108.08H74.492L74.672 109.96C75.0186 109.307 75.4986 108.793 76.112 108.42C76.7386 108.033 77.492 107.84 78.372 107.84V110.06H77.792C77.2053 110.06 76.6786 110.16 76.212 110.36C75.7586 110.547 75.392 110.873 75.112 111.34C74.8453 111.793 74.712 112.427 74.712 113.24V118H72.592ZM80.1896 118V108.08H82.0696L82.2496 109.48C82.5696 108.973 82.9896 108.573 83.5096 108.28C84.0429 107.987 84.6563 107.84 85.3496 107.84C86.9229 107.84 88.0163 108.46 88.6296 109.7C88.9896 109.127 89.4696 108.673 90.0696 108.34C90.6829 108.007 91.3429 107.84 92.0496 107.84C93.2896 107.84 94.2629 108.213 94.9696 108.96C95.6763 109.707 96.0296 110.82 96.0296 112.3V118H93.9096V112.52C93.9096 110.6 93.1763 109.64 91.7096 109.64C90.9629 109.64 90.3496 109.92 89.8696 110.48C89.4029 111.04 89.1696 111.84 89.1696 112.88V118H87.0496V112.52C87.0496 110.6 86.3096 109.64 84.8296 109.64C84.0963 109.64 83.4896 109.92 83.0096 110.48C82.5429 111.04 82.3096 111.84 82.3096 112.88V118H80.1896ZM101.87 118.24C101.03 118.24 100.337 118.1 99.7899 117.82C99.2433 117.54 98.8366 117.173 98.5699 116.72C98.3033 116.253 98.1699 115.747 98.1699 115.2C98.1699 114.24 98.5433 113.48 99.2899 112.92C100.037 112.36 101.103 112.08 102.49 112.08H105.09V111.9C105.09 111.127 104.877 110.547 104.45 110.16C104.037 109.773 103.497 109.58 102.83 109.58C102.243 109.58 101.73 109.727 101.29 110.02C100.863 110.3 100.603 110.72 100.51 111.28H98.3899C98.4566 110.56 98.6966 109.947 99.1099 109.44C99.5366 108.92 100.07 108.527 100.71 108.26C101.363 107.98 102.077 107.84 102.85 107.84C104.237 107.84 105.31 108.207 106.07 108.94C106.83 109.66 107.21 110.647 107.21 111.9V118H105.37L105.19 116.3C104.91 116.847 104.503 117.307 103.97 117.68C103.437 118.053 102.737 118.24 101.87 118.24ZM102.29 116.52C102.863 116.52 103.343 116.387 103.73 116.12C104.13 115.84 104.437 115.473 104.65 115.02C104.877 114.567 105.017 114.067 105.07 113.52H102.71C101.87 113.52 101.27 113.667 100.91 113.96C100.563 114.253 100.39 114.62 100.39 115.06C100.39 115.513 100.557 115.873 100.89 116.14C101.237 116.393 101.703 116.52 102.29 116.52ZM114.382 118.24C113.408 118.24 112.535 118.02 111.762 117.58C111.002 117.14 110.402 116.533 109.962 115.76C109.535 114.973 109.322 114.067 109.322 113.04C109.322 112.013 109.535 111.113 109.962 110.34C110.402 109.553 111.002 108.94 111.762 108.5C112.535 108.06 113.408 107.84 114.382 107.84C115.608 107.84 116.635 108.16 117.462 108.8C118.302 109.44 118.842 110.307 119.082 111.4H116.862C116.728 110.853 116.435 110.427 115.982 110.12C115.528 109.813 114.995 109.66 114.382 109.66C113.862 109.66 113.382 109.793 112.942 110.06C112.502 110.313 112.148 110.693 111.882 111.2C111.615 111.693 111.482 112.307 111.482 113.04C111.482 113.773 111.615 114.393 111.882 114.9C112.148 115.393 112.502 115.773 112.942 116.04C113.382 116.307 113.862 116.44 114.382 116.44C114.995 116.44 115.528 116.287 115.982 115.98C116.435 115.673 116.728 115.24 116.862 114.68H119.082C118.855 115.747 118.322 116.607 117.482 117.26C116.642 117.913 115.608 118.24 114.382 118.24ZM126.021 118.24C125.048 118.24 124.181 118.027 123.421 117.6C122.674 117.16 122.088 116.553 121.661 115.78C121.234 115.007 121.021 114.107 121.021 113.08C121.021 112.04 121.228 111.127 121.641 110.34C122.068 109.553 122.654 108.94 123.401 108.5C124.161 108.06 125.041 107.84 126.041 107.84C127.014 107.84 127.861 108.06 128.581 108.5C129.301 108.927 129.861 109.5 130.261 110.22C130.661 110.94 130.861 111.733 130.861 112.6C130.861 112.733 130.854 112.88 130.841 113.04C130.841 113.187 130.834 113.353 130.821 113.54H123.101C123.168 114.5 123.481 115.233 124.041 115.74C124.614 116.233 125.274 116.48 126.021 116.48C126.621 116.48 127.121 116.347 127.521 116.08C127.934 115.8 128.241 115.427 128.441 114.96H130.561C130.294 115.893 129.761 116.673 128.961 117.3C128.174 117.927 127.194 118.24 126.021 118.24ZM126.021 109.58C125.314 109.58 124.688 109.793 124.141 110.22C123.594 110.633 123.261 111.26 123.141 112.1H128.741C128.701 111.327 128.428 110.713 127.921 110.26C127.414 109.807 126.781 109.58 126.021 109.58ZM136.721 118.24C135.521 118.24 134.574 117.867 133.881 117.12C133.201 116.373 132.861 115.26 132.861 113.78V108.08H134.981V113.56C134.981 115.48 135.767 116.44 137.341 116.44C138.127 116.44 138.774 116.16 139.281 115.6C139.787 115.04 140.041 114.24 140.041 113.2V108.08H142.161V118H140.281L140.121 116.26C139.814 116.873 139.361 117.36 138.761 117.72C138.174 118.067 137.494 118.24 136.721 118.24ZM149.018 118C148.044 118 147.271 117.767 146.698 117.3C146.124 116.82 145.838 115.973 145.838 114.76V109.86H144.138V108.08H145.838L146.098 105.56H147.958V108.08H150.758V109.86H147.958V114.76C147.958 115.307 148.071 115.687 148.298 115.9C148.538 116.1 148.944 116.2 149.518 116.2H150.658V118H149.018ZM154.144 106.2C153.744 106.2 153.41 106.08 153.144 105.84C152.89 105.587 152.764 105.273 152.764 104.9C152.764 104.527 152.89 104.22 153.144 103.98C153.41 103.727 153.744 103.6 154.144 103.6C154.544 103.6 154.87 103.727 155.124 103.98C155.39 104.22 155.524 104.527 155.524 104.9C155.524 105.273 155.39 105.587 155.124 105.84C154.87 106.08 154.544 106.2 154.144 106.2ZM153.084 118V108.08H155.204V118H153.084ZM162.702 118.24C161.729 118.24 160.855 118.02 160.082 117.58C159.322 117.14 158.722 116.533 158.282 115.76C157.855 114.973 157.642 114.067 157.642 113.04C157.642 112.013 157.855 111.113 158.282 110.34C158.722 109.553 159.322 108.94 160.082 108.5C160.855 108.06 161.729 107.84 162.702 107.84C163.929 107.84 164.955 108.16 165.782 108.8C166.622 109.44 167.162 110.307 167.402 111.4H165.182C165.049 110.853 164.755 110.427 164.302 110.12C163.849 109.813 163.315 109.66 162.702 109.66C162.182 109.66 161.702 109.793 161.262 110.06C160.822 110.313 160.469 110.693 160.202 111.2C159.935 111.693 159.802 112.307 159.802 113.04C159.802 113.773 159.935 114.393 160.202 114.9C160.469 115.393 160.822 115.773 161.262 116.04C161.702 116.307 162.182 116.44 162.702 116.44C163.315 116.44 163.849 116.287 164.302 115.98C164.755 115.673 165.049 115.24 165.182 114.68H167.402C167.175 115.747 166.642 116.607 165.802 117.26C164.962 117.913 163.929 118.24 162.702 118.24ZM173.061 118.24C172.221 118.24 171.528 118.1 170.981 117.82C170.435 117.54 170.028 117.173 169.761 116.72C169.495 116.253 169.361 115.747 169.361 115.2C169.361 114.24 169.735 113.48 170.481 112.92C171.228 112.36 172.295 112.08 173.681 112.08H176.281V111.9C176.281 111.127 176.068 110.547 175.641 110.16C175.228 109.773 174.688 109.58 174.021 109.58C173.435 109.58 172.921 109.727 172.481 110.02C172.055 110.3 171.795 110.72 171.701 111.28H169.581C169.648 110.56 169.888 109.947 170.301 109.44C170.728 108.92 171.261 108.527 171.901 108.26C172.555 107.98 173.268 107.84 174.041 107.84C175.428 107.84 176.501 108.207 177.261 108.94C178.021 109.66 178.401 110.647 178.401 111.9V118H176.561L176.381 116.3C176.101 116.847 175.695 117.307 175.161 117.68C174.628 118.053 173.928 118.24 173.061 118.24ZM173.481 116.52C174.055 116.52 174.535 116.387 174.921 116.12C175.321 115.84 175.628 115.473 175.841 115.02C176.068 114.567 176.208 114.067 176.261 113.52H173.901C173.061 113.52 172.461 113.667 172.101 113.96C171.755 114.253 171.581 114.62 171.581 115.06C171.581 115.513 171.748 115.873 172.081 116.14C172.428 116.393 172.895 116.52 173.481 116.52ZM180.873 118V103.6H182.993V118H180.873ZM189.638 118.24C188.385 118.24 187.351 117.933 186.538 117.32C185.725 116.707 185.258 115.893 185.138 114.88H187.278C187.385 115.333 187.638 115.727 188.038 116.06C188.438 116.38 188.965 116.54 189.618 116.54C190.258 116.54 190.725 116.407 191.018 116.14C191.311 115.873 191.458 115.567 191.458 115.22C191.458 114.713 191.251 114.373 190.838 114.2C190.438 114.013 189.878 113.847 189.158 113.7C188.598 113.58 188.038 113.42 187.478 113.22C186.931 113.02 186.471 112.74 186.098 112.38C185.738 112.007 185.558 111.507 185.558 110.88C185.558 110.013 185.891 109.293 186.558 108.72C187.225 108.133 188.158 107.84 189.358 107.84C190.465 107.84 191.358 108.107 192.038 108.64C192.731 109.173 193.138 109.927 193.258 110.9H191.218C191.151 110.473 190.951 110.14 190.618 109.9C190.298 109.66 189.865 109.54 189.318 109.54C188.785 109.54 188.371 109.653 188.078 109.88C187.785 110.093 187.638 110.373 187.638 110.72C187.638 111.067 187.838 111.34 188.238 111.54C188.651 111.74 189.191 111.92 189.858 112.08C190.525 112.227 191.138 112.4 191.698 112.6C192.271 112.787 192.731 113.067 193.078 113.44C193.425 113.813 193.598 114.36 193.598 115.08C193.611 115.987 193.258 116.74 192.538 117.34C191.831 117.94 190.865 118.24 189.638 118.24Z" fill="white"/>
<defs>
<radialGradient id="paint0_radial_2209_11853" cx="0" cy="0" r="1" gradientUnits="userSpaceOnUse" gradientTransform="translate(112.5 112.5) rotate(90) scale(103.5)">
<stop stop-color="#F24F7A"/>
<stop offset="1" stop-color="#DB1F51"/>
</radialGradient>
</defs>
</svg>
