<svg width="109" height="109" viewBox="0 0 109 109" fill="none" xmlns="http://www.w3.org/2000/svg">
<circle cx="54.5" cy="54.5" r="52.0885" stroke="#FFAEC3" stroke-width="4.82301"/>
<circle cx="54.258" cy="54.259" r="49.9181" fill="url(#paint0_radial_4948_2618)"/>
<path d="M27.4902 12.0576L41.9593 34.7258" stroke="white" stroke-width="0.482301"/>
<path d="M66.0762 73.792L80.5452 96.4601" stroke="white" stroke-width="0.482301"/>
<path d="M36.2359 52V45H38.8259C39.3992 45 39.8725 45.1 40.2459 45.3C40.6259 45.4933 40.9092 45.7567 41.0959 46.09C41.2825 46.4233 41.3759 46.8033 41.3759 47.23C41.3759 47.6233 41.2859 47.99 41.1059 48.33C40.9259 48.6633 40.6492 48.9333 40.2759 49.14C39.9025 49.3467 39.4192 49.45 38.8259 49.45H37.5859V52H36.2359ZM37.5859 48.35H38.7459C39.1992 48.35 39.5192 48.25 39.7059 48.05C39.8992 47.8433 39.9959 47.57 39.9959 47.23C39.9959 46.8767 39.8992 46.6 39.7059 46.4C39.5192 46.2 39.1992 46.1 38.7459 46.1H37.5859V48.35ZM42.4068 52V44.8H43.7568V47.53C43.9235 47.27 44.1435 47.06 44.4168 46.9C44.6968 46.74 45.0135 46.66 45.3668 46.66C45.8001 46.66 46.1601 46.7467 46.4468 46.92C46.7335 47.0867 46.9468 47.3333 47.0868 47.66C47.2335 47.98 47.3068 48.3767 47.3068 48.85V52H45.9668V48.97C45.9668 48.5967 45.8768 48.31 45.6968 48.11C45.5168 47.9033 45.2535 47.8 44.9068 47.8C44.6935 47.8 44.5001 47.85 44.3268 47.95C44.1535 48.05 44.0135 48.1967 43.9068 48.39C43.8068 48.5767 43.7568 48.8033 43.7568 49.07V52H42.4068ZM50.3661 52.12C49.9594 52.12 49.6194 52.05 49.3461 51.91C49.0794 51.7633 48.8794 51.57 48.7461 51.33C48.6128 51.09 48.5461 50.8267 48.5461 50.54C48.5461 50.2267 48.6228 49.9533 48.7761 49.72C48.9361 49.48 49.1728 49.2933 49.4861 49.16C49.8061 49.02 50.2028 48.95 50.6761 48.95H51.8961C51.8961 48.6833 51.8694 48.4633 51.8161 48.29C51.7694 48.11 51.6761 47.9767 51.5361 47.89C51.4028 47.8033 51.2094 47.76 50.9561 47.76C50.7094 47.76 50.5061 47.8133 50.3461 47.92C50.1928 48.02 50.0961 48.17 50.0561 48.37H48.7361C48.7761 48.0233 48.8894 47.7233 49.0761 47.47C49.2694 47.2167 49.5261 47.02 49.8461 46.88C50.1728 46.7333 50.5428 46.66 50.9561 46.66C51.4428 46.66 51.8561 46.74 52.1961 46.9C52.5361 47.06 52.7961 47.29 52.9761 47.59C53.1561 47.89 53.2461 48.26 53.2461 48.7V52H52.1161L51.9661 51.22C51.8928 51.3533 51.8028 51.4767 51.6961 51.59C51.5961 51.6967 51.4794 51.79 51.3461 51.87C51.2128 51.95 51.0628 52.01 50.8961 52.05C50.7361 52.0967 50.5594 52.12 50.3661 52.12ZM50.6861 51.08C50.8461 51.08 50.9928 51.0467 51.1261 50.98C51.2594 50.9133 51.3761 50.8233 51.4761 50.71C51.5761 50.5967 51.6561 50.4633 51.7161 50.31C51.7828 50.1567 51.8261 49.99 51.8461 49.81V49.78H50.8261C50.6328 49.78 50.4728 49.8067 50.3461 49.86C50.2194 49.9133 50.1261 49.99 50.0661 50.09C50.0061 50.1833 49.9761 50.2933 49.9761 50.42C49.9761 50.56 50.0028 50.68 50.0561 50.78C50.1161 50.8733 50.1994 50.9467 50.3061 51C50.4194 51.0533 50.5461 51.08 50.6861 51.08ZM54.6236 52V46.78H55.8236L55.9436 47.7C56.0769 47.4733 56.2403 47.2833 56.4336 47.13C56.6269 46.9767 56.8503 46.86 57.1036 46.78C57.3636 46.7 57.6503 46.66 57.9636 46.66V48.09H57.2836C57.1036 48.09 56.9336 48.1133 56.7736 48.16C56.6136 48.2 56.4736 48.27 56.3536 48.37C56.2336 48.47 56.1403 48.6067 56.0736 48.78C56.0069 48.9467 55.9736 49.16 55.9736 49.42V52H54.6236ZM58.9009 52V46.78H60.0809L60.1809 47.45C60.3409 47.21 60.5543 47.02 60.8209 46.88C61.0876 46.7333 61.3876 46.66 61.7209 46.66C61.9676 46.66 62.1876 46.6933 62.3809 46.76C62.5809 46.8267 62.7543 46.9233 62.9009 47.05C63.0476 47.17 63.1676 47.3233 63.2609 47.51C63.4543 47.2433 63.6976 47.0367 63.9909 46.89C64.2843 46.7367 64.6009 46.66 64.9409 46.66C65.3809 46.66 65.7409 46.7467 66.0209 46.92C66.3076 47.0867 66.5209 47.33 66.6609 47.65C66.8009 47.9633 66.8709 48.3467 66.8709 48.8V52H65.5309V48.93C65.5309 48.5633 65.4509 48.2833 65.2909 48.09C65.1376 47.8967 64.9076 47.8 64.6009 47.8C64.4009 47.8 64.2209 47.85 64.0609 47.95C63.9076 48.0433 63.7843 48.1833 63.6909 48.37C63.6043 48.55 63.5609 48.77 63.5609 49.03V52H62.2109V48.93C62.2109 48.5633 62.1309 48.2833 61.9709 48.09C61.8176 47.8967 61.5843 47.8 61.2709 47.8C61.0776 47.8 60.9009 47.85 60.7409 47.95C60.5876 48.0433 60.4676 48.1833 60.3809 48.37C60.2943 48.55 60.2509 48.77 60.2509 49.03V52H58.9009ZM69.9266 52.12C69.52 52.12 69.18 52.05 68.9066 51.91C68.64 51.7633 68.44 51.57 68.3066 51.33C68.1733 51.09 68.1066 50.8267 68.1066 50.54C68.1066 50.2267 68.1833 49.9533 68.3366 49.72C68.4966 49.48 68.7333 49.2933 69.0466 49.16C69.3666 49.02 69.7633 48.95 70.2366 48.95H71.4566C71.4566 48.6833 71.43 48.4633 71.3766 48.29C71.33 48.11 71.2366 47.9767 71.0966 47.89C70.9633 47.8033 70.77 47.76 70.5166 47.76C70.27 47.76 70.0666 47.8133 69.9066 47.92C69.7533 48.02 69.6566 48.17 69.6166 48.37H68.2966C68.3366 48.0233 68.45 47.7233 68.6366 47.47C68.83 47.2167 69.0866 47.02 69.4066 46.88C69.7333 46.7333 70.1033 46.66 70.5166 46.66C71.0033 46.66 71.4166 46.74 71.7566 46.9C72.0966 47.06 72.3566 47.29 72.5366 47.59C72.7166 47.89 72.8066 48.26 72.8066 48.7V52H71.6766L71.5266 51.22C71.4533 51.3533 71.3633 51.4767 71.2566 51.59C71.1566 51.6967 71.04 51.79 70.9066 51.87C70.7733 51.95 70.6233 52.01 70.4566 52.05C70.2966 52.0967 70.12 52.12 69.9266 52.12ZM70.2466 51.08C70.4066 51.08 70.5533 51.0467 70.6866 50.98C70.82 50.9133 70.9366 50.8233 71.0366 50.71C71.1366 50.5967 71.2166 50.4633 71.2766 50.31C71.3433 50.1567 71.3866 49.99 71.4066 49.81V49.78H70.3866C70.1933 49.78 70.0333 49.8067 69.9066 49.86C69.78 49.9133 69.6866 49.99 69.6266 50.09C69.5666 50.1833 69.5366 50.2933 69.5366 50.42C69.5366 50.56 69.5633 50.68 69.6166 50.78C69.6766 50.8733 69.76 50.9467 69.8666 51C69.98 51.0533 70.1066 51.08 70.2466 51.08ZM34.2974 63V56H35.6474V63H34.2974ZM37.0699 63V57.78H38.2499L38.3499 58.57C38.4965 58.29 38.7099 58.07 38.9899 57.91C39.2699 57.7433 39.6065 57.66 39.9999 57.66C40.4065 57.66 40.7532 57.7433 41.0399 57.91C41.3265 58.0767 41.5465 58.3167 41.6999 58.63C41.8532 58.9433 41.9299 59.3267 41.9299 59.78V63H40.5799V59.91C40.5799 59.5567 40.4899 59.2833 40.3099 59.09C40.1365 58.8967 39.8832 58.8 39.5499 58.8C39.3432 58.8 39.1532 58.8467 38.9799 58.94C38.8065 59.0333 38.6699 59.17 38.5699 59.35C38.4699 59.53 38.4199 59.7467 38.4199 60V63H37.0699ZM45.4501 63.12C44.9968 63.12 44.5935 63.0067 44.2401 62.78C43.8935 62.5467 43.6235 62.23 43.4301 61.83C43.2368 61.4233 43.1401 60.9567 43.1401 60.43C43.1401 59.89 43.2401 59.4133 43.4401 59C43.6401 58.58 43.9235 58.2533 44.2901 58.02C44.6568 57.78 45.0801 57.66 45.5601 57.66C45.9001 57.66 46.2001 57.7267 46.4601 57.86C46.7268 57.9867 46.9401 58.17 47.1001 58.41V55.8H48.4501V63H47.2501L47.1001 62.3C47.0001 62.4467 46.8768 62.5833 46.7301 62.71C46.5835 62.8367 46.4068 62.9367 46.2001 63.01C45.9935 63.0833 45.7435 63.12 45.4501 63.12ZM45.8301 61.94C46.0901 61.94 46.3168 61.8767 46.5101 61.75C46.7101 61.6233 46.8635 61.4433 46.9701 61.21C47.0835 60.9767 47.1401 60.7033 47.1401 60.39C47.1401 60.0767 47.0835 59.8033 46.9701 59.57C46.8635 59.3367 46.7101 59.1567 46.5101 59.03C46.3168 58.9033 46.0868 58.84 45.8201 58.84C45.5735 58.84 45.3501 58.9033 45.1501 59.03C44.9501 59.1567 44.7935 59.3367 44.6801 59.57C44.5668 59.7967 44.5101 60.0667 44.5101 60.38C44.5101 60.7 44.5668 60.9767 44.6801 61.21C44.7935 61.4433 44.9501 61.6233 45.1501 61.75C45.3501 61.8767 45.5768 61.94 45.8301 61.94ZM51.7638 63.12C51.3571 63.12 51.0071 63.0433 50.7138 62.89C50.4271 62.73 50.2071 62.4967 50.0538 62.19C49.9005 61.8833 49.8238 61.5 49.8238 61.04V57.78H51.1638V60.88C51.1638 61.2533 51.2538 61.53 51.4338 61.71C51.6138 61.89 51.8705 61.98 52.2038 61.98C52.4171 61.98 52.6071 61.9367 52.7738 61.85C52.9471 61.7633 53.0838 61.63 53.1838 61.45C53.2838 61.27 53.3338 61.05 53.3338 60.79V57.78H54.6838V63H53.4938L53.3938 62.21C53.2538 62.49 53.0438 62.7133 52.7638 62.88C52.4905 63.04 52.1571 63.12 51.7638 63.12ZM58.0943 63.12C57.5809 63.12 57.1576 63.0467 56.8243 62.9C56.4909 62.7467 56.2376 62.54 56.0643 62.28C55.8909 62.0133 55.7943 61.7167 55.7743 61.39H57.1143C57.1343 61.5167 57.1809 61.6333 57.2543 61.74C57.3276 61.8467 57.4309 61.9333 57.5643 62C57.7043 62.06 57.8743 62.09 58.0743 62.09C58.2476 62.09 58.3943 62.0667 58.5143 62.02C58.6409 61.9667 58.7343 61.8967 58.7943 61.81C58.8609 61.7167 58.8943 61.61 58.8943 61.49C58.8943 61.3367 58.8509 61.2167 58.7643 61.13C58.6843 61.0433 58.5676 60.9767 58.4143 60.93C58.2609 60.8767 58.0709 60.8333 57.8443 60.8C57.5509 60.7533 57.2809 60.6933 57.0343 60.62C56.7943 60.5467 56.5876 60.4533 56.4143 60.34C56.2476 60.22 56.1176 60.07 56.0243 59.89C55.9309 59.71 55.8843 59.4933 55.8843 59.24C55.8843 58.94 55.9676 58.67 56.1343 58.43C56.3009 58.19 56.5409 58.0033 56.8543 57.87C57.1676 57.73 57.5443 57.66 57.9843 57.66C58.6176 57.66 59.1076 57.7967 59.4543 58.07C59.8076 58.3433 60.0176 58.7167 60.0843 59.19H58.8143C58.7743 59.0367 58.6809 58.9167 58.5343 58.83C58.3943 58.7433 58.2043 58.7 57.9643 58.7C57.7176 58.7 57.5276 58.7467 57.3943 58.84C57.2609 58.9267 57.1943 59.0467 57.1943 59.2C57.1943 59.3 57.2243 59.3933 57.2843 59.48C57.3509 59.56 57.4576 59.63 57.6043 59.69C57.7576 59.7433 57.9643 59.7933 58.2243 59.84C58.6843 59.9067 59.0609 59.9933 59.3543 60.1C59.6543 60.2067 59.8776 60.3633 60.0243 60.57C60.1776 60.7767 60.2509 61.06 60.2443 61.42C60.2443 61.7733 60.1543 62.0767 59.9743 62.33C59.8009 62.5833 59.5509 62.78 59.2243 62.92C58.9043 63.0533 58.5276 63.12 58.0943 63.12ZM63.6086 63C63.2553 63 62.9453 62.9467 62.6786 62.84C62.4186 62.7267 62.2153 62.5433 62.0686 62.29C61.922 62.03 61.8486 61.6767 61.8486 61.23V58.91H60.9486V57.78H61.8486L61.9986 56.33H63.1986V57.78H64.5486V58.91H63.1986V61.25C63.1986 61.4767 63.2486 61.6333 63.3486 61.72C63.4486 61.8067 63.6186 61.85 63.8586 61.85H64.5686V63H63.6086ZM65.7711 63V57.78H66.9711L67.0911 58.7C67.2244 58.4733 67.3877 58.2833 67.5811 58.13C67.7744 57.9767 67.9977 57.86 68.2511 57.78C68.5111 57.7 68.7977 57.66 69.1111 57.66V59.09H68.4311C68.2511 59.09 68.0811 59.1133 67.9211 59.16C67.7611 59.2 67.6211 59.27 67.5011 59.37C67.3811 59.47 67.2877 59.6067 67.2211 59.78C67.1544 59.9467 67.1211 60.16 67.1211 60.42V63H65.7711ZM70.7184 65.2L71.8884 62.44H71.5884L69.5884 57.78H71.0584L72.4784 61.18L73.7584 57.78H75.1984L72.1384 65.2H70.7184Z" fill="white"/>
<defs>
<radialGradient id="paint0_radial_4948_2618" cx="0" cy="0" r="1" gradientUnits="userSpaceOnUse" gradientTransform="translate(54.258 54.259) rotate(90) scale(49.9181)">
<stop stop-color="#F24F7A"/>
<stop offset="1" stop-color="#DB1F51"/>
</radialGradient>
</defs>
</svg>
