<svg width="119" height="119" viewBox="0 0 119 119" fill="none" xmlns="http://www.w3.org/2000/svg">
<g filter="url(#filter0_d_2209_10467)">
<rect x="19" y="14" width="67" height="67" rx="4" fill="white"/>
</g>
<path d="M52.4811 32.0953C52.4811 31.7725 52.7368 31.5107 53.052 31.5107C53.3673 31.5107 53.623 31.7725 53.623 32.0953V33.2022C53.623 33.5249 53.3673 33.7868 53.052 33.7868C52.7368 33.7868 52.4811 33.5249 52.4811 33.2022V32.0953ZM54.4437 46.8973L54.4794 46.9369C54.8556 47.3403 55.043 47.8595 55.043 48.3771C55.043 48.91 54.8437 49.4444 54.4452 49.8525L54.4066 49.8905C54.0125 50.2757 53.5055 50.4676 53 50.4676C52.4796 50.4676 51.9577 50.2636 51.5592 49.8555L51.522 49.8159C51.1459 49.4125 50.9585 48.8933 50.9585 48.3757C50.9585 47.8428 51.1577 47.3084 51.5562 46.9003L51.5949 46.8623C51.9889 46.4771 52.4959 46.2852 53.0015 46.2852C53.5219 46.2852 54.0438 46.4893 54.4452 46.8973H54.4437ZM53.6378 47.7255C53.4624 47.5443 53.2304 47.4545 53 47.4545C52.7799 47.4545 52.5584 47.5367 52.3859 47.6996L52.3636 47.724C52.1866 47.9037 52.0989 48.1412 52.0989 48.3772C52.0989 48.6025 52.1792 48.8294 52.3383 49.006L52.3621 49.0288C52.5375 49.21 52.7695 49.2998 53 49.2998C53.22 49.2998 53.4416 49.2176 53.6141 49.0547L53.6364 49.0303C53.8133 48.8507 53.901 48.6132 53.901 48.3772C53.901 48.1518 53.8207 47.9234 53.6616 47.7484L53.6378 47.7255ZM55.8518 51.3125C55.0608 52.0936 54.0319 52.4788 53.0089 52.4681C51.9859 52.459 50.9659 52.054 50.1883 51.2577C49.4076 50.4584 49.0122 49.4139 49.0032 48.3664C48.9928 47.319 49.3705 46.2669 50.1333 45.4554L50.1511 45.4371C51.7584 43.7974 53.5352 43.2188 55.4355 42.6007L55.4772 42.5885C56.8005 42.1577 58.1892 41.7024 59.5823 40.8361C59.8515 40.6702 60.2009 40.757 60.363 41.0325C60.4775 41.2274 60.4685 41.4634 60.3585 41.6446C59.508 43.0818 59.062 44.516 58.6397 45.8817C58.0375 47.832 57.471 49.6544 55.8637 51.3017L55.8548 51.3108L55.8518 51.3125ZM53.0178 51.3034C53.7523 51.311 54.4913 51.0339 55.0608 50.4736C56.4659 49.0288 56.9907 47.3403 57.5513 45.5315C57.8383 44.6134 58.1312 43.6664 58.549 42.6935C57.6138 43.1153 56.7038 43.4122 55.8221 43.6999L55.779 43.7151C54.0111 44.2891 52.3606 44.8266 50.9524 46.2653C50.4053 46.8484 50.1347 47.6051 50.1406 48.3573C50.148 49.1079 50.432 49.8569 50.9926 50.4309C51.5532 51.0049 52.2863 51.2958 53.0178 51.3034ZM70.429 65H65.979C65.6638 65 65.408 64.7381 65.408 64.4154V53.5083C65.408 53.1855 65.6638 52.9236 65.979 52.9236H70.429C70.7443 52.9236 71 53.1855 71 53.5083V64.4154C71 64.7381 70.7443 65 70.429 65ZM66.5511 63.8307H69.8579V54.0929H66.5511V63.8307ZM59.9999 63.8307H63.3067V56.3613H59.9999V63.8307ZM63.8779 65H59.4278C59.1126 65 58.8568 64.7381 58.8568 64.4154V55.7767C58.8568 55.4539 59.1126 55.192 59.4278 55.192H63.8779C64.1931 55.192 64.4488 55.4539 64.4488 55.7767V64.4154C64.4488 64.7381 64.1931 65 63.8779 65ZM57.3267 65H52.8766C52.5614 65 52.3056 64.7381 52.3056 64.4154V58.0802C52.3056 57.7574 52.5614 57.4955 52.8766 57.4955H57.3267C57.6419 57.4955 57.8976 57.7574 57.8976 58.0802V64.4154C57.8976 64.7381 57.6419 65 57.3267 65ZM53.4487 63.8307H56.7555V58.6648H53.4487V63.8307ZM46.8975 63.8307H50.2043V60.8603H46.8975V63.8307ZM50.7755 65H46.3254C46.0102 65 45.7545 64.7381 45.7545 64.4154V60.2757C45.7545 59.9529 46.0102 59.6911 46.3254 59.6911H50.7755C51.0907 59.6911 51.3464 59.9529 51.3464 60.2757V64.4154C51.3464 64.7381 51.0907 65 50.7755 65ZM65.8241 48.4305C65.8241 44.8054 64.3878 41.5212 62.0682 39.1464C59.7472 36.7697 56.5413 35.3005 52.9999 35.3005C49.4584 35.3005 46.2523 36.7712 43.9315 39.1464C41.612 41.523 40.1756 44.8057 40.1756 48.432C40.1756 50.2042 40.5161 51.8912 41.1347 53.4272C41.777 55.0259 42.7197 56.4661 43.8899 57.6764C44.3939 58.1925 44.6467 58.8715 44.6467 59.5491C44.6497 60.2266 44.3969 60.9072 43.8913 61.4233C43.3858 61.9409 42.7227 62.1982 42.061 62.1982C41.3993 62.1982 40.7362 61.9394 40.2306 61.4233L40.1994 61.3883C38.5683 59.6983 37.2524 57.684 36.3531 55.4506C35.4803 53.2841 35 50.9134 35 48.4318C35 43.3419 37.0147 38.7334 40.2726 35.399C43.5289 32.0632 48.0297 30 53.0005 30C57.9712 30 62.4719 32.0645 65.7283 35.399C68.9845 38.7317 70.9979 43.3404 70.9979 48.4303C71.0008 49.1626 70.7094 49.8264 70.2425 50.306C69.7741 50.7856 69.1274 51.0825 68.4122 51.0825C67.6985 51.0825 67.0502 50.7856 66.5818 50.306C66.1135 49.8264 65.8235 49.1641 65.8235 48.4318L65.8241 48.4305ZM62.8756 38.3197C65.4033 40.9064 66.9659 44.4826 66.9659 48.4305C66.9659 48.8385 67.128 49.21 67.3897 49.478C67.6514 49.7459 68.0127 49.9119 68.4127 49.9119C68.8112 49.9119 69.174 49.7459 69.4356 49.478C69.6973 49.21 69.8594 48.84 69.8594 48.4305C69.8624 43.6649 67.9741 39.3486 64.9214 36.2247C61.8718 33.102 57.6565 31.1683 53.0013 31.1683C48.346 31.1683 44.1305 33.1004 41.0811 36.2247C38.0301 39.3474 36.1431 43.6637 36.1431 48.4305C36.1431 50.7614 36.5936 52.9829 37.4084 55.0061C38.25 57.0965 39.4826 58.9829 41.0126 60.568L41.0409 60.5954C41.3234 60.8847 41.6936 61.0294 42.0639 61.0294C42.4341 61.0294 42.8043 60.8847 43.0868 60.5954C43.3693 60.3062 43.5106 59.9271 43.5106 59.5479C43.5136 59.1688 43.3693 58.7882 43.0853 58.4974C41.8111 57.1805 40.7836 55.6108 40.0848 53.869C39.4098 52.1897 39.0366 50.3536 39.0366 48.4307C39.0366 44.4828 40.6008 40.9063 43.1269 38.3183C45.6546 35.7316 49.1456 34.1299 53.0026 34.1299C56.8597 34.1299 60.3509 35.7316 62.8783 38.3183L62.8756 38.3197ZM41.3546 37.2554C41.1316 37.027 41.1316 36.6571 41.3546 36.4287C41.5776 36.2003 41.939 36.2003 42.162 36.4287L42.9262 37.2113C43.1493 37.4396 43.1493 37.8096 42.9262 38.038C42.7032 38.2664 42.3419 38.2664 42.1188 38.038L41.3546 37.2554ZM63.9566 38.1156C63.7336 38.344 63.3722 38.344 63.1492 38.1156C62.9262 37.8872 62.9262 37.5173 63.1492 37.2889L63.915 36.5048C64.138 36.2764 64.4993 36.2764 64.7223 36.5048C64.9454 36.7332 64.9454 37.1032 64.7223 37.3315L63.9566 38.1156ZM37.0488 48.9619C36.7336 48.9619 36.4778 48.7 36.4778 48.3773C36.4778 48.0545 36.7336 47.7926 37.0488 47.7926H38.1297C38.445 47.7926 38.7007 48.0545 38.7007 48.3773C38.7007 48.7 38.445 48.9619 38.1297 48.9619H37.0488Z" fill="url(#paint0_linear_2209_10467)"/>
<defs>
<filter id="filter0_d_2209_10467" x="0" y="0" width="119" height="119" filterUnits="userSpaceOnUse" color-interpolation-filters="sRGB">
<feFlood flood-opacity="0" result="BackgroundImageFix"/>
<feColorMatrix in="SourceAlpha" type="matrix" values="0 0 0 0 0 0 0 0 0 0 0 0 0 0 0 0 0 0 127 0" result="hardAlpha"/>
<feOffset dx="7" dy="12"/>
<feGaussianBlur stdDeviation="13"/>
<feComposite in2="hardAlpha" operator="out"/>
<feColorMatrix type="matrix" values="0 0 0 0 0.864583 0 0 0 0 0.818652 0 0 0 0 0.71148 0 0 0 0.29 0"/>
<feBlend mode="normal" in2="BackgroundImageFix" result="effect1_dropShadow_2209_10467"/>
<feBlend mode="normal" in="SourceGraphic" in2="effect1_dropShadow_2209_10467" result="shape"/>
</filter>
<linearGradient id="paint0_linear_2209_10467" x1="53" y1="30" x2="53" y2="65" gradientUnits="userSpaceOnUse">
<stop stop-color="#0B3255"/>
<stop offset="1" stop-color="#317EC2"/>
</linearGradient>
</defs>
</svg>
