<svg width="119" height="119" viewBox="0 0 119 119" fill="none" xmlns="http://www.w3.org/2000/svg">
<g filter="url(#filter0_d_2209_10485)">
<rect x="19" y="14" width="67" height="67" rx="4" fill="white"/>
</g>
<path d="M59.0869 46.199C57.748 46.1974 56.4388 46.5961 55.3249 47.3446C54.2111 48.0931 53.3427 49.1577 52.8298 50.4036C52.3169 51.6495 52.1825 53.0207 52.4436 54.3437C52.7047 55.6666 53.3496 56.8817 54.2966 57.8352C55.2437 58.7887 56.4502 59.4376 57.7636 59.6999C59.0769 59.9622 60.438 59.826 61.6744 59.3086C62.9109 58.7911 63.9672 57.9157 64.7095 56.7932C65.4518 55.6706 65.8468 54.3515 65.8445 53.0026C65.8403 51.1988 65.1269 49.4701 63.8604 48.195C62.5939 46.9198 60.8775 46.2021 59.0869 46.199ZM59.0869 58.6473C57.98 58.6504 56.897 58.3227 55.9749 57.7056C55.0529 57.0885 54.3333 56.2097 53.9072 55.1804C53.481 54.1512 53.3675 53.0178 53.581 51.9235C53.7945 50.8293 54.3254 49.8234 55.1065 49.0332C55.8876 48.243 56.8838 47.7039 57.9691 47.4843C59.0543 47.2646 60.1799 47.3742 61.2034 47.7991C62.2268 48.2241 63.1022 48.9453 63.7186 49.8715C64.3351 50.7978 64.665 51.8875 64.6665 53.0026C64.6645 54.4939 64.0763 55.9236 63.0307 56.9791C61.9851 58.0347 60.5672 58.6302 59.0869 58.6354V58.6473ZM69.9477 50.8468L68.4988 50.5502C68.2708 49.6515 67.9151 48.7909 67.4426 47.9948L68.2828 46.7765C68.4537 46.5285 68.5327 46.2279 68.5061 45.9272C68.4796 45.6265 68.3491 45.3447 68.1376 45.131L66.8772 43.8612C66.665 43.6481 66.3852 43.5167 66.0868 43.4899C65.7883 43.4632 65.4899 43.5428 65.2437 43.7149L64.0383 44.5693C63.2457 44.0972 62.3902 43.7416 61.4978 43.5131L61.2387 42.0614C61.1853 41.7639 61.0298 41.4947 60.7994 41.301C60.569 41.1072 60.2784 41.0011 59.9783 41.0013H58.1917C57.8916 41.0011 57.6009 41.1072 57.3705 41.301C57.1402 41.4947 56.9847 41.7639 56.9313 42.0614L56.6721 43.5092L56.5936 43.5329C56.0506 42.389 55.7663 41.138 55.7612 39.87V34.1423C56.3649 33.9824 56.8913 33.6086 57.2437 33.0895C57.596 32.5703 57.7509 31.9407 57.6798 31.3158C57.6087 30.691 57.3165 30.113 56.8566 29.6876C56.3968 29.2623 55.8002 29.0181 55.1761 29H43.322C42.6846 28.9999 42.0694 29.2362 41.5938 29.6637C41.1182 30.0912 40.8154 30.6801 40.7431 31.3181C40.6708 31.956 40.8341 32.5985 41.2018 33.123C41.5695 33.6475 42.1159 34.0174 42.7369 34.1621V39.87C42.7369 41.4653 42.2935 43.0288 41.4569 44.3834L35.0017 54.7985C34.3769 55.8089 34.0318 56.9692 34.0021 58.1592C33.9724 59.3492 34.2592 60.5256 34.8328 61.5663C35.4065 62.607 36.246 63.4742 37.2643 64.078C38.2827 64.6817 39.4428 65.0001 40.6245 65H57.8737C57.9245 64.9956 57.9746 64.9849 58.0229 64.9684C58.0784 64.9827 58.1348 64.9933 58.1917 65H59.9783C60.279 65 60.5701 64.8934 60.8005 64.6988C61.031 64.5043 61.1861 64.2342 61.2387 63.9359L61.4978 62.4882C62.3898 62.2566 63.245 61.8998 64.0383 61.4281L65.2437 62.2706C65.4901 62.443 65.7889 62.5224 66.0876 62.4949C66.3863 62.4674 66.6658 62.3348 66.8772 62.1203L68.1376 60.8347C68.3491 60.621 68.4796 60.3392 68.5061 60.0385C68.5327 59.7378 68.4537 59.4372 68.2828 59.1892L67.4426 57.9709C67.9201 57.1741 68.2774 56.3103 68.5027 55.4076L69.9438 55.1505C70.2405 55.0975 70.5091 54.9406 70.7023 54.7076C70.8955 54.4746 71.0009 54.1804 71 53.8768V52.1008C70.9993 51.7991 70.8936 51.5072 70.7013 51.276C70.509 51.0447 70.2424 50.8886 69.9477 50.835V50.8468ZM41.8927 31.5988C41.8938 31.2173 42.0447 30.8517 42.3125 30.5819C42.5803 30.3121 42.9432 30.16 43.322 30.159H55.1761C55.5417 30.1783 55.886 30.3382 56.138 30.6058C56.39 30.8733 56.5305 31.228 56.5305 31.5969C56.5305 31.9657 56.39 32.3204 56.138 32.5879C55.886 32.8555 55.5417 33.0154 55.1761 33.0347H43.322C42.9436 33.0347 42.5807 32.8836 42.3127 32.6144C42.0448 32.3452 41.8938 31.98 41.8927 31.5988ZM42.4464 44.9886C43.4019 43.4462 43.908 41.6644 43.907 39.8463V34.2135H54.5911V39.87C54.5964 41.2677 54.9004 42.6478 55.4824 43.9166C55.0154 44.1033 54.5638 44.3269 54.1317 44.5851L52.9302 43.7465C52.6836 43.5734 52.3845 43.4932 52.0851 43.5199C51.7857 43.5467 51.5053 43.6787 51.2928 43.8929L50.0324 45.1626C49.8208 45.3764 49.6904 45.6582 49.6638 45.9589C49.6373 46.2596 49.7163 46.5601 49.8871 46.8082L50.7274 48.0265C50.6449 48.1649 50.5743 48.3034 50.4997 48.4458H40.3221L42.4464 44.9886ZM40.6245 63.8212C39.6525 63.8197 38.6986 63.5565 37.8615 63.0588C37.0244 62.5612 36.3345 61.8473 35.8633 60.991C35.392 60.1346 35.1564 59.1669 35.181 58.1881C35.2056 57.2092 35.4893 56.2548 36.003 55.4235L39.5996 49.6048H49.9735C49.8573 49.9147 49.7564 50.2302 49.6712 50.5502L48.2223 50.8152C47.9276 50.8704 47.6613 51.0274 47.4692 51.2592C47.2771 51.491 47.1713 51.783 47.17 52.0849V53.8768C47.169 54.1804 47.2744 54.4746 47.4677 54.7076C47.6609 54.9406 47.9295 55.0975 48.2262 55.1505L49.6672 55.4076C49.894 56.3098 50.2512 57.1734 50.7274 57.9709L49.8871 59.1892C49.7161 59.4374 49.6373 59.7384 49.6645 60.0393C49.6918 60.3402 49.8235 60.6219 50.0363 60.8347L51.2928 62.1045C51.5052 62.3186 51.7853 62.4508 52.0845 62.4783C52.3836 62.5058 52.6829 62.4267 52.9302 62.2548L54.1317 61.4123C54.9225 61.8889 55.7784 62.246 56.6721 62.4724L56.9117 63.8054L40.6245 63.8212ZM69.8299 53.8926C69.8305 53.9194 69.8218 53.9455 69.8053 53.9664C69.7888 53.9874 69.7655 54.0018 69.7396 54.0074L67.9138 54.3357C67.7996 54.3573 67.6944 54.4123 67.6113 54.494C67.5282 54.5756 67.4708 54.6802 67.4465 54.7945C67.2381 55.822 66.8384 56.8005 66.2685 57.6782C66.2025 57.7755 66.1672 57.8906 66.1672 58.0085C66.1672 58.1263 66.2025 58.2414 66.2685 58.3388L67.3287 59.8735C67.3449 59.8944 67.3538 59.9202 67.3538 59.9467C67.3538 59.9732 67.3449 59.999 67.3287 60.0199L66.0722 61.2896C66.0515 61.306 66.0259 61.3149 65.9996 61.3149C65.9732 61.3149 65.9477 61.306 65.9269 61.2896L64.3877 60.2414C64.2916 60.1776 64.179 60.1436 64.0638 60.1436C63.9487 60.1436 63.836 60.1776 63.7399 60.2414C62.8623 60.8087 61.8898 61.2108 60.8696 61.4281C60.7561 61.4526 60.6523 61.5103 60.5712 61.5941C60.4902 61.6778 60.4355 61.7839 60.4141 61.8988L60.0882 63.7263C60.0844 63.7528 60.0712 63.7771 60.0509 63.7946C60.0307 63.812 60.0049 63.8215 59.9783 63.8212H58.1917C58.1655 63.82 58.1405 63.81 58.1205 63.7928C58.1006 63.7756 58.087 63.7522 58.0818 63.7263L57.7559 61.8988C57.7354 61.7834 57.6811 61.6769 57.5999 61.593C57.5187 61.509 57.4144 61.4516 57.3004 61.4281C56.2801 61.2152 55.3081 60.8128 54.434 60.2414C54.3392 60.1797 54.2288 60.1468 54.116 60.1465C53.9971 60.147 53.881 60.1827 53.7822 60.2493L52.2627 61.3094C52.2425 61.3255 52.2176 61.3342 52.192 61.3342C52.1663 61.3342 52.1414 61.3255 52.1213 61.3094L50.8609 60.0397C50.8443 60.0197 50.8352 59.9945 50.8352 59.9685C50.8352 59.9424 50.8443 59.9172 50.8609 59.8973L51.9171 58.3585C51.9831 58.2612 52.0185 58.1461 52.0185 58.0282C52.0185 57.9104 51.9831 57.7953 51.9171 57.6979C51.3473 56.8203 50.9476 55.8418 50.7392 54.8143C50.7158 54.6995 50.6588 54.5944 50.5755 54.5126C50.4922 54.4308 50.3864 54.376 50.2719 54.3555L48.4461 54.0271C48.4205 54.0209 48.3977 54.0063 48.3813 53.9855C48.3649 53.9647 48.3559 53.939 48.3558 53.9124V52.1008C48.3568 52.0749 48.3662 52.0501 48.3825 52.0301C48.3988 52.0101 48.4211 51.996 48.4461 51.99L50.2719 51.6538C50.3859 51.6335 50.4913 51.5793 50.5746 51.4983C50.6578 51.4172 50.7151 51.313 50.7392 51.1989C50.9532 50.1743 51.3525 49.1982 51.9171 48.3192C51.9831 48.2219 52.0185 48.1068 52.0185 47.9889C52.0185 47.871 51.9831 47.7559 51.9171 47.6586L50.8609 46.1238C50.844 46.1033 50.8347 46.0774 50.8347 46.0507C50.8347 46.0239 50.844 45.9981 50.8609 45.9775L52.1213 44.7117C52.1411 44.6949 52.1661 44.6858 52.192 44.6858C52.2178 44.6858 52.2429 44.6949 52.2627 44.7117L53.7822 45.7718C53.8788 45.8364 53.9922 45.8709 54.1081 45.8709C54.2241 45.8709 54.3374 45.8364 54.434 45.7718C55.3071 45.1986 56.2795 44.7961 57.3004 44.5851C57.4144 44.5603 57.5186 44.502 57.5997 44.4175C57.6808 44.333 57.7351 44.2261 57.7559 44.1104L58.0818 42.2829C58.0863 42.2567 58.0998 42.2329 58.1198 42.2156C58.1399 42.1983 58.1653 42.1885 58.1917 42.188H59.9783C60.0049 42.1877 60.0307 42.1972 60.0509 42.2147C60.0712 42.2321 60.0844 42.2564 60.0882 42.2829L60.4141 44.1104C60.4353 44.2259 60.4898 44.3325 60.5708 44.4169C60.6518 44.5013 60.7558 44.5598 60.8696 44.5851C61.89 44.8015 62.8627 45.2036 63.7399 45.7718C63.8357 45.8366 63.9484 45.8712 64.0638 45.8712C64.1792 45.8712 64.292 45.8366 64.3877 45.7718L65.9073 44.7117C65.9285 44.6965 65.9539 44.6884 65.9799 44.6884C66.006 44.6884 66.0313 44.6965 66.0526 44.7117L67.3091 45.9814C67.3253 46.0023 67.3341 46.0281 67.3341 46.0546C67.3341 46.0811 67.3253 46.1069 67.3091 46.1278L66.2489 47.6626C66.1829 47.7599 66.1476 47.875 66.1476 47.9929C66.1476 48.1107 66.1829 48.2258 66.2489 48.3232C66.8167 49.2005 67.2162 50.1772 67.4269 51.2028C67.4509 51.3169 67.5082 51.4212 67.5915 51.5022C67.6747 51.5833 67.7801 51.6374 67.8941 51.6577L69.72 51.994C69.7453 51.9993 69.768 52.0132 69.7844 52.0334C69.8008 52.0535 69.8099 52.0787 69.8103 52.1047L69.8299 53.8926ZM43.5222 52.3974C43.2115 52.3926 42.903 52.4507 42.6151 52.5683C42.3271 52.6859 42.0655 52.8605 41.8457 53.0819C41.626 53.3032 41.4527 53.5668 41.3359 53.8569C41.2192 54.147 41.1616 54.4578 41.1663 54.7708C41.1663 55.2402 41.3045 55.6991 41.5634 56.0894C41.8222 56.4797 42.1902 56.7839 42.6207 56.9635C43.0512 57.1431 43.5249 57.1901 43.9819 57.0986C44.4389 57.007 44.8586 56.7809 45.1881 56.449C45.5176 56.1171 45.742 55.6942 45.8329 55.2338C45.9238 54.7734 45.8771 54.2962 45.6988 53.8625C45.5205 53.4289 45.2185 53.0582 44.8311 52.7974C44.4437 52.5366 43.9882 52.3974 43.5222 52.3974ZM43.5222 55.9575C43.2098 55.9575 42.9102 55.8325 42.6893 55.6099C42.4684 55.3874 42.3443 55.0855 42.3443 54.7708C42.3443 54.4561 42.4684 54.1542 42.6893 53.9317C42.9102 53.7091 43.2098 53.5841 43.5222 53.5841C43.8347 53.5841 44.1343 53.7091 44.3552 53.9317C44.5761 54.1542 44.7002 54.4561 44.7002 54.7708C44.6987 54.927 44.6665 55.0813 44.6057 55.2249C44.5448 55.3686 44.4564 55.4987 44.3455 55.6079C44.2346 55.717 44.1034 55.803 43.9594 55.861C43.8155 55.9189 43.6616 55.9477 43.5065 55.9456L43.5222 55.9575ZM39.7528 57.7691C39.7528 57.8865 39.7182 58.0012 39.6535 58.0988C39.5888 58.1964 39.4968 58.2724 39.3892 58.3173C39.2816 58.3622 39.1632 58.374 39.0489 58.3511C38.9347 58.3282 38.8297 58.2717 38.7473 58.1887C38.665 58.1057 38.6089 58 38.5861 57.8849C38.5634 57.7698 38.5751 57.6505 38.6197 57.5421C38.6642 57.4337 38.7397 57.341 38.8366 57.2758C38.9334 57.2106 39.0473 57.1758 39.1638 57.1758C39.3153 57.1798 39.4593 57.2425 39.5661 57.3508C39.6729 57.4591 39.7341 57.6047 39.7371 57.7573L39.7528 57.7691ZM42.4621 61.2303C42.4621 61.3477 42.4275 61.4624 42.3628 61.5599C42.2981 61.6575 42.2061 61.7336 42.0985 61.7785C41.9909 61.8234 41.8724 61.8351 41.7582 61.8122C41.6439 61.7894 41.539 61.7328 41.4566 61.6499C41.3743 61.5669 41.3182 61.4612 41.2954 61.3461C41.2727 61.231 41.2844 61.1117 41.329 61.0032C41.3735 60.8948 41.449 60.8022 41.5459 60.737C41.6427 60.6718 41.7566 60.637 41.8731 60.637C42.0293 60.637 42.1791 60.6995 42.2896 60.8107C42.4 60.922 42.4621 61.0729 42.4621 61.2303ZM47.4919 59.118C47.4919 59.2354 47.4574 59.3501 47.3927 59.4477C47.328 59.5452 47.236 59.6213 47.1284 59.6662C47.0207 59.7111 46.9023 59.7228 46.7881 59.7C46.6738 59.6771 46.5689 59.6205 46.4865 59.5376C46.4041 59.4546 46.348 59.3489 46.3253 59.2338C46.3026 59.1187 46.3142 58.9994 46.3588 58.8909C46.4034 58.7825 46.4789 58.6899 46.5758 58.6247C46.6726 58.5595 46.7865 58.5247 46.903 58.5247C47.0578 58.5247 47.2065 58.5861 47.3167 58.6956C47.4269 58.8052 47.4899 58.9541 47.4919 59.1101V59.118Z" fill="url(#paint0_linear_2209_10485)"/>
<defs>
<filter id="filter0_d_2209_10485" x="0" y="0" width="119" height="119" filterUnits="userSpaceOnUse" color-interpolation-filters="sRGB">
<feFlood flood-opacity="0" result="BackgroundImageFix"/>
<feColorMatrix in="SourceAlpha" type="matrix" values="0 0 0 0 0 0 0 0 0 0 0 0 0 0 0 0 0 0 127 0" result="hardAlpha"/>
<feOffset dx="7" dy="12"/>
<feGaussianBlur stdDeviation="13"/>
<feComposite in2="hardAlpha" operator="out"/>
<feColorMatrix type="matrix" values="0 0 0 0 0.864583 0 0 0 0 0.818652 0 0 0 0 0.71148 0 0 0 0.29 0"/>
<feBlend mode="normal" in2="BackgroundImageFix" result="effect1_dropShadow_2209_10485"/>
<feBlend mode="normal" in="SourceGraphic" in2="effect1_dropShadow_2209_10485" result="shape"/>
</filter>
<linearGradient id="paint0_linear_2209_10485" x1="52.5" y1="29" x2="52.5" y2="65" gradientUnits="userSpaceOnUse">
<stop stop-color="#0B3255"/>
<stop offset="1" stop-color="#317EC2"/>
</linearGradient>
</defs>
</svg>
