<svg width="119" height="119" viewBox="0 0 119 119" fill="none" xmlns="http://www.w3.org/2000/svg">
<g filter="url(#filter0_d_2209_10472)">
<rect x="19" y="14" width="67" height="67" rx="4" fill="white"/>
</g>
<path d="M52.3899 59.7067C52.3754 59.9955 52.1364 60.2201 51.8492 60.2201C51.8396 60.2201 51.83 60.2201 51.8204 60.2184C50.938 60.1719 50.0589 60.0324 49.2054 59.8046C48.9166 59.7275 48.745 59.4308 48.822 59.142C48.899 58.8532 49.1958 58.6816 49.4846 58.7586C50.2642 58.9671 51.068 59.0939 51.8765 59.1372C52.1749 59.1532 52.4043 59.4083 52.3883 59.7067L52.3899 59.7067ZM41.4182 51.1175C41.3252 50.8335 41.0188 50.6779 40.7348 50.771C40.4508 50.864 40.2952 51.1704 40.3883 51.4544C40.6353 52.21 40.9546 52.9463 41.3396 53.6426C41.4375 53.8223 41.6236 53.9233 41.8144 53.9233C41.9027 53.9233 41.9925 53.9009 42.0759 53.856C42.3374 53.7116 42.4337 53.3827 42.2893 53.1196C41.938 52.4827 41.6444 51.8089 41.4198 51.1191L41.4182 51.1175ZM46.1732 57.2889C45.5155 56.8638 44.8978 56.3681 44.3363 55.8178C44.123 55.6077 43.7796 55.6109 43.5711 55.8259C43.3609 56.0392 43.3641 56.3826 43.5791 56.5911C44.1919 57.1927 44.8657 57.7333 45.5844 58.1986C45.6759 58.258 45.7769 58.2852 45.878 58.2852C46.0561 58.2852 46.2293 58.1986 46.3336 58.0382C46.4957 57.7879 46.4251 57.451 46.1732 57.2889ZM52.4987 34.7604C45.475 34.762 39.7607 40.4765 39.7623 47.5001C39.7623 47.7359 39.7687 47.9766 39.7816 48.2124C39.7976 48.5108 40.0527 48.7402 40.3527 48.7226C40.6511 48.7065 40.8805 48.4514 40.8628 48.1515C40.8516 47.9349 40.8452 47.7151 40.8452 47.4985C40.8436 41.072 46.0721 35.8419 52.4986 35.8419C58.9251 35.8403 64.1553 41.0687 64.1553 47.4953C64.1553 50.6075 62.944 53.5353 60.743 55.7362C59.6681 56.8111 58.3831 57.6709 56.981 58.2549L57.2954 57.7768C57.4606 57.5265 57.3916 57.1912 57.1414 57.026C56.8911 56.8608 56.5558 56.9298 56.3906 57.18L55.205 58.9784C55.1136 59.118 55.0911 59.2928 55.1441 59.45C55.1986 59.6089 55.3222 59.7324 55.4794 59.7869L57.52 60.496C57.5794 60.5169 57.6387 60.5265 57.6981 60.5265C57.9227 60.5265 58.1313 60.3853 58.2099 60.1624C58.3077 59.88 58.1585 59.5704 57.8762 59.4725L57.3291 59.2816C58.8869 58.6415 60.3179 57.6918 61.51 56.4998C63.9164 54.0934 65.2399 50.8947 65.2399 47.4917C65.2383 40.4681 59.5239 34.7537 52.5002 34.7537L52.4987 34.7604ZM72 45.0791V49.9129C72.0016 50.6108 71.5235 51.1915 70.8385 51.3279L68.5139 51.7867L66.8567 55.7877L68.177 57.7546C68.5652 58.3337 68.493 59.0829 67.9989 59.577L64.5818 62.9957C64.0893 63.4898 63.3401 63.562 62.7594 63.1738L60.7925 61.8551L56.7915 63.5123L56.3343 65.8369C56.1995 66.5219 55.6188 67 54.9209 67H50.0871C49.3892 67.0016 48.8085 66.5235 48.6721 65.8385L48.2133 63.5139L44.2123 61.8567L42.2454 63.177C41.6663 63.5652 40.9171 63.493 40.423 62.9989L37.0043 59.5818C36.5118 59.0893 36.438 58.3401 36.8262 57.7594L38.1449 55.7909L36.4877 51.7899L34.1631 51.3327C33.478 51.1979 33 50.6172 33 49.9193V45.0855C32.9984 44.3876 33.4765 43.8069 34.1615 43.6721L36.4844 43.2133L38.1417 39.2123L36.8214 37.2454C36.4331 36.6663 36.5053 35.9171 36.9994 35.423L40.4165 32.0043C40.909 31.5118 41.6582 31.438 42.239 31.8262L44.2074 33.1449L48.2085 31.4877L48.6657 29.1631C48.8004 28.478 49.3812 28 50.079 28H54.9129C55.6107 27.9984 56.1915 28.4765 56.3278 29.1615L56.7867 31.4861L60.7877 33.1433L62.7545 31.823C63.3337 31.4348 64.0829 31.507 64.577 32.0011L67.9957 35.4182C68.4882 35.9107 68.562 36.6598 68.1737 37.2406L66.8535 39.2091L68.5107 43.2101L70.8353 43.6673C71.5203 43.8021 71.9984 44.3828 71.9984 45.0807L72 45.0791ZM70.9171 45.0791C70.9171 44.9026 70.8016 44.7614 70.6284 44.7277L68.0198 44.2128C67.8417 44.1775 67.6941 44.0556 67.6236 43.8887L65.7434 39.3518C65.6744 39.185 65.6936 38.994 65.7931 38.8432L67.2738 36.6342C67.3717 36.4882 67.3541 36.3053 67.2289 36.1818L63.8102 32.7647C63.6851 32.6395 63.5038 32.6219 63.3578 32.7197L61.1488 34.2005C60.998 34.3016 60.807 34.3208 60.6402 34.2502L56.1033 32.3716C55.9364 32.3027 55.8145 32.1535 55.7792 31.9754L55.2643 29.3668C55.2306 29.1936 55.0894 29.0781 54.9129 29.0781H50.0791C49.9026 29.0781 49.7614 29.1952 49.7277 29.3668L49.2128 31.9754C49.1775 32.1535 49.0556 32.3011 48.8887 32.3716L44.3518 34.2518C44.185 34.3208 43.9941 34.3016 43.8432 34.2021L41.6342 32.7214C41.4882 32.6235 41.3053 32.6411 41.1818 32.7663L37.7647 36.185C37.6395 36.3101 37.6219 36.4914 37.7198 36.6374L39.2005 38.8464C39.3016 38.9972 39.3208 39.1882 39.2502 39.355L37.3716 43.8919C37.3027 44.0588 37.1535 44.1807 36.9754 44.216L34.3668 44.7309C34.1936 44.7646 34.0781 44.9058 34.0781 45.0823V49.9161C34.0781 50.0926 34.1952 50.2338 34.3668 50.2675L36.9754 50.7808C37.1535 50.8161 37.3011 50.938 37.3716 51.1049L39.2518 55.6418C39.3208 55.8086 39.3016 55.9995 39.2021 56.1504L37.7214 58.3594C37.6235 58.5054 37.6411 58.6883 37.7663 58.8118L41.185 62.2289C41.3101 62.3541 41.4914 62.3717 41.6374 62.2722L43.8464 60.7915C43.9379 60.7305 44.0422 60.7 44.1481 60.7C44.2186 60.7 44.2892 60.7129 44.355 60.7418L48.8919 62.6203C49.0588 62.6893 49.1807 62.8385 49.216 63.0166L49.7309 65.6251C49.7646 65.7984 49.9058 65.9139 50.0823 65.9139H54.9161C55.0926 65.9139 55.2338 65.7968 55.2675 65.6251L55.7824 63.0166C55.8177 62.8385 55.9396 62.6909 56.1065 62.6203L60.6434 60.7402C60.8102 60.6712 61.0011 60.6904 61.152 60.7899L63.361 62.2706C63.507 62.3685 63.6899 62.3508 63.8134 62.2257L67.2305 58.807C67.3557 58.6819 67.3733 58.5006 67.2754 58.3546L65.7947 56.1455C65.6936 55.9947 65.6744 55.8038 65.745 55.637L67.6236 51.1001C67.6925 50.9332 67.8417 50.8113 68.0198 50.776L70.6284 50.261C70.8016 50.2274 70.9171 50.0862 70.9171 49.9097V45.0759L70.9171 45.0791ZM59.527 53.7599L45.4768 53.7615C44.5656 53.7615 43.7811 53.3091 43.3239 52.5198C42.8683 51.7305 42.8683 50.8241 43.3239 50.0348L50.3475 37.8664C50.8032 37.0771 51.5876 36.6231 52.4989 36.6231C53.4101 36.6231 54.1946 37.0755 54.6502 37.8648L61.6767 50.0315C62.1323 50.8208 62.1323 51.7272 61.6767 52.5165C61.2211 53.3059 60.4366 53.7598 59.5254 53.7598L59.527 53.7599ZM45.4768 52.6786L59.527 52.677C60.0484 52.677 60.4799 52.4283 60.7398 51.9759C61.0013 51.5235 61.0013 51.0262 60.7398 50.5738L53.7133 38.4071C53.4518 37.9546 53.0218 37.706 52.4989 37.706C51.9775 37.706 51.5459 37.9547 51.2845 38.4071L44.2608 50.5754C43.9993 51.0279 43.9993 51.5252 44.2608 51.9776C44.5223 52.43 44.9522 52.6786 45.4752 52.6786L45.4768 52.6786ZM53.7691 40.794C54.0065 41.0459 54.1204 41.3635 54.0996 41.7084L53.7579 47.3284C53.721 47.9235 53.2268 48.3888 52.6317 48.3888H52.3702C51.775 48.3888 51.2793 47.9235 51.244 47.3284L50.9007 41.7084C50.8798 41.3619 50.9937 41.0459 51.2311 40.794C51.4686 40.5421 51.7766 40.4074 52.1247 40.4074H52.8755C53.222 40.4074 53.5317 40.5405 53.7691 40.794ZM53.0183 41.6427C53.0215 41.5961 53.0119 41.5689 52.9798 41.5352C52.9477 41.5015 52.9221 41.4902 52.8755 41.4902H52.1247C52.0782 41.4902 52.0526 41.5015 52.0205 41.5352C51.9884 41.5689 51.9788 41.5961 51.982 41.6427L52.3253 47.2626C52.3269 47.2866 52.3461 47.3059 52.3702 47.3059H52.6317C52.6558 47.3059 52.675 47.2866 52.6766 47.2626L53.0183 41.6427ZM53.9376 50.4951C53.9376 51.2876 53.2927 51.9309 52.5017 51.9309C51.7092 51.9309 51.0659 51.286 51.0659 50.4951C51.0659 49.7026 51.7108 49.0593 52.5017 49.0593C53.2943 49.0593 53.9376 49.7042 53.9376 50.4951ZM52.8547 50.4951C52.8547 50.301 52.6959 50.1422 52.5017 50.1422C52.3076 50.1422 52.1488 50.301 52.1488 50.4951C52.1488 50.6892 52.3076 50.8481 52.5017 50.8481C52.6959 50.8481 52.8547 50.6892 52.8547 50.4951Z" fill="black"/>
<path d="M52.3899 59.7067C52.3754 59.9955 52.1364 60.2201 51.8492 60.2201C51.8396 60.2201 51.83 60.2201 51.8204 60.2184C50.938 60.1719 50.0589 60.0324 49.2054 59.8046C48.9166 59.7275 48.745 59.4308 48.822 59.142C48.899 58.8532 49.1958 58.6816 49.4846 58.7586C50.2642 58.9671 51.068 59.0939 51.8765 59.1372C52.1749 59.1532 52.4043 59.4083 52.3883 59.7067L52.3899 59.7067ZM41.4182 51.1175C41.3252 50.8335 41.0188 50.6779 40.7348 50.771C40.4508 50.864 40.2952 51.1704 40.3883 51.4544C40.6353 52.21 40.9546 52.9463 41.3396 53.6426C41.4375 53.8223 41.6236 53.9233 41.8144 53.9233C41.9027 53.9233 41.9925 53.9009 42.0759 53.856C42.3374 53.7116 42.4337 53.3827 42.2893 53.1196C41.938 52.4827 41.6444 51.8089 41.4198 51.1191L41.4182 51.1175ZM46.1732 57.2889C45.5155 56.8638 44.8978 56.3681 44.3363 55.8178C44.123 55.6077 43.7796 55.6109 43.5711 55.8259C43.3609 56.0392 43.3641 56.3826 43.5791 56.5911C44.1919 57.1927 44.8657 57.7333 45.5844 58.1986C45.6759 58.258 45.7769 58.2852 45.878 58.2852C46.0561 58.2852 46.2293 58.1986 46.3336 58.0382C46.4957 57.7879 46.4251 57.451 46.1732 57.2889ZM52.4987 34.7604C45.475 34.762 39.7607 40.4765 39.7623 47.5001C39.7623 47.7359 39.7687 47.9766 39.7816 48.2124C39.7976 48.5108 40.0527 48.7402 40.3527 48.7226C40.6511 48.7065 40.8805 48.4514 40.8628 48.1515C40.8516 47.9349 40.8452 47.7151 40.8452 47.4985C40.8436 41.072 46.0721 35.8419 52.4986 35.8419C58.9251 35.8403 64.1553 41.0687 64.1553 47.4953C64.1553 50.6075 62.944 53.5353 60.743 55.7362C59.6681 56.8111 58.3831 57.6709 56.981 58.2549L57.2954 57.7768C57.4606 57.5265 57.3916 57.1912 57.1414 57.026C56.8911 56.8608 56.5558 56.9298 56.3906 57.18L55.205 58.9784C55.1136 59.118 55.0911 59.2928 55.1441 59.45C55.1986 59.6089 55.3222 59.7324 55.4794 59.7869L57.52 60.496C57.5794 60.5169 57.6387 60.5265 57.6981 60.5265C57.9227 60.5265 58.1313 60.3853 58.2099 60.1624C58.3077 59.88 58.1585 59.5704 57.8762 59.4725L57.3291 59.2816C58.8869 58.6415 60.3179 57.6918 61.51 56.4998C63.9164 54.0934 65.2399 50.8947 65.2399 47.4917C65.2383 40.4681 59.5239 34.7537 52.5002 34.7537L52.4987 34.7604ZM72 45.0791V49.9129C72.0016 50.6108 71.5235 51.1915 70.8385 51.3279L68.5139 51.7867L66.8567 55.7877L68.177 57.7546C68.5652 58.3337 68.493 59.0829 67.9989 59.577L64.5818 62.9957C64.0893 63.4898 63.3401 63.562 62.7594 63.1738L60.7925 61.8551L56.7915 63.5123L56.3343 65.8369C56.1995 66.5219 55.6188 67 54.9209 67H50.0871C49.3892 67.0016 48.8085 66.5235 48.6721 65.8385L48.2133 63.5139L44.2123 61.8567L42.2454 63.177C41.6663 63.5652 40.9171 63.493 40.423 62.9989L37.0043 59.5818C36.5118 59.0893 36.438 58.3401 36.8262 57.7594L38.1449 55.7909L36.4877 51.7899L34.1631 51.3327C33.478 51.1979 33 50.6172 33 49.9193V45.0855C32.9984 44.3876 33.4765 43.8069 34.1615 43.6721L36.4844 43.2133L38.1417 39.2123L36.8214 37.2454C36.4331 36.6663 36.5053 35.9171 36.9994 35.423L40.4165 32.0043C40.909 31.5118 41.6582 31.438 42.239 31.8262L44.2074 33.1449L48.2085 31.4877L48.6657 29.1631C48.8004 28.478 49.3812 28 50.079 28H54.9129C55.6107 27.9984 56.1915 28.4765 56.3278 29.1615L56.7867 31.4861L60.7877 33.1433L62.7545 31.823C63.3337 31.4348 64.0829 31.507 64.577 32.0011L67.9957 35.4182C68.4882 35.9107 68.562 36.6598 68.1737 37.2406L66.8535 39.2091L68.5107 43.2101L70.8353 43.6673C71.5203 43.8021 71.9984 44.3828 71.9984 45.0807L72 45.0791ZM70.9171 45.0791C70.9171 44.9026 70.8016 44.7614 70.6284 44.7277L68.0198 44.2128C67.8417 44.1775 67.6941 44.0556 67.6236 43.8887L65.7434 39.3518C65.6744 39.185 65.6936 38.994 65.7931 38.8432L67.2738 36.6342C67.3717 36.4882 67.3541 36.3053 67.2289 36.1818L63.8102 32.7647C63.6851 32.6395 63.5038 32.6219 63.3578 32.7197L61.1488 34.2005C60.998 34.3016 60.807 34.3208 60.6402 34.2502L56.1033 32.3716C55.9364 32.3027 55.8145 32.1535 55.7792 31.9754L55.2643 29.3668C55.2306 29.1936 55.0894 29.0781 54.9129 29.0781H50.0791C49.9026 29.0781 49.7614 29.1952 49.7277 29.3668L49.2128 31.9754C49.1775 32.1535 49.0556 32.3011 48.8887 32.3716L44.3518 34.2518C44.185 34.3208 43.9941 34.3016 43.8432 34.2021L41.6342 32.7214C41.4882 32.6235 41.3053 32.6411 41.1818 32.7663L37.7647 36.185C37.6395 36.3101 37.6219 36.4914 37.7198 36.6374L39.2005 38.8464C39.3016 38.9972 39.3208 39.1882 39.2502 39.355L37.3716 43.8919C37.3027 44.0588 37.1535 44.1807 36.9754 44.216L34.3668 44.7309C34.1936 44.7646 34.0781 44.9058 34.0781 45.0823V49.9161C34.0781 50.0926 34.1952 50.2338 34.3668 50.2675L36.9754 50.7808C37.1535 50.8161 37.3011 50.938 37.3716 51.1049L39.2518 55.6418C39.3208 55.8086 39.3016 55.9995 39.2021 56.1504L37.7214 58.3594C37.6235 58.5054 37.6411 58.6883 37.7663 58.8118L41.185 62.2289C41.3101 62.3541 41.4914 62.3717 41.6374 62.2722L43.8464 60.7915C43.9379 60.7305 44.0422 60.7 44.1481 60.7C44.2186 60.7 44.2892 60.7129 44.355 60.7418L48.8919 62.6203C49.0588 62.6893 49.1807 62.8385 49.216 63.0166L49.7309 65.6251C49.7646 65.7984 49.9058 65.9139 50.0823 65.9139H54.9161C55.0926 65.9139 55.2338 65.7968 55.2675 65.6251L55.7824 63.0166C55.8177 62.8385 55.9396 62.6909 56.1065 62.6203L60.6434 60.7402C60.8102 60.6712 61.0011 60.6904 61.152 60.7899L63.361 62.2706C63.507 62.3685 63.6899 62.3508 63.8134 62.2257L67.2305 58.807C67.3557 58.6819 67.3733 58.5006 67.2754 58.3546L65.7947 56.1455C65.6936 55.9947 65.6744 55.8038 65.745 55.637L67.6236 51.1001C67.6925 50.9332 67.8417 50.8113 68.0198 50.776L70.6284 50.261C70.8016 50.2274 70.9171 50.0862 70.9171 49.9097V45.0759L70.9171 45.0791ZM59.527 53.7599L45.4768 53.7615C44.5656 53.7615 43.7811 53.3091 43.3239 52.5198C42.8683 51.7305 42.8683 50.8241 43.3239 50.0348L50.3475 37.8664C50.8032 37.0771 51.5876 36.6231 52.4989 36.6231C53.4101 36.6231 54.1946 37.0755 54.6502 37.8648L61.6767 50.0315C62.1323 50.8208 62.1323 51.7272 61.6767 52.5165C61.2211 53.3059 60.4366 53.7598 59.5254 53.7598L59.527 53.7599ZM45.4768 52.6786L59.527 52.677C60.0484 52.677 60.4799 52.4283 60.7398 51.9759C61.0013 51.5235 61.0013 51.0262 60.7398 50.5738L53.7133 38.4071C53.4518 37.9546 53.0218 37.706 52.4989 37.706C51.9775 37.706 51.5459 37.9547 51.2845 38.4071L44.2608 50.5754C43.9993 51.0279 43.9993 51.5252 44.2608 51.9776C44.5223 52.43 44.9522 52.6786 45.4752 52.6786L45.4768 52.6786ZM53.7691 40.794C54.0065 41.0459 54.1204 41.3635 54.0996 41.7084L53.7579 47.3284C53.721 47.9235 53.2268 48.3888 52.6317 48.3888H52.3702C51.775 48.3888 51.2793 47.9235 51.244 47.3284L50.9007 41.7084C50.8798 41.3619 50.9937 41.0459 51.2311 40.794C51.4686 40.5421 51.7766 40.4074 52.1247 40.4074H52.8755C53.222 40.4074 53.5317 40.5405 53.7691 40.794ZM53.0183 41.6427C53.0215 41.5961 53.0119 41.5689 52.9798 41.5352C52.9477 41.5015 52.9221 41.4902 52.8755 41.4902H52.1247C52.0782 41.4902 52.0526 41.5015 52.0205 41.5352C51.9884 41.5689 51.9788 41.5961 51.982 41.6427L52.3253 47.2626C52.3269 47.2866 52.3461 47.3059 52.3702 47.3059H52.6317C52.6558 47.3059 52.675 47.2866 52.6766 47.2626L53.0183 41.6427ZM53.9376 50.4951C53.9376 51.2876 53.2927 51.9309 52.5017 51.9309C51.7092 51.9309 51.0659 51.286 51.0659 50.4951C51.0659 49.7026 51.7108 49.0593 52.5017 49.0593C53.2943 49.0593 53.9376 49.7042 53.9376 50.4951ZM52.8547 50.4951C52.8547 50.301 52.6959 50.1422 52.5017 50.1422C52.3076 50.1422 52.1488 50.301 52.1488 50.4951C52.1488 50.6892 52.3076 50.8481 52.5017 50.8481C52.6959 50.8481 52.8547 50.6892 52.8547 50.4951Z" fill="url(#paint0_linear_2209_10472)"/>
<defs>
<filter id="filter0_d_2209_10472" x="0" y="0" width="119" height="119" filterUnits="userSpaceOnUse" color-interpolation-filters="sRGB">
<feFlood flood-opacity="0" result="BackgroundImageFix"/>
<feColorMatrix in="SourceAlpha" type="matrix" values="0 0 0 0 0 0 0 0 0 0 0 0 0 0 0 0 0 0 127 0" result="hardAlpha"/>
<feOffset dx="7" dy="12"/>
<feGaussianBlur stdDeviation="13"/>
<feComposite in2="hardAlpha" operator="out"/>
<feColorMatrix type="matrix" values="0 0 0 0 0.864583 0 0 0 0 0.818652 0 0 0 0 0.71148 0 0 0 0.29 0"/>
<feBlend mode="normal" in2="BackgroundImageFix" result="effect1_dropShadow_2209_10472"/>
<feBlend mode="normal" in="SourceGraphic" in2="effect1_dropShadow_2209_10472" result="shape"/>
</filter>
<linearGradient id="paint0_linear_2209_10472" x1="52.5" y1="28" x2="52.5" y2="67" gradientUnits="userSpaceOnUse">
<stop stop-color="#0B3255"/>
<stop offset="1" stop-color="#317EC2"/>
</linearGradient>
</defs>
</svg>
