<svg width="109" height="109" viewBox="0 0 109 109" fill="none" xmlns="http://www.w3.org/2000/svg">
<circle cx="54.5" cy="54.5" r="52.0885" stroke="#FFAEC3" stroke-width="4.82301"/>
<circle cx="54.258" cy="54.259" r="49.9181" fill="url(#paint0_radial_4948_2588)"/>
<path d="M27.4902 12.0576L41.9593 34.7258" stroke="white" stroke-width="0.482301"/>
<path d="M66.0762 73.792L80.5452 96.4601" stroke="white" stroke-width="0.482301"/>
<path d="M44.5855 52V45H47.2055C47.7655 45 48.2288 45.0967 48.5955 45.29C48.9688 45.4833 49.2455 45.7433 49.4255 46.07C49.6055 46.39 49.6955 46.7467 49.6955 47.14C49.6955 47.5133 49.6055 47.8633 49.4255 48.19C49.2521 48.51 48.9788 48.77 48.6055 48.97C48.2388 49.1633 47.7655 49.26 47.1855 49.26H45.9355V52H44.5855ZM48.2155 52L46.7755 48.92H48.2355L49.7555 52H48.2155ZM45.9355 48.28H47.1155C47.5288 48.28 47.8321 48.18 48.0255 47.98C48.2188 47.78 48.3155 47.5167 48.3155 47.19C48.3155 46.8633 48.2188 46.6067 48.0255 46.42C47.8321 46.2267 47.5288 46.13 47.1155 46.13H45.9355V48.28ZM50.9424 52V46.78H52.2924V52H50.9424ZM51.6224 46.15C51.3824 46.15 51.1824 46.08 51.0224 45.94C50.8691 45.7933 50.7924 45.61 50.7924 45.39C50.7924 45.17 50.8691 44.99 51.0224 44.85C51.1824 44.7033 51.3824 44.63 51.6224 44.63C51.8691 44.63 52.0691 44.7033 52.2224 44.85C52.3824 44.99 52.4624 45.17 52.4624 45.39C52.4624 45.61 52.3824 45.7933 52.2224 45.94C52.0691 46.08 51.8691 46.15 51.6224 46.15ZM56.1256 52.12C55.619 52.12 55.169 52.0067 54.7756 51.78C54.389 51.5467 54.0856 51.2267 53.8656 50.82C53.6456 50.4133 53.5356 49.9533 53.5356 49.44C53.5356 48.8933 53.6456 48.4133 53.8656 48C54.0856 47.58 54.389 47.2533 54.7756 47.02C55.169 46.78 55.619 46.66 56.1256 46.66C56.779 46.66 57.3256 46.8333 57.7656 47.18C58.2056 47.5267 58.4856 48.0067 58.6056 48.62H57.1756C57.1156 48.3667 56.989 48.17 56.7956 48.03C56.609 47.89 56.3823 47.82 56.1156 47.82C55.8623 47.82 55.6456 47.8833 55.4656 48.01C55.2856 48.1367 55.1456 48.3167 55.0456 48.55C54.9523 48.7833 54.9056 49.0633 54.9056 49.39C54.9056 49.6367 54.9323 49.86 54.9856 50.06C55.0456 50.2533 55.1256 50.4167 55.2256 50.55C55.3323 50.6833 55.459 50.7867 55.6056 50.86C55.759 50.9333 55.929 50.97 56.1156 50.97C56.2956 50.97 56.4556 50.94 56.5956 50.88C56.7423 50.8133 56.8656 50.72 56.9656 50.6C57.0723 50.48 57.1423 50.3367 57.1756 50.17H58.6056C58.4856 50.7633 58.2023 51.2367 57.7556 51.59C57.3156 51.9433 56.7723 52.12 56.1256 52.12ZM62.1987 52.12C61.6987 52.12 61.2553 52.01 60.8687 51.79C60.4887 51.5633 60.192 51.2467 59.9787 50.84C59.7653 50.4333 59.6587 49.9667 59.6587 49.44C59.6587 48.9 59.762 48.42 59.9687 48C60.182 47.58 60.4787 47.2533 60.8587 47.02C61.2453 46.78 61.6953 46.66 62.2087 46.66C62.722 46.66 63.162 46.7733 63.5287 47C63.8953 47.2267 64.1753 47.5367 64.3687 47.93C64.5687 48.3167 64.6687 48.7567 64.6687 49.25C64.6687 49.3167 64.6687 49.39 64.6687 49.47C64.6687 49.55 64.662 49.6333 64.6487 49.72H60.6187V48.9H63.3187C63.3053 48.54 63.1953 48.26 62.9887 48.06C62.782 47.86 62.522 47.76 62.2087 47.76C61.982 47.76 61.7753 47.8167 61.5887 47.93C61.402 48.0433 61.2553 48.2133 61.1487 48.44C61.042 48.66 60.9887 48.9433 60.9887 49.29V49.58C60.9887 49.8733 61.0353 50.1267 61.1287 50.34C61.2287 50.5533 61.3687 50.72 61.5487 50.84C61.7287 50.96 61.942 51.02 62.1887 51.02C62.4553 51.02 62.662 50.9733 62.8087 50.88C62.9553 50.7867 63.072 50.66 63.1587 50.5H64.5287C64.4353 50.8 64.2787 51.0733 64.0587 51.32C63.8453 51.5667 63.582 51.7633 63.2687 51.91C62.9553 52.05 62.5987 52.12 62.1987 52.12ZM34.2974 63V56H35.6474V63H34.2974ZM37.0699 63V57.78H38.2499L38.3499 58.57C38.4965 58.29 38.7099 58.07 38.9899 57.91C39.2699 57.7433 39.6065 57.66 39.9999 57.66C40.4065 57.66 40.7532 57.7433 41.0399 57.91C41.3265 58.0767 41.5465 58.3167 41.6999 58.63C41.8532 58.9433 41.9299 59.3267 41.9299 59.78V63H40.5799V59.91C40.5799 59.5567 40.4899 59.2833 40.3099 59.09C40.1365 58.8967 39.8832 58.8 39.5499 58.8C39.3432 58.8 39.1532 58.8467 38.9799 58.94C38.8065 59.0333 38.6699 59.17 38.5699 59.35C38.4699 59.53 38.4199 59.7467 38.4199 60V63H37.0699ZM45.4501 63.12C44.9968 63.12 44.5935 63.0067 44.2401 62.78C43.8935 62.5467 43.6235 62.23 43.4301 61.83C43.2368 61.4233 43.1401 60.9567 43.1401 60.43C43.1401 59.89 43.2401 59.4133 43.4401 59C43.6401 58.58 43.9235 58.2533 44.2901 58.02C44.6568 57.78 45.0801 57.66 45.5601 57.66C45.9001 57.66 46.2001 57.7267 46.4601 57.86C46.7268 57.9867 46.9401 58.17 47.1001 58.41V55.8H48.4501V63H47.2501L47.1001 62.3C47.0001 62.4467 46.8768 62.5833 46.7301 62.71C46.5835 62.8367 46.4068 62.9367 46.2001 63.01C45.9935 63.0833 45.7435 63.12 45.4501 63.12ZM45.8301 61.94C46.0901 61.94 46.3168 61.8767 46.5101 61.75C46.7101 61.6233 46.8635 61.4433 46.9701 61.21C47.0835 60.9767 47.1401 60.7033 47.1401 60.39C47.1401 60.0767 47.0835 59.8033 46.9701 59.57C46.8635 59.3367 46.7101 59.1567 46.5101 59.03C46.3168 58.9033 46.0868 58.84 45.8201 58.84C45.5735 58.84 45.3501 58.9033 45.1501 59.03C44.9501 59.1567 44.7935 59.3367 44.6801 59.57C44.5668 59.7967 44.5101 60.0667 44.5101 60.38C44.5101 60.7 44.5668 60.9767 44.6801 61.21C44.7935 61.4433 44.9501 61.6233 45.1501 61.75C45.3501 61.8767 45.5768 61.94 45.8301 61.94ZM51.7638 63.12C51.3571 63.12 51.0071 63.0433 50.7138 62.89C50.4271 62.73 50.2071 62.4967 50.0538 62.19C49.9005 61.8833 49.8238 61.5 49.8238 61.04V57.78H51.1638V60.88C51.1638 61.2533 51.2538 61.53 51.4338 61.71C51.6138 61.89 51.8705 61.98 52.2038 61.98C52.4171 61.98 52.6071 61.9367 52.7738 61.85C52.9471 61.7633 53.0838 61.63 53.1838 61.45C53.2838 61.27 53.3338 61.05 53.3338 60.79V57.78H54.6838V63H53.4938L53.3938 62.21C53.2538 62.49 53.0438 62.7133 52.7638 62.88C52.4905 63.04 52.1571 63.12 51.7638 63.12ZM58.0943 63.12C57.5809 63.12 57.1576 63.0467 56.8243 62.9C56.4909 62.7467 56.2376 62.54 56.0643 62.28C55.8909 62.0133 55.7943 61.7167 55.7743 61.39H57.1143C57.1343 61.5167 57.1809 61.6333 57.2543 61.74C57.3276 61.8467 57.4309 61.9333 57.5643 62C57.7043 62.06 57.8743 62.09 58.0743 62.09C58.2476 62.09 58.3943 62.0667 58.5143 62.02C58.6409 61.9667 58.7343 61.8967 58.7943 61.81C58.8609 61.7167 58.8943 61.61 58.8943 61.49C58.8943 61.3367 58.8509 61.2167 58.7643 61.13C58.6843 61.0433 58.5676 60.9767 58.4143 60.93C58.2609 60.8767 58.0709 60.8333 57.8443 60.8C57.5509 60.7533 57.2809 60.6933 57.0343 60.62C56.7943 60.5467 56.5876 60.4533 56.4143 60.34C56.2476 60.22 56.1176 60.07 56.0243 59.89C55.9309 59.71 55.8843 59.4933 55.8843 59.24C55.8843 58.94 55.9676 58.67 56.1343 58.43C56.3009 58.19 56.5409 58.0033 56.8543 57.87C57.1676 57.73 57.5443 57.66 57.9843 57.66C58.6176 57.66 59.1076 57.7967 59.4543 58.07C59.8076 58.3433 60.0176 58.7167 60.0843 59.19H58.8143C58.7743 59.0367 58.6809 58.9167 58.5343 58.83C58.3943 58.7433 58.2043 58.7 57.9643 58.7C57.7176 58.7 57.5276 58.7467 57.3943 58.84C57.2609 58.9267 57.1943 59.0467 57.1943 59.2C57.1943 59.3 57.2243 59.3933 57.2843 59.48C57.3509 59.56 57.4576 59.63 57.6043 59.69C57.7576 59.7433 57.9643 59.7933 58.2243 59.84C58.6843 59.9067 59.0609 59.9933 59.3543 60.1C59.6543 60.2067 59.8776 60.3633 60.0243 60.57C60.1776 60.7767 60.2509 61.06 60.2443 61.42C60.2443 61.7733 60.1543 62.0767 59.9743 62.33C59.8009 62.5833 59.5509 62.78 59.2243 62.92C58.9043 63.0533 58.5276 63.12 58.0943 63.12ZM63.6086 63C63.2553 63 62.9453 62.9467 62.6786 62.84C62.4186 62.7267 62.2153 62.5433 62.0686 62.29C61.922 62.03 61.8486 61.6767 61.8486 61.23V58.91H60.9486V57.78H61.8486L61.9986 56.33H63.1986V57.78H64.5486V58.91H63.1986V61.25C63.1986 61.4767 63.2486 61.6333 63.3486 61.72C63.4486 61.8067 63.6186 61.85 63.8586 61.85H64.5686V63H63.6086ZM65.7711 63V57.78H66.9711L67.0911 58.7C67.2244 58.4733 67.3877 58.2833 67.5811 58.13C67.7744 57.9767 67.9977 57.86 68.2511 57.78C68.5111 57.7 68.7977 57.66 69.1111 57.66V59.09H68.4311C68.2511 59.09 68.0811 59.1133 67.9211 59.16C67.7611 59.2 67.6211 59.27 67.5011 59.37C67.3811 59.47 67.2877 59.6067 67.2211 59.78C67.1544 59.9467 67.1211 60.16 67.1211 60.42V63H65.7711ZM70.7184 65.2L71.8884 62.44H71.5884L69.5884 57.78H71.0584L72.4784 61.18L73.7584 57.78H75.1984L72.1384 65.2H70.7184Z" fill="white"/>
<defs>
<radialGradient id="paint0_radial_4948_2588" cx="0" cy="0" r="1" gradientUnits="userSpaceOnUse" gradientTransform="translate(54.258 54.259) rotate(90) scale(49.9181)">
<stop stop-color="#F24F7A"/>
<stop offset="1" stop-color="#DB1F51"/>
</radialGradient>
</defs>
</svg>
