<svg width="21" height="14" viewBox="0 0 21 14" fill="none" xmlns="http://www.w3.org/2000/svg">
<path d="M1.05251 8.06748C1.11798 8.07811 1.18423 8.08301 1.25052 8.08215H16.5382L16.2921 8.19663C16.0515 8.3105 15.8326 8.46548 15.6453 8.65455L12.4799 11.8199C12.063 12.2179 11.993 12.858 12.3139 13.3367C12.6874 13.8469 13.4038 13.9576 13.9139 13.5841C13.9551 13.5539 13.9943 13.521 14.0311 13.4856L19.7551 7.76161C20.2024 7.31478 20.2028 6.58995 19.756 6.14262L19.7551 6.14173L14.0311 0.41777C13.5834 -0.0286627 12.8586 -0.0276613 12.4121 0.420024C12.377 0.455262 12.3442 0.492754 12.3139 0.532249C11.993 1.01095 12.063 1.65114 12.4799 2.0491L15.6395 5.22017C15.8075 5.38831 16.0006 5.5293 16.2119 5.63802L16.5554 5.79257H1.31352C0.728708 5.77085 0.215626 6.17936 0.105762 6.75419C0.00455666 7.37828 0.428417 7.96624 1.05251 8.06748Z" fill="white"/>
</svg>
