<svg width="18" height="15" viewBox="0 0 18 15" fill="none" xmlns="http://www.w3.org/2000/svg">
<path d="M1.10632 12.1527C1.15317 12.1057 1.20401 12.063 1.25825 12.0248L13.651 3.07314L13.3844 3.12446C13.1227 3.17303 12.8546 3.17556 12.592 3.132L8.17256 2.41952C7.6016 2.34103 7.16995 1.86308 7.14981 1.28711C7.15391 0.654876 7.66973 0.145651 8.30199 0.149726C8.35308 0.150071 8.4041 0.153813 8.45468 0.160968L16.4464 1.44935C17.0707 1.54963 17.4954 2.13698 17.3951 2.76124L17.3949 2.76249L16.1065 10.7542C16.005 11.3782 15.4169 11.8018 14.7928 11.7004C14.7437 11.6924 14.6951 11.6812 14.6475 11.6669C14.107 11.4668 13.7889 10.9068 13.8939 10.3401L14.5983 5.91938C14.636 5.68473 14.71 5.45736 14.8177 5.24549L15.0056 4.91911L2.64998 13.844C2.18863 14.204 1.5335 14.1733 1.10785 13.7717C0.660373 13.325 0.659691 12.6002 1.10632 12.1527Z" fill="white"/>
</svg>
