<svg width="109" height="109" viewBox="0 0 109 109" fill="none" xmlns="http://www.w3.org/2000/svg">
<circle cx="54.5" cy="54.5" r="52.0885" stroke="#FFAEC3" stroke-width="4.82301"/>
<circle cx="54.258" cy="54.259" r="49.9181" fill="url(#paint0_radial_4948_2576)"/>
<path d="M27.4902 12.0576L41.9593 34.7258" stroke="white" stroke-width="0.482301"/>
<path d="M66.0762 73.792L80.5452 96.4601" stroke="white" stroke-width="0.482301"/>
<path d="M36.7515 52V45H39.3715C39.9315 45 40.3948 45.0967 40.7615 45.29C41.1348 45.4833 41.4115 45.7433 41.5915 46.07C41.7715 46.39 41.8615 46.7467 41.8615 47.14C41.8615 47.5133 41.7715 47.8633 41.5915 48.19C41.4182 48.51 41.1448 48.77 40.7715 48.97C40.4048 49.1633 39.9315 49.26 39.3515 49.26H38.1015V52H36.7515ZM40.3815 52L38.9415 48.92H40.4015L41.9215 52H40.3815ZM38.1015 48.28H39.2815C39.6948 48.28 39.9982 48.18 40.1915 47.98C40.3848 47.78 40.4815 47.5167 40.4815 47.19C40.4815 46.8633 40.3848 46.6067 40.1915 46.42C39.9982 46.2267 39.6948 46.13 39.2815 46.13H38.1015V48.28ZM45.0284 52.12C44.6218 52.12 44.2718 52.0433 43.9784 51.89C43.6918 51.73 43.4718 51.4967 43.3184 51.19C43.1651 50.8833 43.0884 50.5 43.0884 50.04V46.78H44.4284V49.88C44.4284 50.2533 44.5184 50.53 44.6984 50.71C44.8784 50.89 45.1351 50.98 45.4684 50.98C45.6818 50.98 45.8718 50.9367 46.0384 50.85C46.2118 50.7633 46.3484 50.63 46.4484 50.45C46.5484 50.27 46.5984 50.05 46.5984 49.79V46.78H47.9484V52H46.7584L46.6584 51.21C46.5184 51.49 46.3084 51.7133 46.0284 51.88C45.7551 52.04 45.4218 52.12 45.0284 52.12ZM52.2889 52.12C52.0022 52.12 51.7522 52.0833 51.5389 52.01C51.3322 51.9367 51.1589 51.84 51.0189 51.72C50.8789 51.6 50.7589 51.48 50.6589 51.36L50.5189 52H49.3189V44.8H50.6689V47.49C50.8289 47.21 51.0456 47.0033 51.3189 46.87C51.5989 46.73 51.9089 46.66 52.2489 46.66C52.7156 46.66 53.1289 46.78 53.4889 47.02C53.8489 47.2533 54.1289 47.5733 54.3289 47.98C54.5356 48.3867 54.6389 48.8533 54.6389 49.38C54.6389 49.9 54.5389 50.3667 54.3389 50.78C54.1389 51.1933 53.8622 51.52 53.5089 51.76C53.1556 52 52.7489 52.12 52.2889 52.12ZM51.9489 50.94C52.1956 50.94 52.4156 50.88 52.6089 50.76C52.8089 50.6333 52.9656 50.4533 53.0789 50.22C53.1989 49.9867 53.2589 49.7133 53.2589 49.4C53.2589 49.08 53.1989 48.8033 53.0789 48.57C52.9656 48.3367 52.8089 48.1567 52.6089 48.03C52.4156 47.9033 52.1956 47.84 51.9489 47.84C51.6889 47.84 51.4589 47.9033 51.2589 48.03C51.0589 48.1567 50.9022 48.3367 50.7889 48.57C50.6822 48.8033 50.6289 49.0767 50.6289 49.39C50.6289 49.71 50.6822 49.9867 50.7889 50.22C50.9022 50.4467 51.0589 50.6233 51.2589 50.75C51.4589 50.8767 51.6889 50.94 51.9489 50.94ZM58.8221 52.12C58.5354 52.12 58.2854 52.0833 58.0721 52.01C57.8654 51.9367 57.6921 51.84 57.5521 51.72C57.4121 51.6 57.2921 51.48 57.1921 51.36L57.0521 52H55.8521V44.8H57.2021V47.49C57.3621 47.21 57.5788 47.0033 57.8521 46.87C58.1321 46.73 58.4421 46.66 58.7821 46.66C59.2488 46.66 59.6621 46.78 60.0221 47.02C60.3821 47.2533 60.6621 47.5733 60.8621 47.98C61.0688 48.3867 61.1721 48.8533 61.1721 49.38C61.1721 49.9 61.0721 50.3667 60.8721 50.78C60.6721 51.1933 60.3954 51.52 60.0421 51.76C59.6888 52 59.2821 52.12 58.8221 52.12ZM58.4821 50.94C58.7288 50.94 58.9488 50.88 59.1421 50.76C59.3421 50.6333 59.4988 50.4533 59.6121 50.22C59.7321 49.9867 59.7921 49.7133 59.7921 49.4C59.7921 49.08 59.7321 48.8033 59.6121 48.57C59.4988 48.3367 59.3421 48.1567 59.1421 48.03C58.9488 47.9033 58.7288 47.84 58.4821 47.84C58.2221 47.84 57.9921 47.9033 57.7921 48.03C57.5921 48.1567 57.4354 48.3367 57.3221 48.57C57.2154 48.8033 57.1621 49.0767 57.1621 49.39C57.1621 49.71 57.2154 49.9867 57.3221 50.22C57.4354 50.4467 57.5921 50.6233 57.7921 50.75C57.9921 50.8767 58.2221 50.94 58.4821 50.94ZM64.7553 52.12C64.2553 52.12 63.812 52.01 63.4253 51.79C63.0453 51.5633 62.7486 51.2467 62.5353 50.84C62.322 50.4333 62.2153 49.9667 62.2153 49.44C62.2153 48.9 62.3186 48.42 62.5253 48C62.7386 47.58 63.0353 47.2533 63.4153 47.02C63.802 46.78 64.252 46.66 64.7653 46.66C65.2786 46.66 65.7186 46.7733 66.0853 47C66.452 47.2267 66.732 47.5367 66.9253 47.93C67.1253 48.3167 67.2253 48.7567 67.2253 49.25C67.2253 49.3167 67.2253 49.39 67.2253 49.47C67.2253 49.55 67.2186 49.6333 67.2053 49.72H63.1753V48.9H65.8753C65.862 48.54 65.752 48.26 65.5453 48.06C65.3386 47.86 65.0786 47.76 64.7653 47.76C64.5386 47.76 64.332 47.8167 64.1453 47.93C63.9586 48.0433 63.812 48.2133 63.7053 48.44C63.5986 48.66 63.5453 48.9433 63.5453 49.29V49.58C63.5453 49.8733 63.592 50.1267 63.6853 50.34C63.7853 50.5533 63.9253 50.72 64.1053 50.84C64.2853 50.96 64.4986 51.02 64.7453 51.02C65.012 51.02 65.2186 50.9733 65.3653 50.88C65.512 50.7867 65.6286 50.66 65.7153 50.5H67.0853C66.992 50.8 66.8353 51.0733 66.6153 51.32C66.402 51.5667 66.1386 51.7633 65.8253 51.91C65.512 52.05 65.1553 52.12 64.7553 52.12ZM68.3912 52V46.78H69.5912L69.7112 47.7C69.8445 47.4733 70.0078 47.2833 70.2012 47.13C70.3945 46.9767 70.6178 46.86 70.8712 46.78C71.1312 46.7 71.4178 46.66 71.7312 46.66V48.09H71.0512C70.8712 48.09 70.7012 48.1133 70.5412 48.16C70.3812 48.2 70.2412 48.27 70.1212 48.37C70.0012 48.47 69.9078 48.6067 69.8412 48.78C69.7745 48.9467 69.7412 49.16 69.7412 49.42V52H68.3912ZM33.7974 63V56H35.1474V63H33.7974ZM36.5699 63V57.78H37.7499L37.8499 58.57C37.9965 58.29 38.2099 58.07 38.4899 57.91C38.7699 57.7433 39.1065 57.66 39.4999 57.66C39.9065 57.66 40.2532 57.7433 40.5399 57.91C40.8265 58.0767 41.0465 58.3167 41.1999 58.63C41.3532 58.9433 41.4299 59.3267 41.4299 59.78V63H40.0799V59.91C40.0799 59.5567 39.9899 59.2833 39.8099 59.09C39.6365 58.8967 39.3832 58.8 39.0499 58.8C38.8432 58.8 38.6532 58.8467 38.4799 58.94C38.3065 59.0333 38.1699 59.17 38.0699 59.35C37.9699 59.53 37.9199 59.7467 37.9199 60V63H36.5699ZM44.9501 63.12C44.4968 63.12 44.0935 63.0067 43.7401 62.78C43.3935 62.5467 43.1235 62.23 42.9301 61.83C42.7368 61.4233 42.6401 60.9567 42.6401 60.43C42.6401 59.89 42.7401 59.4133 42.9401 59C43.1401 58.58 43.4235 58.2533 43.7901 58.02C44.1568 57.78 44.5801 57.66 45.0601 57.66C45.4001 57.66 45.7001 57.7267 45.9601 57.86C46.2268 57.9867 46.4401 58.17 46.6001 58.41V55.8H47.9501V63H46.7501L46.6001 62.3C46.5001 62.4467 46.3768 62.5833 46.2301 62.71C46.0835 62.8367 45.9068 62.9367 45.7001 63.01C45.4935 63.0833 45.2435 63.12 44.9501 63.12ZM45.3301 61.94C45.5901 61.94 45.8168 61.8767 46.0101 61.75C46.2101 61.6233 46.3635 61.4433 46.4701 61.21C46.5835 60.9767 46.6401 60.7033 46.6401 60.39C46.6401 60.0767 46.5835 59.8033 46.4701 59.57C46.3635 59.3367 46.2101 59.1567 46.0101 59.03C45.8168 58.9033 45.5868 58.84 45.3201 58.84C45.0735 58.84 44.8501 58.9033 44.6501 59.03C44.4501 59.1567 44.2935 59.3367 44.1801 59.57C44.0668 59.7967 44.0101 60.0667 44.0101 60.38C44.0101 60.7 44.0668 60.9767 44.1801 61.21C44.2935 61.4433 44.4501 61.6233 44.6501 61.75C44.8501 61.8767 45.0768 61.94 45.3301 61.94ZM51.2638 63.12C50.8571 63.12 50.5071 63.0433 50.2138 62.89C49.9271 62.73 49.7071 62.4967 49.5538 62.19C49.4005 61.8833 49.3238 61.5 49.3238 61.04V57.78H50.6638V60.88C50.6638 61.2533 50.7538 61.53 50.9338 61.71C51.1138 61.89 51.3705 61.98 51.7038 61.98C51.9171 61.98 52.1071 61.9367 52.2738 61.85C52.4471 61.7633 52.5838 61.63 52.6838 61.45C52.7838 61.27 52.8338 61.05 52.8338 60.79V57.78H54.1838V63H52.9938L52.8938 62.21C52.7538 62.49 52.5438 62.7133 52.2638 62.88C51.9905 63.04 51.6571 63.12 51.2638 63.12ZM57.5943 63.12C57.0809 63.12 56.6576 63.0467 56.3243 62.9C55.9909 62.7467 55.7376 62.54 55.5643 62.28C55.3909 62.0133 55.2943 61.7167 55.2743 61.39H56.6143C56.6343 61.5167 56.6809 61.6333 56.7543 61.74C56.8276 61.8467 56.9309 61.9333 57.0643 62C57.2043 62.06 57.3743 62.09 57.5743 62.09C57.7476 62.09 57.8943 62.0667 58.0143 62.02C58.1409 61.9667 58.2343 61.8967 58.2943 61.81C58.3609 61.7167 58.3943 61.61 58.3943 61.49C58.3943 61.3367 58.3509 61.2167 58.2643 61.13C58.1843 61.0433 58.0676 60.9767 57.9143 60.93C57.7609 60.8767 57.5709 60.8333 57.3443 60.8C57.0509 60.7533 56.7809 60.6933 56.5343 60.62C56.2943 60.5467 56.0876 60.4533 55.9143 60.34C55.7476 60.22 55.6176 60.07 55.5243 59.89C55.4309 59.71 55.3843 59.4933 55.3843 59.24C55.3843 58.94 55.4676 58.67 55.6343 58.43C55.8009 58.19 56.0409 58.0033 56.3543 57.87C56.6676 57.73 57.0443 57.66 57.4843 57.66C58.1176 57.66 58.6076 57.7967 58.9543 58.07C59.3076 58.3433 59.5176 58.7167 59.5843 59.19H58.3143C58.2743 59.0367 58.1809 58.9167 58.0343 58.83C57.8943 58.7433 57.7043 58.7 57.4643 58.7C57.2176 58.7 57.0276 58.7467 56.8943 58.84C56.7609 58.9267 56.6943 59.0467 56.6943 59.2C56.6943 59.3 56.7243 59.3933 56.7843 59.48C56.8509 59.56 56.9576 59.63 57.1043 59.69C57.2576 59.7433 57.4643 59.7933 57.7243 59.84C58.1843 59.9067 58.5609 59.9933 58.8543 60.1C59.1543 60.2067 59.3776 60.3633 59.5243 60.57C59.6776 60.7767 59.7509 61.06 59.7443 61.42C59.7443 61.7733 59.6543 62.0767 59.4743 62.33C59.3009 62.5833 59.0509 62.78 58.7243 62.92C58.4043 63.0533 58.0276 63.12 57.5943 63.12ZM63.1086 63C62.7553 63 62.4453 62.9467 62.1786 62.84C61.9186 62.7267 61.7153 62.5433 61.5686 62.29C61.422 62.03 61.3486 61.6767 61.3486 61.23V58.91H60.4486V57.78H61.3486L61.4986 56.33H62.6986V57.78H64.0486V58.91H62.6986V61.25C62.6986 61.4767 62.7486 61.6333 62.8486 61.72C62.9486 61.8067 63.1186 61.85 63.3586 61.85H64.0686V63H63.1086ZM65.2711 63V57.78H66.4711L66.5911 58.7C66.7244 58.4733 66.8877 58.2833 67.0811 58.13C67.2744 57.9767 67.4977 57.86 67.7511 57.78C68.0111 57.7 68.2977 57.66 68.6111 57.66V59.09H67.9311C67.7511 59.09 67.5811 59.1133 67.4211 59.16C67.2611 59.2 67.1211 59.27 67.0011 59.37C66.8811 59.47 66.7877 59.6067 66.7211 59.78C66.6544 59.9467 66.6211 60.16 66.6211 60.42V63H65.2711ZM70.2184 65.2L71.3884 62.44H71.0884L69.0884 57.78H70.5584L71.9784 61.18L73.2584 57.78H74.6984L71.6384 65.2H70.2184Z" fill="white"/>
<defs>
<radialGradient id="paint0_radial_4948_2576" cx="0" cy="0" r="1" gradientUnits="userSpaceOnUse" gradientTransform="translate(54.258 54.259) rotate(90) scale(49.9181)">
<stop stop-color="#F24F7A"/>
<stop offset="1" stop-color="#DB1F51"/>
</radialGradient>
</defs>
</svg>
