<svg width="31" height="31" viewBox="0 0 31 31" fill="none" xmlns="http://www.w3.org/2000/svg">
<path d="M11.625 17.4375L19.375 21.3125M19.375 9.6875L11.625 13.5625M23.25 27.125C21.1099 27.125 19.375 25.3901 19.375 23.25C19.375 21.1099 21.1099 19.375 23.25 19.375C25.3901 19.375 27.125 21.1099 27.125 23.25C27.125 25.3901 25.3901 27.125 23.25 27.125ZM7.75 19.375C5.6099 19.375 3.875 17.6401 3.875 15.5C3.875 13.3599 5.6099 11.625 7.75 11.625C9.8901 11.625 11.625 13.3599 11.625 15.5C11.625 17.6401 9.8901 19.375 7.75 19.375ZM23.25 11.625C21.1099 11.625 19.375 9.8901 19.375 7.75C19.375 5.6099 21.1099 3.875 23.25 3.875C25.3901 3.875 27.125 5.6099 27.125 7.75C27.125 9.8901 25.3901 11.625 23.25 11.625Z" stroke="#221F20" stroke-opacity="0.75" stroke-width="2" stroke-linecap="round" stroke-linejoin="round"/>
</svg>
