<svg width="109" height="109" viewBox="0 0 109 109" fill="none" xmlns="http://www.w3.org/2000/svg">
<circle cx="54.5" cy="54.5" r="52.0885" stroke="#FFAEC3" stroke-width="4.82301"/>
<circle cx="54.258" cy="54.259" r="49.9181" fill="url(#paint0_radial_4948_2570)"/>
<path d="M27.4902 12.0576L41.9593 34.7258" stroke="white" stroke-width="0.482301"/>
<path d="M66.0762 73.792L80.5452 96.4601" stroke="white" stroke-width="0.482301"/>
<path d="M44.7718 52.12C44.2652 52.12 43.8118 52.0333 43.4118 51.86C43.0185 51.6867 42.7052 51.4333 42.4718 51.1C42.2452 50.7667 42.1285 50.3633 42.1218 49.89H43.5518C43.5585 50.0967 43.6118 50.2833 43.7118 50.45C43.8118 50.6167 43.9485 50.75 44.1218 50.85C44.3018 50.9433 44.5152 50.99 44.7618 50.99C44.9752 50.99 45.1585 50.9567 45.3118 50.89C45.4718 50.8167 45.5952 50.7167 45.6818 50.59C45.7685 50.4633 45.8118 50.3133 45.8118 50.14C45.8118 49.96 45.7652 49.8033 45.6718 49.67C45.5852 49.5367 45.4618 49.4233 45.3018 49.33C45.1418 49.23 44.9518 49.14 44.7318 49.06C44.5185 48.98 44.2885 48.9 44.0418 48.82C43.4552 48.64 43.0152 48.3967 42.7218 48.09C42.4285 47.7833 42.2818 47.3833 42.2818 46.89C42.2818 46.47 42.3818 46.11 42.5818 45.81C42.7818 45.51 43.0618 45.28 43.4218 45.12C43.7818 44.96 44.1918 44.88 44.6518 44.88C45.1252 44.88 45.5385 44.9633 45.8918 45.13C46.2518 45.29 46.5352 45.5233 46.7418 45.83C46.9552 46.1367 47.0685 46.4967 47.0818 46.91H45.6318C45.6252 46.7567 45.5785 46.6133 45.4918 46.48C45.4118 46.34 45.2985 46.23 45.1518 46.15C45.0052 46.0633 44.8318 46.02 44.6318 46.02C44.4585 46.0133 44.2985 46.04 44.1518 46.1C44.0118 46.16 43.9018 46.25 43.8218 46.37C43.7418 46.4833 43.7018 46.6267 43.7018 46.8C43.7018 46.9667 43.7418 47.1067 43.8218 47.22C43.9018 47.3333 44.0152 47.4333 44.1618 47.52C44.3085 47.6 44.4818 47.6767 44.6818 47.75C44.8818 47.8167 45.0985 47.8867 45.3318 47.96C45.6852 48.08 46.0052 48.2233 46.2918 48.39C46.5852 48.55 46.8185 48.76 46.9918 49.02C47.1652 49.28 47.2518 49.6233 47.2518 50.05C47.2518 50.4167 47.1552 50.7567 46.9618 51.07C46.7752 51.3833 46.4985 51.6367 46.1318 51.83C45.7652 52.0233 45.3118 52.12 44.7718 52.12ZM50.8149 52.12C50.3215 52.12 49.8815 52.0067 49.4949 51.78C49.1149 51.5467 48.8149 51.2233 48.5949 50.81C48.3815 50.3967 48.2749 49.9233 48.2749 49.39C48.2749 48.85 48.3815 48.3767 48.5949 47.97C48.8149 47.5633 49.1182 47.2433 49.5049 47.01C49.8915 46.7767 50.3315 46.66 50.8249 46.66C51.3249 46.66 51.7649 46.7767 52.1449 47.01C52.5315 47.2433 52.8315 47.5633 53.0449 47.97C53.2649 48.3767 53.3749 48.85 53.3749 49.39C53.3749 49.9233 53.2649 50.3967 53.0449 50.81C52.8315 51.2233 52.5315 51.5467 52.1449 51.78C51.7649 52.0067 51.3215 52.12 50.8149 52.12ZM50.8149 50.95C51.0482 50.95 51.2515 50.8933 51.4249 50.78C51.6049 50.66 51.7449 50.4867 51.8449 50.26C51.9449 50.0267 51.9949 49.7367 51.9949 49.39C51.9949 49.0433 51.9449 48.7567 51.8449 48.53C51.7515 48.2967 51.6182 48.1233 51.4449 48.01C51.2715 47.89 51.0649 47.83 50.8249 47.83C50.5982 47.83 50.3949 47.89 50.2149 48.01C50.0415 48.1233 49.9015 48.2967 49.7949 48.53C49.6949 48.7567 49.6449 49.0433 49.6449 49.39C49.6449 49.7367 49.6949 50.0267 49.7949 50.26C49.8949 50.4867 50.0315 50.66 50.2049 50.78C50.3849 50.8933 50.5882 50.95 50.8149 50.95ZM56.2675 52.12C55.8608 52.12 55.5208 52.05 55.2475 51.91C54.9808 51.7633 54.7808 51.57 54.6475 51.33C54.5141 51.09 54.4475 50.8267 54.4475 50.54C54.4475 50.2267 54.5241 49.9533 54.6775 49.72C54.8375 49.48 55.0741 49.2933 55.3875 49.16C55.7075 49.02 56.1041 48.95 56.5775 48.95H57.7975C57.7975 48.6833 57.7708 48.4633 57.7175 48.29C57.6708 48.11 57.5775 47.9767 57.4375 47.89C57.3041 47.8033 57.1108 47.76 56.8575 47.76C56.6108 47.76 56.4075 47.8133 56.2475 47.92C56.0941 48.02 55.9975 48.17 55.9575 48.37H54.6375C54.6775 48.0233 54.7908 47.7233 54.9775 47.47C55.1708 47.2167 55.4275 47.02 55.7475 46.88C56.0741 46.7333 56.4441 46.66 56.8575 46.66C57.3441 46.66 57.7575 46.74 58.0975 46.9C58.4375 47.06 58.6975 47.29 58.8775 47.59C59.0575 47.89 59.1475 48.26 59.1475 48.7V52H58.0175L57.8675 51.22C57.7941 51.3533 57.7041 51.4767 57.5975 51.59C57.4975 51.6967 57.3808 51.79 57.2475 51.87C57.1141 51.95 56.9641 52.01 56.7975 52.05C56.6375 52.0967 56.4608 52.12 56.2675 52.12ZM56.5875 51.08C56.7475 51.08 56.8941 51.0467 57.0275 50.98C57.1608 50.9133 57.2775 50.8233 57.3775 50.71C57.4775 50.5967 57.5575 50.4633 57.6175 50.31C57.6841 50.1567 57.7275 49.99 57.7475 49.81V49.78H56.7275C56.5341 49.78 56.3741 49.8067 56.2475 49.86C56.1208 49.9133 56.0275 49.99 55.9675 50.09C55.9075 50.1833 55.8775 50.2933 55.8775 50.42C55.8775 50.56 55.9041 50.68 55.9575 50.78C56.0175 50.8733 56.1008 50.9467 56.2075 51C56.3208 51.0533 56.4475 51.08 56.5875 51.08ZM60.525 54.2V46.78H61.725L61.865 47.48C61.9716 47.3267 62.0983 47.19 62.245 47.07C62.3916 46.9433 62.565 46.8433 62.765 46.77C62.965 46.6967 63.1983 46.66 63.465 46.66C63.9516 46.66 64.3716 46.78 64.725 47.02C65.0783 47.26 65.3516 47.5867 65.545 48C65.745 48.4067 65.845 48.8733 65.845 49.4C65.845 49.9267 65.7416 50.3967 65.535 50.81C65.3283 51.2167 65.0483 51.5367 64.695 51.77C64.3416 52.0033 63.945 52.12 63.505 52.12C63.1183 52.12 62.7883 52.0533 62.515 51.92C62.2483 51.78 62.035 51.59 61.875 51.35V54.2H60.525ZM63.155 50.94C63.4083 50.94 63.6316 50.88 63.825 50.76C64.0183 50.6333 64.1716 50.4533 64.285 50.22C64.405 49.9867 64.465 49.7133 64.465 49.4C64.465 49.08 64.405 48.8033 64.285 48.57C64.1716 48.3367 64.0183 48.1567 63.825 48.03C63.6316 47.9033 63.4083 47.84 63.155 47.84C62.895 47.84 62.665 47.9033 62.465 48.03C62.265 48.1567 62.1083 48.3367 61.995 48.57C61.8883 48.8033 61.835 49.0767 61.835 49.39C61.835 49.71 61.8883 49.9867 61.995 50.22C62.1083 50.4467 62.265 50.6233 62.465 50.75C62.665 50.8767 62.895 50.94 63.155 50.94ZM33.7974 63V56H35.1474V63H33.7974ZM36.5699 63V57.78H37.7499L37.8499 58.57C37.9965 58.29 38.2099 58.07 38.4899 57.91C38.7699 57.7433 39.1065 57.66 39.4999 57.66C39.9065 57.66 40.2532 57.7433 40.5399 57.91C40.8265 58.0767 41.0465 58.3167 41.1999 58.63C41.3532 58.9433 41.4299 59.3267 41.4299 59.78V63H40.0799V59.91C40.0799 59.5567 39.9899 59.2833 39.8099 59.09C39.6365 58.8967 39.3832 58.8 39.0499 58.8C38.8432 58.8 38.6532 58.8467 38.4799 58.94C38.3065 59.0333 38.1699 59.17 38.0699 59.35C37.9699 59.53 37.9199 59.7467 37.9199 60V63H36.5699ZM44.9501 63.12C44.4968 63.12 44.0935 63.0067 43.7401 62.78C43.3935 62.5467 43.1235 62.23 42.9301 61.83C42.7368 61.4233 42.6401 60.9567 42.6401 60.43C42.6401 59.89 42.7401 59.4133 42.9401 59C43.1401 58.58 43.4235 58.2533 43.7901 58.02C44.1568 57.78 44.5801 57.66 45.0601 57.66C45.4001 57.66 45.7001 57.7267 45.9601 57.86C46.2268 57.9867 46.4401 58.17 46.6001 58.41V55.8H47.9501V63H46.7501L46.6001 62.3C46.5001 62.4467 46.3768 62.5833 46.2301 62.71C46.0835 62.8367 45.9068 62.9367 45.7001 63.01C45.4935 63.0833 45.2435 63.12 44.9501 63.12ZM45.3301 61.94C45.5901 61.94 45.8168 61.8767 46.0101 61.75C46.2101 61.6233 46.3635 61.4433 46.4701 61.21C46.5835 60.9767 46.6401 60.7033 46.6401 60.39C46.6401 60.0767 46.5835 59.8033 46.4701 59.57C46.3635 59.3367 46.2101 59.1567 46.0101 59.03C45.8168 58.9033 45.5868 58.84 45.3201 58.84C45.0735 58.84 44.8501 58.9033 44.6501 59.03C44.4501 59.1567 44.2935 59.3367 44.1801 59.57C44.0668 59.7967 44.0101 60.0667 44.0101 60.38C44.0101 60.7 44.0668 60.9767 44.1801 61.21C44.2935 61.4433 44.4501 61.6233 44.6501 61.75C44.8501 61.8767 45.0768 61.94 45.3301 61.94ZM51.2638 63.12C50.8571 63.12 50.5071 63.0433 50.2138 62.89C49.9271 62.73 49.7071 62.4967 49.5538 62.19C49.4005 61.8833 49.3238 61.5 49.3238 61.04V57.78H50.6638V60.88C50.6638 61.2533 50.7538 61.53 50.9338 61.71C51.1138 61.89 51.3705 61.98 51.7038 61.98C51.9171 61.98 52.1071 61.9367 52.2738 61.85C52.4471 61.7633 52.5838 61.63 52.6838 61.45C52.7838 61.27 52.8338 61.05 52.8338 60.79V57.78H54.1838V63H52.9938L52.8938 62.21C52.7538 62.49 52.5438 62.7133 52.2638 62.88C51.9905 63.04 51.6571 63.12 51.2638 63.12ZM57.5943 63.12C57.0809 63.12 56.6576 63.0467 56.3243 62.9C55.9909 62.7467 55.7376 62.54 55.5643 62.28C55.3909 62.0133 55.2943 61.7167 55.2743 61.39H56.6143C56.6343 61.5167 56.6809 61.6333 56.7543 61.74C56.8276 61.8467 56.9309 61.9333 57.0643 62C57.2043 62.06 57.3743 62.09 57.5743 62.09C57.7476 62.09 57.8943 62.0667 58.0143 62.02C58.1409 61.9667 58.2343 61.8967 58.2943 61.81C58.3609 61.7167 58.3943 61.61 58.3943 61.49C58.3943 61.3367 58.3509 61.2167 58.2643 61.13C58.1843 61.0433 58.0676 60.9767 57.9143 60.93C57.7609 60.8767 57.5709 60.8333 57.3443 60.8C57.0509 60.7533 56.7809 60.6933 56.5343 60.62C56.2943 60.5467 56.0876 60.4533 55.9143 60.34C55.7476 60.22 55.6176 60.07 55.5243 59.89C55.4309 59.71 55.3843 59.4933 55.3843 59.24C55.3843 58.94 55.4676 58.67 55.6343 58.43C55.8009 58.19 56.0409 58.0033 56.3543 57.87C56.6676 57.73 57.0443 57.66 57.4843 57.66C58.1176 57.66 58.6076 57.7967 58.9543 58.07C59.3076 58.3433 59.5176 58.7167 59.5843 59.19H58.3143C58.2743 59.0367 58.1809 58.9167 58.0343 58.83C57.8943 58.7433 57.7043 58.7 57.4643 58.7C57.2176 58.7 57.0276 58.7467 56.8943 58.84C56.7609 58.9267 56.6943 59.0467 56.6943 59.2C56.6943 59.3 56.7243 59.3933 56.7843 59.48C56.8509 59.56 56.9576 59.63 57.1043 59.69C57.2576 59.7433 57.4643 59.7933 57.7243 59.84C58.1843 59.9067 58.5609 59.9933 58.8543 60.1C59.1543 60.2067 59.3776 60.3633 59.5243 60.57C59.6776 60.7767 59.7509 61.06 59.7443 61.42C59.7443 61.7733 59.6543 62.0767 59.4743 62.33C59.3009 62.5833 59.0509 62.78 58.7243 62.92C58.4043 63.0533 58.0276 63.12 57.5943 63.12ZM63.1086 63C62.7553 63 62.4453 62.9467 62.1786 62.84C61.9186 62.7267 61.7153 62.5433 61.5686 62.29C61.422 62.03 61.3486 61.6767 61.3486 61.23V58.91H60.4486V57.78H61.3486L61.4986 56.33H62.6986V57.78H64.0486V58.91H62.6986V61.25C62.6986 61.4767 62.7486 61.6333 62.8486 61.72C62.9486 61.8067 63.1186 61.85 63.3586 61.85H64.0686V63H63.1086ZM65.2711 63V57.78H66.4711L66.5911 58.7C66.7244 58.4733 66.8877 58.2833 67.0811 58.13C67.2744 57.9767 67.4977 57.86 67.7511 57.78C68.0111 57.7 68.2977 57.66 68.6111 57.66V59.09H67.9311C67.7511 59.09 67.5811 59.1133 67.4211 59.16C67.2611 59.2 67.1211 59.27 67.0011 59.37C66.8811 59.47 66.7877 59.6067 66.7211 59.78C66.6544 59.9467 66.6211 60.16 66.6211 60.42V63H65.2711ZM70.2184 65.2L71.3884 62.44H71.0884L69.0884 57.78H70.5584L71.9784 61.18L73.2584 57.78H74.6984L71.6384 65.2H70.2184Z" fill="white"/>
<defs>
<radialGradient id="paint0_radial_4948_2570" cx="0" cy="0" r="1" gradientUnits="userSpaceOnUse" gradientTransform="translate(54.258 54.259) rotate(90) scale(49.9181)">
<stop stop-color="#F24F7A"/>
<stop offset="1" stop-color="#DB1F51"/>
</radialGradient>
</defs>
</svg>
