<svg width="226" height="226" viewBox="0 0 226 226" fill="none" xmlns="http://www.w3.org/2000/svg">
<circle cx="113" cy="113" r="108" stroke="#FFAEC3" stroke-width="10"/>
<circle cx="112.5" cy="112.5" r="103.5" fill="url(#paint0_radial_2209_11853)"/>
<path d="M57 25L87 72" stroke="white"/>
<path d="M137 153L167 200" stroke="white"/>
<path d="M84.0652 118V105.72H79.9252V104H90.3052V105.72H86.1852V118H84.0652ZM95.0523 118.24C94.0789 118.24 93.2123 118.027 92.4523 117.6C91.7056 117.16 91.1189 116.553 90.6923 115.78C90.2656 115.007 90.0523 114.107 90.0523 113.08C90.0523 112.04 90.2589 111.127 90.6723 110.34C91.0989 109.553 91.6856 108.94 92.4323 108.5C93.1923 108.06 94.0723 107.84 95.0723 107.84C96.0456 107.84 96.8923 108.06 97.6123 108.5C98.3323 108.927 98.8923 109.5 99.2923 110.22C99.6923 110.94 99.8923 111.733 99.8923 112.6C99.8923 112.733 99.8856 112.88 99.8723 113.04C99.8723 113.187 99.8656 113.353 99.8523 113.54H92.1323C92.1989 114.5 92.5123 115.233 93.0723 115.74C93.6456 116.233 94.3056 116.48 95.0523 116.48C95.6523 116.48 96.1523 116.347 96.5523 116.08C96.9656 115.8 97.2723 115.427 97.4723 114.96H99.5923C99.3256 115.893 98.7923 116.673 97.9923 117.3C97.2056 117.927 96.2256 118.24 95.0523 118.24ZM95.0523 109.58C94.3456 109.58 93.7189 109.793 93.1723 110.22C92.6256 110.633 92.2923 111.26 92.1723 112.1H97.7723C97.7323 111.327 97.4589 110.713 96.9523 110.26C96.4456 109.807 95.8123 109.58 95.0523 109.58ZM100.546 118L104.066 113.04L100.546 108.08H102.806L105.466 111.88L108.106 108.08H110.386L106.866 113.04L110.386 118H108.106L105.466 114.2L102.806 118H100.546ZM116.271 118C115.298 118 114.525 117.767 113.951 117.3C113.378 116.82 113.091 115.973 113.091 114.76V109.86H111.391V108.08H113.091L113.351 105.56H115.211V108.08H118.011V109.86H115.211V114.76C115.211 115.307 115.325 115.687 115.551 115.9C115.791 116.1 116.198 116.2 116.771 116.2H117.911V118H116.271ZM121.397 106.2C120.997 106.2 120.664 106.08 120.397 105.84C120.144 105.587 120.017 105.273 120.017 104.9C120.017 104.527 120.144 104.22 120.397 103.98C120.664 103.727 120.997 103.6 121.397 103.6C121.797 103.6 122.124 103.727 122.377 103.98C122.644 104.22 122.777 104.527 122.777 104.9C122.777 105.273 122.644 105.587 122.377 105.84C122.124 106.08 121.797 106.2 121.397 106.2ZM120.337 118V108.08H122.457V118H120.337ZM125.256 118V103.6H127.376V118H125.256ZM134.701 118.24C133.727 118.24 132.861 118.027 132.101 117.6C131.354 117.16 130.767 116.553 130.341 115.78C129.914 115.007 129.701 114.107 129.701 113.08C129.701 112.04 129.907 111.127 130.321 110.34C130.747 109.553 131.334 108.94 132.081 108.5C132.841 108.06 133.721 107.84 134.721 107.84C135.694 107.84 136.541 108.06 137.261 108.5C137.981 108.927 138.541 109.5 138.941 110.22C139.341 110.94 139.541 111.733 139.541 112.6C139.541 112.733 139.534 112.88 139.521 113.04C139.521 113.187 139.514 113.353 139.501 113.54H131.781C131.847 114.5 132.161 115.233 132.721 115.74C133.294 116.233 133.954 116.48 134.701 116.48C135.301 116.48 135.801 116.347 136.201 116.08C136.614 115.8 136.921 115.427 137.121 114.96H139.241C138.974 115.893 138.441 116.673 137.641 117.3C136.854 117.927 135.874 118.24 134.701 118.24ZM134.701 109.58C133.994 109.58 133.367 109.793 132.821 110.22C132.274 110.633 131.941 111.26 131.821 112.1H137.421C137.381 111.327 137.107 110.713 136.601 110.26C136.094 109.807 135.461 109.58 134.701 109.58ZM145.7 118.24C144.447 118.24 143.414 117.933 142.6 117.32C141.787 116.707 141.32 115.893 141.2 114.88H143.34C143.447 115.333 143.7 115.727 144.1 116.06C144.5 116.38 145.027 116.54 145.68 116.54C146.32 116.54 146.787 116.407 147.08 116.14C147.374 115.873 147.52 115.567 147.52 115.22C147.52 114.713 147.314 114.373 146.9 114.2C146.5 114.013 145.94 113.847 145.22 113.7C144.66 113.58 144.1 113.42 143.54 113.22C142.994 113.02 142.534 112.74 142.16 112.38C141.8 112.007 141.62 111.507 141.62 110.88C141.62 110.013 141.954 109.293 142.62 108.72C143.287 108.133 144.22 107.84 145.42 107.84C146.527 107.84 147.42 108.107 148.1 108.64C148.794 109.173 149.2 109.927 149.32 110.9H147.28C147.214 110.473 147.014 110.14 146.68 109.9C146.36 109.66 145.927 109.54 145.38 109.54C144.847 109.54 144.434 109.653 144.14 109.88C143.847 110.093 143.7 110.373 143.7 110.72C143.7 111.067 143.9 111.34 144.3 111.54C144.714 111.74 145.254 111.92 145.92 112.08C146.587 112.227 147.2 112.4 147.76 112.6C148.334 112.787 148.794 113.067 149.14 113.44C149.487 113.813 149.66 114.36 149.66 115.08C149.674 115.987 149.32 116.74 148.6 117.34C147.894 117.94 146.927 118.24 145.7 118.24Z" fill="white"/>
<defs>
<radialGradient id="paint0_radial_2209_11853" cx="0" cy="0" r="1" gradientUnits="userSpaceOnUse" gradientTransform="translate(112.5 112.5) rotate(90) scale(103.5)">
<stop stop-color="#F24F7A"/>
<stop offset="1" stop-color="#DB1F51"/>
</radialGradient>
</defs>
</svg>
