<svg width="109" height="109" viewBox="0 0 109 109" fill="none" xmlns="http://www.w3.org/2000/svg">
<circle cx="54.5" cy="54.5" r="52.0885" stroke="#FFAEC3" stroke-width="4.82301"/>
<circle cx="54.258" cy="54.259" r="49.9181" fill="url(#paint0_radial_4948_2600)"/>
<path d="M27.4902 12.0576L41.9593 34.7258" stroke="white" stroke-width="0.482301"/>
<path d="M66.0762 73.792L80.5452 96.4601" stroke="white" stroke-width="0.482301"/>
<path d="M40.6046 52V46.09H38.5546V45H43.9846V46.09H41.9446V52H40.6046ZM46.4418 52.12C45.9418 52.12 45.4985 52.01 45.1118 51.79C44.7318 51.5633 44.4352 51.2467 44.2218 50.84C44.0085 50.4333 43.9018 49.9667 43.9018 49.44C43.9018 48.9 44.0052 48.42 44.2118 48C44.4252 47.58 44.7218 47.2533 45.1018 47.02C45.4885 46.78 45.9385 46.66 46.4518 46.66C46.9652 46.66 47.4052 46.7733 47.7718 47C48.1385 47.2267 48.4185 47.5367 48.6118 47.93C48.8118 48.3167 48.9118 48.7567 48.9118 49.25C48.9118 49.3167 48.9118 49.39 48.9118 49.47C48.9118 49.55 48.9052 49.6333 48.8918 49.72H44.8618V48.9H47.5618C47.5485 48.54 47.4385 48.26 47.2318 48.06C47.0252 47.86 46.7652 47.76 46.4518 47.76C46.2252 47.76 46.0185 47.8167 45.8318 47.93C45.6452 48.0433 45.4985 48.2133 45.3918 48.44C45.2852 48.66 45.2318 48.9433 45.2318 49.29V49.58C45.2318 49.8733 45.2785 50.1267 45.3718 50.34C45.4718 50.5533 45.6118 50.72 45.7918 50.84C45.9718 50.96 46.1852 51.02 46.4318 51.02C46.6985 51.02 46.9052 50.9733 47.0518 50.88C47.1985 50.7867 47.3152 50.66 47.4018 50.5H48.7718C48.6785 50.8 48.5218 51.0733 48.3018 51.32C48.0885 51.5667 47.8252 51.7633 47.5118 51.91C47.1985 52.05 46.8418 52.12 46.4418 52.12ZM49.2664 52L51.0664 49.38L49.2664 46.78H50.7264L51.8864 48.52L53.0464 46.78H54.4964L52.7064 49.38L54.4964 52H53.0464L51.8864 50.22L50.7364 52H49.2664ZM57.7493 52C57.3959 52 57.0859 51.9467 56.8193 51.84C56.5593 51.7267 56.3559 51.5433 56.2093 51.29C56.0626 51.03 55.9893 50.6767 55.9893 50.23V47.91H55.0893V46.78H55.9893L56.1393 45.33H57.3393V46.78H58.6893V47.91H57.3393V50.25C57.3393 50.4767 57.3893 50.6333 57.4893 50.72C57.5893 50.8067 57.7593 50.85 57.9993 50.85H58.7093V52H57.7493ZM59.9317 52V46.78H61.2817V52H59.9317ZM60.6117 46.15C60.3717 46.15 60.1717 46.08 60.0117 45.94C59.8583 45.7933 59.7817 45.61 59.7817 45.39C59.7817 45.17 59.8583 44.99 60.0117 44.85C60.1717 44.7033 60.3717 44.63 60.6117 44.63C60.8583 44.63 61.0583 44.7033 61.2117 44.85C61.3717 44.99 61.4517 45.17 61.4517 45.39C61.4517 45.61 61.3717 45.7933 61.2117 45.94C61.0583 46.08 60.8583 46.15 60.6117 46.15ZM62.6949 52V44.8H64.0449V52H62.6949ZM67.7895 52.12C67.2895 52.12 66.8462 52.01 66.4595 51.79C66.0795 51.5633 65.7828 51.2467 65.5695 50.84C65.3562 50.4333 65.2495 49.9667 65.2495 49.44C65.2495 48.9 65.3528 48.42 65.5595 48C65.7728 47.58 66.0695 47.2533 66.4495 47.02C66.8362 46.78 67.2862 46.66 67.7995 46.66C68.3128 46.66 68.7528 46.7733 69.1195 47C69.4862 47.2267 69.7662 47.5367 69.9595 47.93C70.1595 48.3167 70.2595 48.7567 70.2595 49.25C70.2595 49.3167 70.2595 49.39 70.2595 49.47C70.2595 49.55 70.2528 49.6333 70.2395 49.72H66.2095V48.9H68.9095C68.8962 48.54 68.7862 48.26 68.5795 48.06C68.3728 47.86 68.1128 47.76 67.7995 47.76C67.5728 47.76 67.3662 47.8167 67.1795 47.93C66.9928 48.0433 66.8462 48.2133 66.7395 48.44C66.6328 48.66 66.5795 48.9433 66.5795 49.29V49.58C66.5795 49.8733 66.6262 50.1267 66.7195 50.34C66.8195 50.5533 66.9595 50.72 67.1395 50.84C67.3195 50.96 67.5328 51.02 67.7795 51.02C68.0462 51.02 68.2528 50.9733 68.3995 50.88C68.5462 50.7867 68.6628 50.66 68.7495 50.5H70.1195C70.0262 50.8 69.8695 51.0733 69.6495 51.32C69.4362 51.5667 69.1728 51.7633 68.8595 51.91C68.5462 52.05 68.1895 52.12 67.7895 52.12ZM34.2974 63V56H35.6474V63H34.2974ZM37.0699 63V57.78H38.2499L38.3499 58.57C38.4965 58.29 38.7099 58.07 38.9899 57.91C39.2699 57.7433 39.6065 57.66 39.9999 57.66C40.4065 57.66 40.7532 57.7433 41.0399 57.91C41.3265 58.0767 41.5465 58.3167 41.6999 58.63C41.8532 58.9433 41.9299 59.3267 41.9299 59.78V63H40.5799V59.91C40.5799 59.5567 40.4899 59.2833 40.3099 59.09C40.1365 58.8967 39.8832 58.8 39.5499 58.8C39.3432 58.8 39.1532 58.8467 38.9799 58.94C38.8065 59.0333 38.6699 59.17 38.5699 59.35C38.4699 59.53 38.4199 59.7467 38.4199 60V63H37.0699ZM45.4501 63.12C44.9968 63.12 44.5935 63.0067 44.2401 62.78C43.8935 62.5467 43.6235 62.23 43.4301 61.83C43.2368 61.4233 43.1401 60.9567 43.1401 60.43C43.1401 59.89 43.2401 59.4133 43.4401 59C43.6401 58.58 43.9235 58.2533 44.2901 58.02C44.6568 57.78 45.0801 57.66 45.5601 57.66C45.9001 57.66 46.2001 57.7267 46.4601 57.86C46.7268 57.9867 46.9401 58.17 47.1001 58.41V55.8H48.4501V63H47.2501L47.1001 62.3C47.0001 62.4467 46.8768 62.5833 46.7301 62.71C46.5835 62.8367 46.4068 62.9367 46.2001 63.01C45.9935 63.0833 45.7435 63.12 45.4501 63.12ZM45.8301 61.94C46.0901 61.94 46.3168 61.8767 46.5101 61.75C46.7101 61.6233 46.8635 61.4433 46.9701 61.21C47.0835 60.9767 47.1401 60.7033 47.1401 60.39C47.1401 60.0767 47.0835 59.8033 46.9701 59.57C46.8635 59.3367 46.7101 59.1567 46.5101 59.03C46.3168 58.9033 46.0868 58.84 45.8201 58.84C45.5735 58.84 45.3501 58.9033 45.1501 59.03C44.9501 59.1567 44.7935 59.3367 44.6801 59.57C44.5668 59.7967 44.5101 60.0667 44.5101 60.38C44.5101 60.7 44.5668 60.9767 44.6801 61.21C44.7935 61.4433 44.9501 61.6233 45.1501 61.75C45.3501 61.8767 45.5768 61.94 45.8301 61.94ZM51.7638 63.12C51.3571 63.12 51.0071 63.0433 50.7138 62.89C50.4271 62.73 50.2071 62.4967 50.0538 62.19C49.9005 61.8833 49.8238 61.5 49.8238 61.04V57.78H51.1638V60.88C51.1638 61.2533 51.2538 61.53 51.4338 61.71C51.6138 61.89 51.8705 61.98 52.2038 61.98C52.4171 61.98 52.6071 61.9367 52.7738 61.85C52.9471 61.7633 53.0838 61.63 53.1838 61.45C53.2838 61.27 53.3338 61.05 53.3338 60.79V57.78H54.6838V63H53.4938L53.3938 62.21C53.2538 62.49 53.0438 62.7133 52.7638 62.88C52.4905 63.04 52.1571 63.12 51.7638 63.12ZM58.0943 63.12C57.5809 63.12 57.1576 63.0467 56.8243 62.9C56.4909 62.7467 56.2376 62.54 56.0643 62.28C55.8909 62.0133 55.7943 61.7167 55.7743 61.39H57.1143C57.1343 61.5167 57.1809 61.6333 57.2543 61.74C57.3276 61.8467 57.4309 61.9333 57.5643 62C57.7043 62.06 57.8743 62.09 58.0743 62.09C58.2476 62.09 58.3943 62.0667 58.5143 62.02C58.6409 61.9667 58.7343 61.8967 58.7943 61.81C58.8609 61.7167 58.8943 61.61 58.8943 61.49C58.8943 61.3367 58.8509 61.2167 58.7643 61.13C58.6843 61.0433 58.5676 60.9767 58.4143 60.93C58.2609 60.8767 58.0709 60.8333 57.8443 60.8C57.5509 60.7533 57.2809 60.6933 57.0343 60.62C56.7943 60.5467 56.5876 60.4533 56.4143 60.34C56.2476 60.22 56.1176 60.07 56.0243 59.89C55.9309 59.71 55.8843 59.4933 55.8843 59.24C55.8843 58.94 55.9676 58.67 56.1343 58.43C56.3009 58.19 56.5409 58.0033 56.8543 57.87C57.1676 57.73 57.5443 57.66 57.9843 57.66C58.6176 57.66 59.1076 57.7967 59.4543 58.07C59.8076 58.3433 60.0176 58.7167 60.0843 59.19H58.8143C58.7743 59.0367 58.6809 58.9167 58.5343 58.83C58.3943 58.7433 58.2043 58.7 57.9643 58.7C57.7176 58.7 57.5276 58.7467 57.3943 58.84C57.2609 58.9267 57.1943 59.0467 57.1943 59.2C57.1943 59.3 57.2243 59.3933 57.2843 59.48C57.3509 59.56 57.4576 59.63 57.6043 59.69C57.7576 59.7433 57.9643 59.7933 58.2243 59.84C58.6843 59.9067 59.0609 59.9933 59.3543 60.1C59.6543 60.2067 59.8776 60.3633 60.0243 60.57C60.1776 60.7767 60.2509 61.06 60.2443 61.42C60.2443 61.7733 60.1543 62.0767 59.9743 62.33C59.8009 62.5833 59.5509 62.78 59.2243 62.92C58.9043 63.0533 58.5276 63.12 58.0943 63.12ZM63.6086 63C63.2553 63 62.9453 62.9467 62.6786 62.84C62.4186 62.7267 62.2153 62.5433 62.0686 62.29C61.922 62.03 61.8486 61.6767 61.8486 61.23V58.91H60.9486V57.78H61.8486L61.9986 56.33H63.1986V57.78H64.5486V58.91H63.1986V61.25C63.1986 61.4767 63.2486 61.6333 63.3486 61.72C63.4486 61.8067 63.6186 61.85 63.8586 61.85H64.5686V63H63.6086ZM65.7711 63V57.78H66.9711L67.0911 58.7C67.2244 58.4733 67.3877 58.2833 67.5811 58.13C67.7744 57.9767 67.9977 57.86 68.2511 57.78C68.5111 57.7 68.7977 57.66 69.1111 57.66V59.09H68.4311C68.2511 59.09 68.0811 59.1133 67.9211 59.16C67.7611 59.2 67.6211 59.27 67.5011 59.37C67.3811 59.47 67.2877 59.6067 67.2211 59.78C67.1544 59.9467 67.1211 60.16 67.1211 60.42V63H65.7711ZM70.7184 65.2L71.8884 62.44H71.5884L69.5884 57.78H71.0584L72.4784 61.18L73.7584 57.78H75.1984L72.1384 65.2H70.7184Z" fill="white"/>
<defs>
<radialGradient id="paint0_radial_4948_2600" cx="0" cy="0" r="1" gradientUnits="userSpaceOnUse" gradientTransform="translate(54.258 54.259) rotate(90) scale(49.9181)">
<stop stop-color="#F24F7A"/>
<stop offset="1" stop-color="#DB1F51"/>
</radialGradient>
</defs>
</svg>
