<svg width="226" height="226" viewBox="0 0 226 226" fill="none" xmlns="http://www.w3.org/2000/svg">
<circle cx="113" cy="113" r="108" stroke="#FFAEC3" stroke-width="10"/>
<circle cx="112.5" cy="112.5" r="103.5" fill="url(#paint0_radial_2209_11853)"/>
<path d="M57 25L87 72" stroke="white"/>
<path d="M137 153L167 200" stroke="white"/>
<path d="M23.1277 118V105.72H18.9877V104H29.3677V105.72H25.2477V118H23.1277ZM31.4355 122.4L33.8155 117.18H33.2355L29.3155 108.08H31.6155L34.6555 115.42L37.8355 108.08H40.0755L33.6755 122.4H31.4355ZM41.8185 118V108.08H43.7185L43.8985 109.96C44.2452 109.307 44.7252 108.793 45.3385 108.42C45.9652 108.033 46.7185 107.84 47.5985 107.84V110.06H47.0185C46.4318 110.06 45.9052 110.16 45.4385 110.36C44.9852 110.547 44.6185 110.873 44.3385 111.34C44.0718 111.793 43.9385 112.427 43.9385 113.24V118H41.8185ZM53.7827 118.24C52.8094 118.24 51.9427 118.027 51.1827 117.6C50.4361 117.16 49.8494 116.553 49.4227 115.78C48.9961 115.007 48.7827 114.107 48.7827 113.08C48.7827 112.04 48.9894 111.127 49.4027 110.34C49.8294 109.553 50.4161 108.94 51.1627 108.5C51.9227 108.06 52.8027 107.84 53.8027 107.84C54.7761 107.84 55.6227 108.06 56.3427 108.5C57.0627 108.927 57.6227 109.5 58.0227 110.22C58.4227 110.94 58.6227 111.733 58.6227 112.6C58.6227 112.733 58.6161 112.88 58.6027 113.04C58.6027 113.187 58.5961 113.353 58.5827 113.54H50.8627C50.9294 114.5 51.2427 115.233 51.8027 115.74C52.3761 116.233 53.0361 116.48 53.7827 116.48C54.3827 116.48 54.8827 116.347 55.2827 116.08C55.6961 115.8 56.0027 115.427 56.2027 114.96H58.3227C58.0561 115.893 57.5227 116.673 56.7227 117.3C55.9361 117.927 54.9561 118.24 53.7827 118.24ZM53.7827 109.58C53.0761 109.58 52.4494 109.793 51.9027 110.22C51.3561 110.633 51.0227 111.26 50.9027 112.1H56.5027C56.4627 111.327 56.1894 110.713 55.6827 110.26C55.1761 109.807 54.5427 109.58 53.7827 109.58ZM64.7824 118.24C63.5291 118.24 62.4958 117.933 61.6824 117.32C60.8691 116.707 60.4024 115.893 60.2824 114.88H62.4224C62.5291 115.333 62.7824 115.727 63.1824 116.06C63.5824 116.38 64.1091 116.54 64.7624 116.54C65.4024 116.54 65.8691 116.407 66.1624 116.14C66.4558 115.873 66.6024 115.567 66.6024 115.22C66.6024 114.713 66.3958 114.373 65.9824 114.2C65.5824 114.013 65.0224 113.847 64.3024 113.7C63.7424 113.58 63.1824 113.42 62.6224 113.22C62.0758 113.02 61.6158 112.74 61.2424 112.38C60.8824 112.007 60.7024 111.507 60.7024 110.88C60.7024 110.013 61.0358 109.293 61.7024 108.72C62.3691 108.133 63.3024 107.84 64.5024 107.84C65.6091 107.84 66.5024 108.107 67.1824 108.64C67.8758 109.173 68.2824 109.927 68.4024 110.9H66.3624C66.2958 110.473 66.0958 110.14 65.7624 109.9C65.4424 109.66 65.0091 109.54 64.4624 109.54C63.9291 109.54 63.5158 109.653 63.2224 109.88C62.9291 110.093 62.7824 110.373 62.7824 110.72C62.7824 111.067 62.9824 111.34 63.3824 111.54C63.7958 111.74 64.3358 111.92 65.0024 112.08C65.6691 112.227 66.2824 112.4 66.8424 112.6C67.4158 112.787 67.8758 113.067 68.2224 113.44C68.5691 113.813 68.7424 114.36 68.7424 115.08C68.7558 115.987 68.4024 116.74 67.6824 117.34C66.9758 117.94 66.0091 118.24 64.7824 118.24ZM76.1759 118V104H78.6759L83.4159 113.32L88.1359 104H90.6359V118H88.5159V107.66L84.2359 116H82.5959L78.2959 107.68V118H76.1759ZM96.7605 118.24C95.9205 118.24 95.2272 118.1 94.6805 117.82C94.1339 117.54 93.7272 117.173 93.4605 116.72C93.1939 116.253 93.0605 115.747 93.0605 115.2C93.0605 114.24 93.4339 113.48 94.1805 112.92C94.9272 112.36 95.9939 112.08 97.3805 112.08H99.9805V111.9C99.9805 111.127 99.7672 110.547 99.3405 110.16C98.9272 109.773 98.3872 109.58 97.7205 109.58C97.1339 109.58 96.6205 109.727 96.1805 110.02C95.7539 110.3 95.4939 110.72 95.4005 111.28H93.2805C93.3472 110.56 93.5872 109.947 94.0005 109.44C94.4272 108.92 94.9605 108.527 95.6005 108.26C96.2539 107.98 96.9672 107.84 97.7405 107.84C99.1272 107.84 100.201 108.207 100.961 108.94C101.721 109.66 102.101 110.647 102.101 111.9V118H100.261L100.081 116.3C99.8005 116.847 99.3939 117.307 98.8605 117.68C98.3272 118.053 97.6272 118.24 96.7605 118.24ZM97.1805 116.52C97.7539 116.52 98.2339 116.387 98.6205 116.12C99.0205 115.84 99.3272 115.473 99.5405 115.02C99.7672 114.567 99.9072 114.067 99.9605 113.52H97.6005C96.7605 113.52 96.1605 113.667 95.8005 113.96C95.4539 114.253 95.2805 114.62 95.2805 115.06C95.2805 115.513 95.4472 115.873 95.7805 116.14C96.1272 116.393 96.5939 116.52 97.1805 116.52ZM104.572 118V108.08H106.452L106.612 109.82C106.919 109.207 107.366 108.727 107.952 108.38C108.552 108.02 109.239 107.84 110.012 107.84C111.212 107.84 112.152 108.213 112.832 108.96C113.526 109.707 113.872 110.82 113.872 112.3V118H111.772V112.52C111.772 110.6 110.986 109.64 109.412 109.64C108.626 109.64 107.972 109.92 107.452 110.48C106.946 111.04 106.692 111.84 106.692 112.88V118H104.572ZM120.029 118.24C118.829 118.24 117.883 117.867 117.189 117.12C116.509 116.373 116.169 115.26 116.169 113.78V108.08H118.289V113.56C118.289 115.48 119.076 116.44 120.649 116.44C121.436 116.44 122.083 116.16 122.589 115.6C123.096 115.04 123.349 114.24 123.349 113.2V108.08H125.469V118H123.589L123.429 116.26C123.123 116.873 122.669 117.36 122.069 117.72C121.483 118.067 120.803 118.24 120.029 118.24ZM128.666 118V109.86H127.246V108.08H128.666V106.64C128.666 105.56 128.933 104.787 129.466 104.32C130.013 103.84 130.78 103.6 131.766 103.6H132.806V105.4H132.086C131.62 105.4 131.286 105.5 131.086 105.7C130.886 105.887 130.786 106.207 130.786 106.66V108.08H133.066V109.86H130.786V118H128.666ZM138.05 118.24C137.21 118.24 136.516 118.1 135.97 117.82C135.423 117.54 135.016 117.173 134.75 116.72C134.483 116.253 134.35 115.747 134.35 115.2C134.35 114.24 134.723 113.48 135.47 112.92C136.216 112.36 137.283 112.08 138.67 112.08H141.27V111.9C141.27 111.127 141.056 110.547 140.63 110.16C140.216 109.773 139.676 109.58 139.01 109.58C138.423 109.58 137.91 109.727 137.47 110.02C137.043 110.3 136.783 110.72 136.69 111.28H134.57C134.636 110.56 134.876 109.947 135.29 109.44C135.716 108.92 136.25 108.527 136.89 108.26C137.543 107.98 138.256 107.84 139.03 107.84C140.416 107.84 141.49 108.207 142.25 108.94C143.01 109.66 143.39 110.647 143.39 111.9V118H141.55L141.37 116.3C141.09 116.847 140.683 117.307 140.15 117.68C139.616 118.053 138.916 118.24 138.05 118.24ZM138.47 116.52C139.043 116.52 139.523 116.387 139.91 116.12C140.31 115.84 140.616 115.473 140.83 115.02C141.056 114.567 141.196 114.067 141.25 113.52H138.89C138.05 113.52 137.45 113.667 137.09 113.96C136.743 114.253 136.57 114.62 136.57 115.06C136.57 115.513 136.736 115.873 137.07 116.14C137.416 116.393 137.883 116.52 138.47 116.52ZM150.561 118.24C149.588 118.24 148.715 118.02 147.941 117.58C147.181 117.14 146.581 116.533 146.141 115.76C145.715 114.973 145.501 114.067 145.501 113.04C145.501 112.013 145.715 111.113 146.141 110.34C146.581 109.553 147.181 108.94 147.941 108.5C148.715 108.06 149.588 107.84 150.561 107.84C151.788 107.84 152.815 108.16 153.641 108.8C154.481 109.44 155.021 110.307 155.261 111.4H153.041C152.908 110.853 152.615 110.427 152.161 110.12C151.708 109.813 151.175 109.66 150.561 109.66C150.041 109.66 149.561 109.793 149.121 110.06C148.681 110.313 148.328 110.693 148.061 111.2C147.795 111.693 147.661 112.307 147.661 113.04C147.661 113.773 147.795 114.393 148.061 114.9C148.328 115.393 148.681 115.773 149.121 116.04C149.561 116.307 150.041 116.44 150.561 116.44C151.175 116.44 151.708 116.287 152.161 115.98C152.615 115.673 152.908 115.24 153.041 114.68H155.261C155.035 115.747 154.501 116.607 153.661 117.26C152.821 117.913 151.788 118.24 150.561 118.24ZM161.525 118C160.552 118 159.779 117.767 159.205 117.3C158.632 116.82 158.345 115.973 158.345 114.76V109.86H156.645V108.08H158.345L158.605 105.56H160.465V108.08H163.265V109.86H160.465V114.76C160.465 115.307 160.579 115.687 160.805 115.9C161.045 116.1 161.452 116.2 162.025 116.2H163.165V118H161.525ZM169.111 118.24C167.911 118.24 166.965 117.867 166.271 117.12C165.591 116.373 165.251 115.26 165.251 113.78V108.08H167.371V113.56C167.371 115.48 168.158 116.44 169.731 116.44C170.518 116.44 171.165 116.16 171.671 115.6C172.178 115.04 172.431 114.24 172.431 113.2V108.08H174.551V118H172.671L172.511 116.26C172.205 116.873 171.751 117.36 171.151 117.72C170.565 118.067 169.885 118.24 169.111 118.24ZM177.248 118V108.08H179.148L179.328 109.96C179.675 109.307 180.155 108.793 180.768 108.42C181.395 108.033 182.148 107.84 183.028 107.84V110.06H182.448C181.862 110.06 181.335 110.16 180.868 110.36C180.415 110.547 180.048 110.873 179.768 111.34C179.502 111.793 179.368 112.427 179.368 113.24V118H177.248ZM186.046 106.2C185.646 106.2 185.313 106.08 185.046 105.84C184.793 105.587 184.666 105.273 184.666 104.9C184.666 104.527 184.793 104.22 185.046 103.98C185.313 103.727 185.646 103.6 186.046 103.6C186.446 103.6 186.773 103.727 187.026 103.98C187.293 104.22 187.426 104.527 187.426 104.9C187.426 105.273 187.293 105.587 187.026 105.84C186.773 106.08 186.446 106.2 186.046 106.2ZM184.986 118V108.08H187.106V118H184.986ZM189.904 118V108.08H191.784L191.944 109.82C192.251 109.207 192.698 108.727 193.284 108.38C193.884 108.02 194.571 107.84 195.344 107.84C196.544 107.84 197.484 108.213 198.164 108.96C198.858 109.707 199.204 110.82 199.204 112.3V118H197.104V112.52C197.104 110.6 196.318 109.64 194.744 109.64C193.958 109.64 193.304 109.92 192.784 110.48C192.278 111.04 192.024 111.84 192.024 112.88V118H189.904ZM205.761 114.96C205.241 114.96 204.761 114.9 204.321 114.78L203.461 115.62C203.608 115.713 203.788 115.793 204.001 115.86C204.215 115.927 204.515 115.987 204.901 116.04C205.288 116.093 205.815 116.147 206.481 116.2C207.801 116.32 208.755 116.64 209.341 117.16C209.928 117.667 210.221 118.347 210.221 119.2C210.221 119.787 210.061 120.34 209.741 120.86C209.435 121.393 208.948 121.82 208.281 122.14C207.628 122.473 206.788 122.64 205.761 122.64C204.375 122.64 203.248 122.373 202.381 121.84C201.528 121.32 201.101 120.527 201.101 119.46C201.101 119.047 201.208 118.633 201.421 118.22C201.648 117.82 202.001 117.44 202.481 117.08C202.201 116.96 201.955 116.833 201.741 116.7C201.541 116.553 201.361 116.407 201.201 116.26V115.78L202.921 114.02C202.148 113.353 201.761 112.48 201.761 111.4C201.761 110.747 201.915 110.153 202.221 109.62C202.541 109.073 203.001 108.64 203.601 108.32C204.201 108 204.921 107.84 205.761 107.84C206.321 107.84 206.841 107.92 207.321 108.08H211.021V109.48L209.261 109.58C209.581 110.127 209.741 110.733 209.741 111.4C209.741 112.067 209.581 112.667 209.261 113.2C208.955 113.733 208.501 114.16 207.901 114.48C207.315 114.8 206.601 114.96 205.761 114.96ZM205.761 113.3C206.375 113.3 206.868 113.14 207.241 112.82C207.628 112.487 207.821 112.02 207.821 111.42C207.821 110.807 207.628 110.34 207.241 110.02C206.868 109.7 206.375 109.54 205.761 109.54C205.135 109.54 204.628 109.7 204.241 110.02C203.868 110.34 203.681 110.807 203.681 111.42C203.681 112.02 203.868 112.487 204.241 112.82C204.628 113.14 205.135 113.3 205.761 113.3ZM203.101 119.26C203.101 119.833 203.355 120.26 203.861 120.54C204.368 120.833 205.001 120.98 205.761 120.98C206.495 120.98 207.088 120.82 207.541 120.5C207.995 120.193 208.221 119.78 208.221 119.26C208.221 118.873 208.068 118.54 207.761 118.26C207.455 117.993 206.875 117.827 206.021 117.76C205.381 117.72 204.815 117.66 204.321 117.58C203.855 117.833 203.535 118.107 203.361 118.4C203.188 118.693 203.101 118.98 203.101 119.26Z" fill="white"/>
<defs>
<radialGradient id="paint0_radial_2209_11853" cx="0" cy="0" r="1" gradientUnits="userSpaceOnUse" gradientTransform="translate(112.5 112.5) rotate(90) scale(103.5)">
<stop stop-color="#F24F7A"/>
<stop offset="1" stop-color="#DB1F51"/>
</radialGradient>
</defs>
</svg>
