<svg width="109" height="109" viewBox="0 0 109 109" fill="none" xmlns="http://www.w3.org/2000/svg">
<circle cx="54.5" cy="54.5" r="52.0885" stroke="#FFAEC3" stroke-width="4.82301"/>
<circle cx="54.258" cy="54.259" r="49.9181" fill="url(#paint0_radial_4948_2606)"/>
<path d="M27.4902 12.0576L41.9593 34.7258" stroke="white" stroke-width="0.482301"/>
<path d="M66.0762 73.792L80.5452 96.4601" stroke="white" stroke-width="0.482301"/>
<path d="M45.9416 52V46.09H43.8916V45H49.3216V46.09H47.2816V52H45.9416ZM50.4791 54.2L51.6491 51.44H51.3491L49.3491 46.78H50.8191L52.2391 50.18L53.5191 46.78H54.9591L51.8991 54.2H50.4791ZM55.8834 52V46.78H57.0834L57.2034 47.7C57.3367 47.4733 57.5 47.2833 57.6934 47.13C57.8867 46.9767 58.11 46.86 58.3634 46.78C58.6234 46.7 58.91 46.66 59.2234 46.66V48.09H58.5434C58.3634 48.09 58.1934 48.1133 58.0334 48.16C57.8734 48.2 57.7334 48.27 57.6134 48.37C57.4934 48.47 57.4 48.6067 57.3334 48.78C57.2667 48.9467 57.2334 49.16 57.2334 49.42V52H55.8834ZM62.4526 52.12C61.9526 52.12 61.5092 52.01 61.1226 51.79C60.7426 51.5633 60.4459 51.2467 60.2326 50.84C60.0192 50.4333 59.9126 49.9667 59.9126 49.44C59.9126 48.9 60.0159 48.42 60.2226 48C60.4359 47.58 60.7326 47.2533 61.1126 47.02C61.4992 46.78 61.9492 46.66 62.4626 46.66C62.9759 46.66 63.4159 46.7733 63.7826 47C64.1492 47.2267 64.4292 47.5367 64.6226 47.93C64.8226 48.3167 64.9226 48.7567 64.9226 49.25C64.9226 49.3167 64.9226 49.39 64.9226 49.47C64.9226 49.55 64.9159 49.6333 64.9026 49.72H60.8726V48.9H63.5726C63.5592 48.54 63.4492 48.26 63.2426 48.06C63.0359 47.86 62.7759 47.76 62.4626 47.76C62.2359 47.76 62.0292 47.8167 61.8426 47.93C61.6559 48.0433 61.5092 48.2133 61.4026 48.44C61.2959 48.66 61.2426 48.9433 61.2426 49.29V49.58C61.2426 49.8733 61.2892 50.1267 61.3826 50.34C61.4826 50.5533 61.6226 50.72 61.8026 50.84C61.9826 50.96 62.1959 51.02 62.4426 51.02C62.7092 51.02 62.9159 50.9733 63.0626 50.88C63.2092 50.7867 63.3259 50.66 63.4126 50.5H64.7826C64.6892 50.8 64.5326 51.0733 64.3126 51.32C64.0992 51.5667 63.8359 51.7633 63.5226 51.91C63.2092 52.05 62.8526 52.12 62.4526 52.12ZM34.2974 63V56H35.6474V63H34.2974ZM37.0699 63V57.78H38.2499L38.3499 58.57C38.4965 58.29 38.7099 58.07 38.9899 57.91C39.2699 57.7433 39.6065 57.66 39.9999 57.66C40.4065 57.66 40.7532 57.7433 41.0399 57.91C41.3265 58.0767 41.5465 58.3167 41.6999 58.63C41.8532 58.9433 41.9299 59.3267 41.9299 59.78V63H40.5799V59.91C40.5799 59.5567 40.4899 59.2833 40.3099 59.09C40.1365 58.8967 39.8832 58.8 39.5499 58.8C39.3432 58.8 39.1532 58.8467 38.9799 58.94C38.8065 59.0333 38.6699 59.17 38.5699 59.35C38.4699 59.53 38.4199 59.7467 38.4199 60V63H37.0699ZM45.4501 63.12C44.9968 63.12 44.5935 63.0067 44.2401 62.78C43.8935 62.5467 43.6235 62.23 43.4301 61.83C43.2368 61.4233 43.1401 60.9567 43.1401 60.43C43.1401 59.89 43.2401 59.4133 43.4401 59C43.6401 58.58 43.9235 58.2533 44.2901 58.02C44.6568 57.78 45.0801 57.66 45.5601 57.66C45.9001 57.66 46.2001 57.7267 46.4601 57.86C46.7268 57.9867 46.9401 58.17 47.1001 58.41V55.8H48.4501V63H47.2501L47.1001 62.3C47.0001 62.4467 46.8768 62.5833 46.7301 62.71C46.5835 62.8367 46.4068 62.9367 46.2001 63.01C45.9935 63.0833 45.7435 63.12 45.4501 63.12ZM45.8301 61.94C46.0901 61.94 46.3168 61.8767 46.5101 61.75C46.7101 61.6233 46.8635 61.4433 46.9701 61.21C47.0835 60.9767 47.1401 60.7033 47.1401 60.39C47.1401 60.0767 47.0835 59.8033 46.9701 59.57C46.8635 59.3367 46.7101 59.1567 46.5101 59.03C46.3168 58.9033 46.0868 58.84 45.8201 58.84C45.5735 58.84 45.3501 58.9033 45.1501 59.03C44.9501 59.1567 44.7935 59.3367 44.6801 59.57C44.5668 59.7967 44.5101 60.0667 44.5101 60.38C44.5101 60.7 44.5668 60.9767 44.6801 61.21C44.7935 61.4433 44.9501 61.6233 45.1501 61.75C45.3501 61.8767 45.5768 61.94 45.8301 61.94ZM51.7638 63.12C51.3571 63.12 51.0071 63.0433 50.7138 62.89C50.4271 62.73 50.2071 62.4967 50.0538 62.19C49.9005 61.8833 49.8238 61.5 49.8238 61.04V57.78H51.1638V60.88C51.1638 61.2533 51.2538 61.53 51.4338 61.71C51.6138 61.89 51.8705 61.98 52.2038 61.98C52.4171 61.98 52.6071 61.9367 52.7738 61.85C52.9471 61.7633 53.0838 61.63 53.1838 61.45C53.2838 61.27 53.3338 61.05 53.3338 60.79V57.78H54.6838V63H53.4938L53.3938 62.21C53.2538 62.49 53.0438 62.7133 52.7638 62.88C52.4905 63.04 52.1571 63.12 51.7638 63.12ZM58.0943 63.12C57.5809 63.12 57.1576 63.0467 56.8243 62.9C56.4909 62.7467 56.2376 62.54 56.0643 62.28C55.8909 62.0133 55.7943 61.7167 55.7743 61.39H57.1143C57.1343 61.5167 57.1809 61.6333 57.2543 61.74C57.3276 61.8467 57.4309 61.9333 57.5643 62C57.7043 62.06 57.8743 62.09 58.0743 62.09C58.2476 62.09 58.3943 62.0667 58.5143 62.02C58.6409 61.9667 58.7343 61.8967 58.7943 61.81C58.8609 61.7167 58.8943 61.61 58.8943 61.49C58.8943 61.3367 58.8509 61.2167 58.7643 61.13C58.6843 61.0433 58.5676 60.9767 58.4143 60.93C58.2609 60.8767 58.0709 60.8333 57.8443 60.8C57.5509 60.7533 57.2809 60.6933 57.0343 60.62C56.7943 60.5467 56.5876 60.4533 56.4143 60.34C56.2476 60.22 56.1176 60.07 56.0243 59.89C55.9309 59.71 55.8843 59.4933 55.8843 59.24C55.8843 58.94 55.9676 58.67 56.1343 58.43C56.3009 58.19 56.5409 58.0033 56.8543 57.87C57.1676 57.73 57.5443 57.66 57.9843 57.66C58.6176 57.66 59.1076 57.7967 59.4543 58.07C59.8076 58.3433 60.0176 58.7167 60.0843 59.19H58.8143C58.7743 59.0367 58.6809 58.9167 58.5343 58.83C58.3943 58.7433 58.2043 58.7 57.9643 58.7C57.7176 58.7 57.5276 58.7467 57.3943 58.84C57.2609 58.9267 57.1943 59.0467 57.1943 59.2C57.1943 59.3 57.2243 59.3933 57.2843 59.48C57.3509 59.56 57.4576 59.63 57.6043 59.69C57.7576 59.7433 57.9643 59.7933 58.2243 59.84C58.6843 59.9067 59.0609 59.9933 59.3543 60.1C59.6543 60.2067 59.8776 60.3633 60.0243 60.57C60.1776 60.7767 60.2509 61.06 60.2443 61.42C60.2443 61.7733 60.1543 62.0767 59.9743 62.33C59.8009 62.5833 59.5509 62.78 59.2243 62.92C58.9043 63.0533 58.5276 63.12 58.0943 63.12ZM63.6086 63C63.2553 63 62.9453 62.9467 62.6786 62.84C62.4186 62.7267 62.2153 62.5433 62.0686 62.29C61.922 62.03 61.8486 61.6767 61.8486 61.23V58.91H60.9486V57.78H61.8486L61.9986 56.33H63.1986V57.78H64.5486V58.91H63.1986V61.25C63.1986 61.4767 63.2486 61.6333 63.3486 61.72C63.4486 61.8067 63.6186 61.85 63.8586 61.85H64.5686V63H63.6086ZM65.7711 63V57.78H66.9711L67.0911 58.7C67.2244 58.4733 67.3877 58.2833 67.5811 58.13C67.7744 57.9767 67.9977 57.86 68.2511 57.78C68.5111 57.7 68.7977 57.66 69.1111 57.66V59.09H68.4311C68.2511 59.09 68.0811 59.1133 67.9211 59.16C67.7611 59.2 67.6211 59.27 67.5011 59.37C67.3811 59.47 67.2877 59.6067 67.2211 59.78C67.1544 59.9467 67.1211 60.16 67.1211 60.42V63H65.7711ZM70.7184 65.2L71.8884 62.44H71.5884L69.5884 57.78H71.0584L72.4784 61.18L73.7584 57.78H75.1984L72.1384 65.2H70.7184Z" fill="white"/>
<defs>
<radialGradient id="paint0_radial_4948_2606" cx="0" cy="0" r="1" gradientUnits="userSpaceOnUse" gradientTransform="translate(54.258 54.259) rotate(90) scale(49.9181)">
<stop stop-color="#F24F7A"/>
<stop offset="1" stop-color="#DB1F51"/>
</radialGradient>
</defs>
</svg>
