<svg width="15" height="19" viewBox="0 0 15 19" fill="none" xmlns="http://www.w3.org/2000/svg">
<path d="M2.34482 13.401L2.34477 13.4011L1.62544 15.9458C1.62543 15.9459 1.62541 15.9459 1.62539 15.946C1.55787 16.1809 1.60306 16.4253 1.74892 16.6192C1.89707 16.8168 2.12543 16.9305 2.37291 16.9305H8.42754C8.76956 16.9305 9.04629 17.2075 9.04629 17.5492C9.04629 17.891 8.76956 18.168 8.42754 18.168H2.37291C1.73192 18.168 1.14457 17.8746 0.759871 17.3628C0.377862 16.8544 0.259732 16.2144 0.435568 15.606L0.435726 15.6055L1.15443 13.0633C1.7388 11.0091 3.64025 9.57487 5.77715 9.57487H5.99097H6.24229L6.05967 9.40221C5.06827 8.46483 4.44597 7.14219 4.44597 5.67441C4.44597 2.842 6.75047 0.5375 9.58288 0.5375C12.4153 0.5375 14.7198 2.842 14.7198 5.67441C14.7198 7.16907 14.0739 8.51272 13.0505 9.45272L12.9314 9.56203L13.0824 9.61977C13.3161 9.70919 13.4816 9.93098 13.4816 10.1936C13.4816 10.5353 13.2049 10.8124 12.8629 10.8124H5.77715C4.18977 10.8124 2.77893 11.8765 2.34482 13.401ZM9.58288 1.775C7.43246 1.775 5.68347 3.52435 5.68347 5.67441C5.68347 7.82448 7.43247 9.57347 9.58288 9.57347C11.7333 9.57347 13.4823 7.82448 13.4823 5.67441C13.4823 3.52435 11.7333 1.775 9.58288 1.775Z" fill="#2A2A2A" stroke="#EEF2F7" stroke-width="0.2"/>
</svg>
