<svg width="20" height="20" viewBox="0 0 20 20" fill="none" xmlns="http://www.w3.org/2000/svg">
<path d="M4.55175 13.0611L4.552 13.0614C6.3408 15.1997 8.49481 16.884 10.9535 18.0757L10.9547 18.0763C11.8869 18.5181 13.1503 19.0508 14.5637 19.1422L14.5637 19.1423L14.5669 19.1424L14.5781 19.1429C14.6594 19.1464 14.7413 19.15 14.827 19.15C15.7946 19.15 16.5802 18.8139 17.2172 18.1237C17.2214 18.1196 17.2342 18.1066 17.2463 18.0886C17.4408 17.855 17.6603 17.6421 17.8973 17.4122C17.9143 17.3957 17.9313 17.3791 17.9485 17.3625C18.1244 17.194 18.305 17.0172 18.4786 16.8361C18.8981 16.3989 19.1162 15.893 19.1152 15.3813C19.1142 14.8693 18.8937 14.3692 18.4689 13.9445L16.2293 11.7049C16.229 11.7046 16.2287 11.7042 16.2283 11.7039C15.8243 11.2845 15.3322 11.0547 14.8084 11.0547C14.2844 11.0547 13.7891 11.2846 13.3745 11.6992L12.1193 12.9543C12.0254 12.9035 11.9319 12.8568 11.8448 12.8132L11.8431 12.8124C11.6937 12.7377 11.5621 12.6699 11.4463 12.5962L11.4462 12.5961C10.2462 11.8342 9.1541 10.8389 8.10728 9.55551C7.6099 8.92586 7.2707 8.39646 7.02993 7.86727C7.35414 7.56928 7.65906 7.26056 7.95213 6.96061L7.95262 6.96009C8.06352 6.8455 8.17826 6.73075 8.29404 6.61498C8.71858 6.19044 8.95712 5.68788 8.95712 5.16618C8.95712 4.64513 8.72285 4.14237 8.29381 3.71716C8.29373 3.71708 8.29364 3.71699 8.29355 3.7169L7.18256 2.60591C7.05633 2.47968 6.93704 2.35688 6.81364 2.22984L6.80369 2.21961C6.80368 2.21959 6.80366 2.21958 6.80365 2.21956C6.55775 1.96621 6.29862 1.70326 6.04239 1.46578C5.63442 1.06639 5.14723 0.85 4.62602 0.85C4.10764 0.85 3.6169 1.06709 3.19471 1.46955L3.19468 1.46951L3.19215 1.47205L1.7972 2.867C1.26509 3.39911 0.962329 4.04758 0.899666 4.7956L0.899616 4.79624C0.826517 5.71573 0.996745 6.68553 1.42689 7.84397C2.08659 9.63454 3.08097 11.294 4.55175 13.0611ZM5.1904 2.34343L5.19028 2.34355L5.1955 2.34839C5.40937 2.54629 5.61211 2.75244 5.82842 2.97237C5.86148 3.00599 5.89486 3.03993 5.92864 3.07421C5.99238 3.13982 6.05699 3.20536 6.12161 3.27092L6.12276 3.27209C6.18725 3.3375 6.25177 3.40295 6.31623 3.46925L6.31622 3.46926L6.31771 3.47076L7.42919 4.58224C7.64467 4.79771 7.73586 4.99678 7.73586 5.17364C7.73586 5.35051 7.64467 5.54958 7.42919 5.76505C7.37095 5.82329 7.31279 5.88239 7.25511 5.941L7.25491 5.9412C7.19703 6.00002 7.13964 6.05833 7.08232 6.11565L7.08176 6.11622C7.05575 6.1425 7.0299 6.16865 7.00418 6.19467C6.6856 6.51695 6.38666 6.81935 6.05953 7.109L6.05935 7.10879L6.0529 7.11524L6.03425 7.13388C5.85811 7.31003 5.77584 7.49118 5.75413 7.66783C5.73289 7.84064 5.77146 7.99519 5.81152 8.1154C5.81495 8.12569 5.81836 8.13411 5.82015 8.13859L5.82271 8.14524L5.82234 8.14536L5.82653 8.15544C6.1203 8.86124 6.5275 9.52958 7.15677 10.3209L7.15766 10.322C8.28519 11.7126 9.47541 12.7944 10.7886 13.6284C10.9293 13.72 11.0789 13.7956 11.2148 13.8643C11.2417 13.8779 11.268 13.8912 11.2937 13.9044L11.2949 13.905C11.4443 13.9797 11.576 14.0475 11.6918 14.1212L11.6983 14.1253L11.7052 14.1288C11.7084 14.1304 11.7116 14.1321 11.7184 14.136C11.7243 14.1394 11.7336 14.1448 11.7446 14.1503C11.8866 14.2235 12.0294 14.2602 12.1751 14.2602C12.5386 14.2602 12.7707 14.0289 12.8369 13.9627L14.2319 12.5677C14.4301 12.3695 14.6292 12.2797 14.8084 12.2797C15.0298 12.2797 15.2239 12.4186 15.3586 12.5637L15.3585 12.5638L15.3626 12.5678L17.6115 14.8131L17.6116 14.8132C17.8164 15.018 17.902 15.2146 17.9005 15.3991C17.899 15.5848 17.8092 15.7896 17.5982 16.0092L17.5968 16.0108C17.4431 16.1755 17.2814 16.3335 17.1066 16.5009L17.1058 16.5016C17.0912 16.5158 17.0765 16.5301 17.0617 16.5444C16.8158 16.7831 16.5555 17.0358 16.3183 17.3193C15.9198 17.7476 15.4502 17.9474 14.8307 17.9474C14.7725 17.9474 14.7096 17.944 14.646 17.9402C13.453 17.8638 12.3374 17.3974 11.4866 16.9924C9.18644 15.8792 7.16706 14.3001 5.49103 12.2949C4.10838 10.6305 3.18194 9.08597 2.56982 7.434L2.56964 7.4335C2.19032 6.42077 2.05148 5.61956 2.10868 4.89914C2.15044 4.43801 2.32557 4.05713 2.65832 3.72438L4.04485 2.33786C4.24063 2.14917 4.44346 2.0638 4.62602 2.0638C4.80312 2.0638 4.99796 2.14762 5.1904 2.34343Z" fill="white" stroke="white" stroke-width="0.3"/>
</svg>
