<svg width="22" height="22" viewBox="0 0 22 22" fill="none" xmlns="http://www.w3.org/2000/svg">
<g clip-path="url(#clip0_2026_1976)">
<path d="M20.0664 3.21562H1.93359C0.842052 3.21562 -0.05 4.10372 -0.05 5.19922V16.8008C-0.05 17.8967 0.842626 18.7844 1.93359 18.7844H20.0664C21.1579 18.7844 22.05 17.8963 22.05 16.8008V5.19922C22.05 4.10345 21.1575 3.21562 20.0664 3.21562ZM10.5359 12.8164L2.35094 4.60469H19.6491L11.4641 12.8164C11.3494 12.9314 11.1765 12.9913 11 12.9913C10.8235 12.9913 10.6506 12.9315 10.5359 12.8164ZM6.76423 11L1.33906 16.4428V5.55718L6.76423 11ZM2.35094 17.3953L7.74486 11.9838L9.55216 13.797C10.3268 14.5742 11.6735 14.5739 12.4479 13.797L14.2552 11.9839L19.6491 17.3953H2.35094ZM15.2358 11L20.6609 5.55718V16.4428L15.2358 11Z" fill="white" stroke="white" stroke-width="0.1"/>
</g>
<defs>
<clipPath id="clip0_2026_1976">
<rect width="22" height="22" fill="white"/>
</clipPath>
</defs>
</svg>
